<?xml version="1.0" encoding="utf-8"?>
<!-- Generator: Adobe Illustrator 18.0.0, SVG Export Plug-In . SVG Version: 6.00 Build 0)  -->
<!DOCTYPE svg PUBLIC "-//W3C//DTD SVG 1.1//EN" "http://www.w3.org/Graphics/SVG/1.1/DTD/svg11.dtd">
<svg version="1.1" id="Layer_1" xmlns="http://www.w3.org/2000/svg" xmlns:xlink="http://www.w3.org/1999/xlink" x="0px" y="0px"
	 width="372px" height="230px" viewBox="0 0 372 230" enable-background="new 0 0 372 230" xml:space="preserve">
<g>
	<path fill="#3E4981" d="M60.1,173.9v-31.2l-37.4,31.2H60.1z M60,197.5v-13.9H0v-4.9l53.1-44.8h21.2v39.8H89v9.9H74.3v13.9H60z"/>
	<polygon fill="#2D7F67" points="159.4,172.4 159.4,183.9 95.4,183.9 95.4,133.9 109.7,133.9 109.7,172.4 	"/>
	<rect x="172.1" y="133.9" fill="#2D7F67" width="14.3" height="49.9"/>
	<polygon fill="#2D7F67" points="268.4,155.7 268.4,166.3 217.7,166.3 217.7,183.9 203.4,183.9 203.4,133.9 269.4,133.9 
		269.4,145.3 217.7,145.3 217.7,155.7 	"/>
	<polygon fill="#2D7F67" points="349.9,153.3 349.9,164 296.8,164 296.8,172.5 349.9,172.5 349.9,183.9 282.8,183.9 282.8,133.9 
		349.9,133.9 349.9,145.3 296.8,145.3 296.8,153.3 	"/>
	<rect x="6.4" y="119.9" fill="#3E4981" width="349.9" height="4.8"/>
	<g>
		<path fill="#2D7F67" d="M45.8,53.4c-20.9,0-30.7,5.3-35.1,9.8C5.9,68,3.4,74.6,3.4,82.5s2.5,14.5,7.3,19.3
			c4.5,4.5,14.2,9.8,35.1,9.8c13.4,0,25.7-2.5,33.7-6.9l0.4-0.2V92.3l-1,0.6c-8.6,4.8-20.9,7.7-33,7.7c-11.7,0-20.7-2.3-24.7-6.2
			c-2.9-2.9-4.2-6.6-4.2-11.8c0-5.2,1.4-9.2,4.1-11.9c3.9-3.9,12.9-6.1,24.8-6.1c11.9,0,24.2,3.1,32.9,8.2l1,0.6V60.5l-0.4-0.2
			C71.5,55.9,59.3,53.4,45.8,53.4z"/>
		<path fill="#2D7F67" d="M125.7,54.3l-38.8,56.1h15l8.7-12.8h46.7l8.7,12.8h15.5l-38.8-56.1H125.7z M149.9,86.5H118l15.9-23.5
			L149.9,86.5z"/>
		<path fill="#2D7F67" d="M225,76.4c-17.2-0.8-21.1-1.7-22.5-3.2c-0.6-0.6-1-1.6-1-2.9c0-1.4,0.4-2.4,1.1-3.2c1.5-1.5,5.1-3,20.4-3
			c11.4,0,25.2,2.5,33.5,6l1,0.4V58.9l-0.4-0.2c-8.3-3.3-20.4-5.1-34.1-5.1c-17,0-26.2,2-30.9,6.7c-2.7,2.7-4,6.3-4,11.1
			c0,4.2,1.1,7.4,3.3,9.6c4.2,4.2,11.8,5.8,32.5,6.8c18.4,1,22.1,1.7,23.6,3.2c0.8,0.8,1.1,1.8,1.1,3.3c0,1.4-0.4,2.5-1.3,3.3
			c-1.9,1.9-6.4,3.2-21.8,3.2c-12.9,0-29.9-3.1-37.9-7l-1-0.5v11.7l0.4,0.2c8.5,3.7,23.7,6.1,38.5,6.1c22.4,0,29.1-3.8,32.4-7.1
			c2.7-2.7,4-6.3,4-11.2c0-4.1-1.3-7.6-3.5-9.9C254.8,79.4,249,77.6,225,76.4z"/>
		<polygon fill="#2D7F67" points="344.4,54.6 344.4,76.5 291.4,76.5 291.4,54.6 278,54.6 278,110.4 291.4,110.4 291.4,87.8 
			344.4,87.8 344.4,110.4 357.8,110.4 357.8,54.6 		"/>
	</g>
	<g>
		<path fill="#2D7F67" d="M361.4,135.3h-3.1v4.2h-1.8v-4.2l-3.1,0v-1.4h8V135.3z M364.7,133.9l2.3,4.4l2.3-4.4h2.6v5.6h-1.6v-4.4
			l-2.3,4.4h-2.2l-2.3-4.3v4.3H362v-5.6H364.7z"/>
	</g>
	<g>
		<path fill="#3E4981" d="M23.3,42.4v-9.5h3.4v12.3h-5.1l-10.4-9.7v9.7H7.8V32.9h5.3L23.3,42.4z"/>
		<path fill="#3E4981" d="M47,37.7v2.6H34.2v2.1h13.1v2.8H30.8V32.9h16.6v2.8H34.2v2H47z"/>
		<path fill="#3E4981" d="M74.9,45.3h-4.7L65.6,36L61,45.3h-4.7l-6.7-12.4h4l5.2,9.9l4.9-9.9h4l4.8,9.9l5.2-9.9h3.9L74.9,45.3z"/>
		<path fill="#3E4981" d="M105.1,39.5c0,2-0.3,3.2-1.4,4.3c-1,1-2.8,1.6-5.6,1.6c-2.5,0-5.2-0.5-6.9-1.2v-2.9
			c1.8,0.8,4.6,1.4,6.7,1.4c1.3,0,2.3-0.1,3-0.8c0.5-0.5,0.7-1.2,0.7-2.8v-6.2h3.5V39.5z"/>
		<path fill="#3E4981" d="M125.2,37.7v2.6h-12.8v2.1h13.1v2.8h-16.6V32.9h16.6v2.8h-13.1v2H125.2z"/>
		<path fill="#3E4981" d="M145.9,39.9c-0.7,0.7-1.7,1.2-3.8,1.3l6.2,4v0.1h-5.1l-5.9-4h-4.4v4h-3.5V32.9H140c3.7,0,5,0.4,5.9,1.3
			c0.8,0.8,1,1.8,1,2.8C146.9,38,146.7,39.1,145.9,39.9z M140,35.8h-7.2v2.9h7.2c1.6,0,2.6-0.1,3-0.6c0.2-0.2,0.4-0.6,0.4-0.9
			c0-0.4-0.1-0.7-0.4-1C142.6,35.8,141.8,35.8,140,35.8z"/>
		<path fill="#3E4981" d="M151,34.2c1-1,3.1-1.5,7.2-1.5c3.1,0,6.2,0.5,7.8,1.1v2.9c-1.9-0.8-5.1-1.4-7.8-1.4c-3,0-4.3,0.2-4.6,0.6
			c-0.1,0.1-0.2,0.3-0.2,0.5c0,0.2,0.1,0.4,0.2,0.6c0.4,0.4,1.8,0.5,5,0.5c4.7,0.1,6.8,0.5,7.7,1.5c0.5,0.5,0.8,1.3,0.8,2.2
			c0,0.9-0.2,1.9-0.9,2.6c-0.9,0.9-2.9,1.6-7.7,1.6c-3.5,0-6.9-0.5-8.8-1.3v-2.9c1.8,0.8,5.8,1.6,8.8,1.6c2.7,0,4.5-0.1,5-0.6
			c0.2-0.2,0.2-0.4,0.2-0.6c0-0.2-0.1-0.4-0.2-0.5c-0.3-0.3-0.8-0.5-5-0.6c-4.5-0.1-6.7-0.6-7.8-1.6c-0.5-0.5-0.8-1.2-0.8-2.1
			C150.1,35.8,150.3,35,151,34.2z"/>
		<path fill="#3E4981" d="M186.7,37.7v2.6h-12.8v2.1H187v2.8h-16.6V32.9H187v2.8h-13.1v2H186.7z"/>
		<path fill="#3E4981" d="M204.6,32.9h4.4V33l-8.4,7.4v4.9h-3.5v-4.8l-8.4-7.4v-0.1h4.7l5.6,5L204.6,32.9z"/>
		<path fill="#3E4981" d="M234.6,42.4v2.8H219V32.9h3.5v9.5H234.6z"/>
		<path fill="#3E4981" d="M238.3,34.7c1.2-1.2,3.4-2.2,8.6-2.2c5.2,0,7.4,1,8.6,2.2c1.2,1.2,1.7,2.6,1.7,4.4c0,1.8-0.5,3.2-1.7,4.4
			c-1.2,1.2-3.4,2.2-8.6,2.2c-5.2,0-7.4-1-8.6-2.2c-1.2-1.2-1.7-2.6-1.7-4.4C236.6,37.3,237.1,35.8,238.3,34.7z M252.6,36.5
			c-0.7-0.7-2.2-1.3-5.8-1.3c-3.5,0-5,0.6-5.8,1.3c-0.5,0.5-0.9,1.3-0.9,2.6c0,1.3,0.4,2.1,0.9,2.6c0.7,0.7,2.2,1.3,5.8,1.3
			c3.5,0,5-0.6,5.8-1.3c0.5-0.5,0.9-1.3,0.9-2.6C253.5,37.8,253.1,37,252.6,36.5z"/>
		<path fill="#3E4981" d="M277.8,35.7H270v9.5h-3.5v-9.5h-7.8v-2.8h19.1V35.7z"/>
		<path fill="#3E4981" d="M298.9,35.7h-7.8v9.5h-3.5v-9.5h-7.8v-2.8h19.1V35.7z"/>
		<path fill="#3E4981" d="M318.1,37.7v2.6h-12.8v2.1h13.1v2.8h-16.6V32.9h16.6v2.8h-13.1v2H318.1z"/>
		<path fill="#3E4981" d="M338.8,39.9c-0.7,0.7-1.7,1.2-3.8,1.3l6.2,4v0.1h-5.1l-5.9-4h-4.4v4h-3.5V32.9H333c3.7,0,5,0.4,5.9,1.3
			c0.8,0.8,1,1.8,1,2.8C339.9,38,339.7,39.1,338.8,39.9z M333,35.8h-7.2v2.9h7.2c1.6,0,2.6-0.1,3-0.6c0.2-0.2,0.4-0.6,0.4-0.9
			c0-0.4-0.1-0.7-0.4-1C335.6,35.8,334.8,35.8,333,35.8z"/>
		<path fill="#3E4981" d="M357,32.9h4.4V33l-8.4,7.4v4.9h-3.5v-4.8l-8.4-7.4v-0.1h4.7l5.6,5L357,32.9z"/>
	</g>
</g>
</svg>
