<?xml version="1.0" encoding="utf-8"?>
<!-- Generator: Adobe Illustrator 16.0.0, SVG Export Plug-In . SVG Version: 6.00 Build 0)  -->
<!DOCTYPE svg PUBLIC "-//W3C//DTD SVG 1.1//EN" "http://www.w3.org/Graphics/SVG/1.1/DTD/svg11.dtd">
<svg version="1.1" id="Layer_1" xmlns="http://www.w3.org/2000/svg" xmlns:xlink="http://www.w3.org/1999/xlink" x="0px" y="0px"
	 width="382px" height="240px" viewBox="0 0 382 240" enable-background="new 0 0 382 240" xml:space="preserve">
<polygon fill="#6BAE44" points="112.843,43.392 123.185,54.814 137.492,47.525 129.58,60.582 141.179,72.244 126.331,68.923 
	118.808,83.389 116.259,67.373 101.296,65.558 114.769,58.65 "/>
<polygon fill="#6BAE44" points="185.415,40.964 189.063,43.145 192.249,40.069 191.214,44.15 195.212,46.292 191.027,46.612 
	190.209,51.033 188.246,47.015 184.153,47.74 187.151,44.833 "/>
<g>
	<defs>
		<rect id="SVGID_1_" x="-213" y="-190" width="792" height="612"/>
	</defs>
	<clipPath id="SVGID_2_">
		<use xlink:href="#SVGID_1_"  overflow="visible"/>
	</clipPath>
	<path clip-path="url(#SVGID_2_)" fill="#6BAE44" d="M134.413,34.03c24.217,4.346,49.025,0.73,59.091-4.594
		c-16.814,4.952-39.258,4.862-65.073-2.828L134.413,34.03z"/>
	<polygon clip-path="url(#SVGID_2_)" fill="#6BAE44" points="103.699,1.999 112.796,14.436 127.784,8.675 118.556,20.837 
		128.878,33.644 114.457,28.796 105.469,42.4 104.601,26.205 89.908,22.842 104.026,17.375 	"/>
	<polygon clip-path="url(#SVGID_2_)" fill="#6BAE44" points="69.902,54.447 75.018,62.679 84.69,59.777 78.325,66.967 84.19,75.488 
		75.377,71.763 69.094,79.868 69.319,69.671 60.263,66.864 69.377,64.105 	"/>
	<polygon clip-path="url(#SVGID_2_)" fill="#6BAE44" points="161.193,70.238 166.398,74.246 171.847,70.103 169.518,76.18 
		175.268,80.193 168.788,79.926 166.728,86.565 164.445,80.039 158.03,80.412 163.158,76.493 	"/>
	<polygon clip-path="url(#SVGID_2_)" fill="#6BAE44" points="151.528,42.308 155.722,46.023 160.601,42.818 158.263,47.852 
		162.92,51.604 157.422,50.997 155.28,56.525 153.72,50.838 148.24,50.779 152.833,47.745 	"/>
	<path clip-path="url(#SVGID_2_)" fill="#6BAE44" d="M254.375,27.875c-29.094,25.366-73.593,36.805-118.898,30.823l-0.77,1.27
		l7.423,7.465C186.002,69.275,232.833,51.843,254.375,27.875"/>
	<path clip-path="url(#SVGID_2_)" fill="#6BAE44" d="M65.054,35.147c-0.989,0.313-1.99,0.588-2.989,0.866
		c-3.982,1.546-8.075,2.793-12.242,3.736c16.316,9.761,33.486,16.879,51.012,21.475l9.542-4.893l-0.346-2.737
		C94.641,49.423,79.534,43.306,65.054,35.147"/>
	<path clip-path="url(#SVGID_2_)" fill="#D1D3D4" d="M284.564,85.804l2.861-21.244l-10.772,1.4l1.643-12.129l-22.747,2.957
		l-1.641,12.128l-5.478,0.712l-1.043,7.758c-3.157-4.108-8.017-6.502-13.847-6.502c-0.977,0-1.984,0.067-2.998,0.199
		c-1.911,0.248-3.753,0.776-5.536,1.59l-22.17,2.882l-1.922,14.526c-2.621-7.648-9.456-11.954-19.351-11.954
		c-1.69,0-3.499,0.124-5.374,0.368c-5.603,0.728-10.973,2.334-15.72,4.665l0.287-2.136l-10.772,1.4l1.641-12.129l-22.745,2.956
		l-1.642,12.129l-5.476,0.712l-0.555,4.126c-5.38-2.351-11.886-3.378-17.762-2.616c-6.664,0.867-12.149,3.628-15.861,7.985
		c-1.408,1.652-2.507,3.495-3.292,5.465c-2.985-5.486-8.477-8.78-15.31-8.78c-0.976,0-1.985,0.067-2.999,0.199
		c-1.91,0.249-3.75,0.776-5.534,1.59l-22.008,2.861l1.944-14.518l-22.913,2.979l-9.602,71.694l22.847-2.969l22.729-2.955
		l4.069-30.263c0.508-3.881,2.069-6.019,4.638-6.352c0.277-0.036,0.536-0.055,0.77-0.055c0.548,0,0.775,0.086,0.789,0.089
		c0.024,0.039,0.129,0.233,0.189,0.694c0.078,0.602,0.071,1.932-0.063,2.943l-4.31,32.154l22.747-2.958l0.8-6.024
		c4.958,2.845,11.021,4.434,17.225,4.434c1.497,0,2.982-0.095,4.412-0.28c8.935-1.161,15.662-5.674,18.885-12.026
		c2.338,4.565,7.258,7.342,13.556,7.342c1.05,0,2.153-0.073,3.277-0.22c4.141-0.538,8.081-1.889,11.094-3.801l1.86-1.182
		l0.481-3.522c3.131,3.163,7.566,5.011,12.703,5.011c0.94,0,1.905-0.063,2.867-0.188c2.155-0.28,4.207-0.84,6.133-1.667v0.001
		l19.706-2.563l22.729-2.954l4.068-30.263c0.51-3.881,2.07-6.018,4.641-6.352c0.277-0.036,0.535-0.054,0.771-0.054
		c0.536,0,0.78,0.107,0.787,0.087c0.024,0.04,0.129,0.234,0.188,0.698c0.079,0.599,0.072,1.927-0.063,2.939l-4.31,32.155
		l22.746-2.957l1.954-14.714c0.028,0.434,0.054,0.866,0.111,1.313c0.93,7.15,6.787,11.769,14.923,11.769
		c1.051,0,2.153-0.073,3.278-0.22c4.142-0.539,8.081-1.89,11.094-3.803l1.859-1.181l3.201-23.446l-8.499,5.14
		c-0.883,0.534-1.92,0.988-2.936,1.297l1.978-14.972L284.564,85.804z M85.504,123.106l0.566-4.265
		c0.442,0.565,0.916,1.098,1.425,1.587L85.504,123.106z M119.114,111.132l2.723-4.177l2.552-0.332l-1.156,8.701
		C122.115,113.631,120.69,112.258,119.114,111.132 M149.146,116.702l-1.057,0.64c-0.882,0.534-1.92,0.988-2.935,1.296l1.977-14.972
		l10.767-1.398l0.543-4.031l1.113,3.285C153.63,104.91,149.92,110.253,149.146,116.702"/>
	<path clip-path="url(#SVGID_2_)" fill="#FFFFFF" d="M281.983,81.497l2.861-21.257l-10.771,1.4l1.641-12.128l-22.757,2.957
		l-1.642,12.129l-5.477,0.711l-1.044,7.75c-3.157-4.104-8.014-6.494-13.841-6.494c-0.977,0-1.985,0.067-2.999,0.199
		c-1.91,0.248-3.75,0.775-5.534,1.589l-22.178,2.882l-1.918,14.506c-2.629-7.634-9.461-11.932-19.347-11.932
		c-1.691,0-3.5,0.124-5.376,0.367c-5.599,0.728-10.966,2.332-15.712,4.66l0.287-2.132l-10.772,1.399l1.642-12.127l-22.759,2.957
		l-1.641,12.128l-4.772,0.473l-1.26,4.362c-5.38-2.35-11.885-3.377-17.757-2.613c-9.432,1.226-16.353,6.309-19.181,13.391
		c-2.994-5.451-8.471-8.721-15.281-8.721c-0.977,0-1.986,0.067-3,0.199c-1.909,0.248-3.75,0.775-5.533,1.589l-22.001,2.86
		l1.944-14.517l-22.926,2.98l-9.603,71.708l22.926-2.979v-0.002l22.663-2.944l4.07-30.268c0.508-3.878,2.067-6.014,4.633-6.347
		c0.276-0.036,0.535-0.054,0.77-0.054c0.546,0,0.777,0.092,0.783,0.085c0.039,0.061,0.133,0.277,0.187,0.692
		c0.078,0.602,0.071,1.93-0.063,2.941l-4.311,32.164l22.761-2.959l0.799-6.021c4.957,2.843,11.017,4.43,17.218,4.43
		c1.498,0,2.983-0.094,4.414-0.28c8.933-1.16,15.659-5.668,18.885-12.019c2.341,4.563,7.26,7.335,13.554,7.335
		c1.052,0,2.155-0.074,3.279-0.22c4.142-0.538,8.084-1.89,11.099-3.806l1.861-1.182l0.479-3.513
		c3.131,3.159,7.565,5.005,12.699,5.005c0.94,0,1.905-0.063,2.868-0.188c2.154-0.28,4.205-0.841,6.131-1.666l19.7-2.563v0.001
		l22.743-2.957l4.069-30.268c0.508-3.878,2.066-6.013,4.633-6.346c0.276-0.036,0.536-0.055,0.771-0.055
		c0.546,0,0.78,0.096,0.783,0.086c0.039,0.06,0.133,0.276,0.188,0.692c0.077,0.6,0.07,1.929-0.063,2.94l-4.313,32.163l22.76-2.958
		l1.947-14.668c0.029,0.417,0.052,0.832,0.108,1.262c0.928,7.153,6.787,11.775,14.927,11.775c1.051,0,2.154-0.073,3.277-0.22
		c4.142-0.538,8.084-1.889,11.099-3.805l1.861-1.183l3.203-23.459l-8.51,5.144c-0.881,0.533-1.914,0.986-2.925,1.294l1.976-14.956
		L281.983,81.497z M82.925,118.771l0.561-4.229c0.439,0.562,0.909,1.09,1.413,1.575L82.925,118.771z M116.536,106.818l2.718-4.17
		l2.54-0.33l-1.153,8.676C119.525,109.309,118.106,107.94,116.536,106.818 M152.016,101.059c-3.056,3.13-4.91,7.033-5.451,11.32
		l-1.066,0.644c-0.881,0.533-1.915,0.985-2.926,1.294l1.976-14.957l10.767-1.4l0.539-4.009l1.114,3.285
		C155.112,98.31,153.451,99.589,152.016,101.059"/>
	<polygon clip-path="url(#SVGID_2_)" fill="#006838" points="19.104,85.305 32.276,83.593 23.979,145.551 10.807,147.263 	"/>
	<path clip-path="url(#SVGID_2_)" fill="#006838" d="M39.916,96.864l13-1.69l-0.661,4.957c2.873-3.331,6.623-6.602,11.754-7.268
		c8.21-1.068,14.169,3.289,15.247,11.585c0.334,2.566-0.013,5.916-0.406,8.924l-3.383,25.487l-13.001,1.689l3.489-26.022
		c0.176-1.328,0.209-3.072,0.065-4.184c-0.478-3.678-3.043-5.344-7.063-4.821c-5.131,0.667-7.989,4.777-8.731,10.439l-3.582,26.646
		l-13,1.688L39.916,96.864z"/>
	<path clip-path="url(#SVGID_2_)" fill="#006838" d="M79.825,130.9l6.515-8.761c5.412,4.166,10.722,4.868,14.827,4.335
		c3.421-0.445,5.284-2.165,4.951-4.73c-0.222-1.711-2.516-2.631-5.858-3.589c-7.585-2.145-14.132-4.337-15.088-11.691
		c-1.189-9.153,4.924-16.992,16.299-18.471c7.44-0.967,14.705,1.394,18.902,4.24l-5.946,9.123
		c-4.904-2.928-8.845-3.808-12.608-3.319c-3.164,0.411-4.857,2.11-4.546,4.504c0.234,1.797,2.624,2.791,6.695,4.001
		c6.332,1.873,13.329,4.182,14.262,11.367c1.301,10.007-5.767,17.188-16.714,18.61C94.586,137.419,85.946,135.846,79.825,130.9"/>
	<path clip-path="url(#SVGID_2_)" fill="#006838" d="M124.35,124.158c-0.245-1.882-0.136-3.723,0.11-5.842l2.858-21.506
		l-5.474,0.712l1.549-11.508l5.473-0.711l1.642-12.129l13-1.689l-1.642,12.128l10.777-1.4l-1.549,11.506l-10.777,1.401
		l-2.629,19.911c-0.083,0.706-0.143,1.584-0.076,2.097c0.222,1.711,1.467,2.592,3.862,2.281c2.053-0.268,4.467-1.103,6.482-2.321
		l-1.559,11.423c-2.41,1.531-5.657,2.648-9.163,3.104C129.365,132.638,125.006,129.204,124.35,124.158"/>
	<path clip-path="url(#SVGID_2_)" fill="#006838" d="M151.296,117.35c-1.379-10.605,6.492-17.63,17.611-19.075
		c4.961-0.645,9.177-0.323,13.181,0.375l0.094-0.621c0.123-1.06,0.246-2.12,0.068-3.488c-0.411-3.165-2.924-5.099-9.338-4.266
		c-4.448,0.579-8.751,2.268-11.908,4.07l-3.387-9.997c4.448-2.577,10.098-4.616,16.598-5.461c12.315-1.601,19.226,2.719,20.395,11.7
		c0.311,2.394,0.172,4.674-0.128,7.061l-3.466,26.193l-12.573,1.635l0.68-5.479c-3.167,4.412-7.496,7.234-12.884,7.936
		C158.285,128.965,152.23,124.535,151.296,117.35 M180.988,107.577l0.186-1.242c-2.335-0.566-5.6-0.924-8.763-0.513
		c-5.389,0.7-8.968,3.948-8.389,8.396c0.366,2.822,2.943,4.575,6.62,4.097C176.03,117.613,180.178,112.727,180.988,107.577"/>
	<path clip-path="url(#SVGID_2_)" fill="#006838" d="M204.474,75.476l13-1.69l-0.66,4.957c2.872-3.331,6.622-6.601,11.753-7.268
		c8.211-1.068,14.169,3.289,15.247,11.585c0.334,2.566-0.013,5.916-0.406,8.924l-3.383,25.488l-13,1.688l3.489-26.021
		c0.175-1.328,0.209-3.072,0.064-4.184c-0.479-3.678-3.043-5.344-7.063-4.821c-5.131,0.667-7.989,4.777-8.731,10.439l-3.581,26.646
		l-13,1.688L204.474,75.476z"/>
	<path clip-path="url(#SVGID_2_)" fill="#006838" d="M251.018,107.694c-0.245-1.882-0.137-3.722,0.11-5.842l2.857-21.506
		l-5.475,0.712l1.55-11.507l5.474-0.712l1.641-12.128l13-1.69l-1.641,12.128l10.776-1.4l-1.55,11.507l-10.775,1.401l-2.63,19.91
		c-0.082,0.706-0.143,1.584-0.075,2.097c0.222,1.711,1.467,2.593,3.862,2.282c2.052-0.267,4.466-1.103,6.481-2.322l-1.559,11.423
		c-2.41,1.531-5.658,2.649-9.164,3.104C256.033,116.174,251.673,112.74,251.018,107.694"/>
	<path clip-path="url(#SVGID_2_)" fill="#D1D3D4" d="M369.472,134.257l10.363-15.898l-3.854-2.615
		c-5.902-4.003-14.566-6.004-22.177-5.018c-9.842,1.28-16.949,6.76-19.523,14.33c-3.985-5.747-10.519-9.14-18.49-9.14
		c-1.268,0-2.578,0.087-3.896,0.258c-11.274,1.465-19.607,8.437-24.126,17.09c-2.43-7.274-8.39-11.641-16.347-11.641
		c-0.967,0-1.968,0.066-2.978,0.197c-5.685,0.74-10.7,3.301-14.766,7.495c-3.626-3.106-8.463-4.478-13.799-3.782
		c-2.039,0.265-3.857,0.824-5.495,1.584l-21.871,2.844l-1.92,14.524c-2.623-7.646-9.457-11.952-19.352-11.952
		c-1.691,0-3.498,0.123-5.374,0.367c-6.668,0.867-13.018,2.964-18.364,6.063l-3.028,1.756l3.817-4.383l-3.114-3.132
		c-4.062-4.083-11.43-8.951-23.462-8.951c-2.034,0-4.16,0.143-6.319,0.423c-23.203,3.017-39.711,23.693-36.799,46.094
		c2.568,19.758,18.701,26.768,31.736,26.768c1.695,0,3.41-0.11,5.097-0.33c8.85-1.15,16.23-4.13,23.225-9.378l1.56-1.172
		l0.573-3.857c2.09,3.901,5.622,6.719,10.025,7.988c16.799-9.272,37.37-15.964,58.517-18.876l2.42-18.002
		c0.768-5.85,3.457-6.199,4.47-6.331c0.62-0.08,1.139-0.042,1.307,0c0.049,0.109,0.129,0.343,0.184,0.76
		c0.078,0.603,0.071,1.932-0.063,2.944l-2.674,19.948c5.844-0.614,11.708-0.945,17.528-0.945c1.648,0,3.298,0.034,4.936,0.087
		l0.001-0.005l-6.873-6.911l7.574,1.693l2.007-14.932c0.769-5.85,3.455-6.198,4.469-6.33c0.624-0.081,1.141-0.041,1.308-0.001
		c0.049,0.11,0.129,0.344,0.184,0.761c0.078,0.601,0.07,1.93-0.064,2.944l-2.514,18.763l9.598,2.146l10.629-20.437l2.475,15.55
		l0.356-2.686c2.329,5.02,6.077,8.807,10.884,11.068l12.277,1.489l-1.717,0.881c0.243,0.005,0.48,0.021,0.726,0.021
		c1.48,0,3.021-0.103,4.577-0.305c1.804-0.234,3.527-0.602,5.189-1.066l-9.901-14.386l16.093,6.801l10.405-13.423l-0.291,13.248
		c4.681,2.371,10.197,3.682,15.831,3.682c1.497,0,2.981-0.095,4.412-0.28c13.848-1.8,22.404-11.639,20.808-23.927
		C375.239,139.811,372.658,136.534,369.472,134.257 M140.407,172.032l-0.246,1.602c-1.663,0.832-3.811,1.623-6.664,1.994
		c-0.681,0.089-1.358,0.133-2.011,0.133c-2.633,0-8.862-0.82-9.85-8.419c-1.342-10.328,5.623-19.778,15.525-21.065
		c0.901-0.117,1.783-0.176,2.619-0.176c3.721,0,6.792,1.112,9.883,3.596l-19.476,2.531l-2.925,21.515L140.407,172.032z
		 M164.286,159.781c-0.035,0.037-0.067,0.075-0.101,0.111l1.826-12.322l-8.462,1.101l6.641-7.624l5.052,14.912
		C167.384,157.031,165.722,158.312,164.286,159.781 M329.77,154.423l-1.907-1.97l3.733-0.485L329.77,154.423z"/>
	<path clip-path="url(#SVGID_2_)" fill="#FFFFFF" d="M366.893,129.941l10.363-15.896l-3.86-2.619
		c-5.904-4.004-14.571-6.006-22.181-5.019c-9.839,1.279-16.947,6.756-19.524,14.322c-3.987-5.743-10.521-9.133-18.489-9.133
		c-1.268,0-2.578,0.087-3.896,0.258c-11.271,1.465-19.602,8.432-24.124,17.081c-2.433-7.269-8.393-11.632-16.346-11.632
		c-0.969,0-1.971,0.066-2.979,0.198c-5.685,0.738-10.7,3.299-14.766,7.492c-3.625-3.105-8.459-4.475-13.8-3.779
		c-2.04,0.265-3.859,0.825-5.497,1.584l-21.873,2.843l-1.918,14.505c-2.63-7.633-9.462-11.932-19.349-11.932
		c-1.69,0-3.498,0.124-5.374,0.368c-6.668,0.866-13.02,2.963-18.367,6.062l-2.998,1.738l3.797-4.359l-3.117-3.136
		c-4.062-4.084-11.429-8.953-23.465-8.953c-2.034,0-4.161,0.143-6.321,0.424c-23.205,3.016-39.716,23.696-36.805,46.101
		c2.569,19.761,18.705,26.772,31.743,26.772c1.696,0,3.411-0.111,5.099-0.331c8.848-1.149,16.229-4.13,23.227-9.379l1.562-1.172
		l0.57-3.845c2.898,5.396,8.545,8.732,15.455,8.732c0.94,0,1.905-0.064,2.869-0.189c0.902-0.116,1.781-0.295,2.646-0.51
		c14.14-6.637,30.303-11.549,46.931-14.147l3.065-22.794c0.766-5.845,3.452-6.193,4.463-6.325c0.616-0.079,1.132-0.041,1.301-0.001
		c0.048,0.11,0.128,0.344,0.182,0.759c0.078,0.601,0.071,1.929-0.063,2.94l-3.301,24.628c6.904-0.855,13.857-1.312,20.749-1.312
		c0.595,0,1.187,0.023,1.782,0.031l0.369-2.75l-4.088-4.11l4.505,1.007l2.495-18.558c0.766-5.845,3.451-6.193,4.463-6.325
		c0.617-0.079,1.134-0.04,1.302-0.001c0.048,0.111,0.128,0.344,0.183,0.759c0.077,0.599,0.07,1.927-0.063,2.94l-3.003,22.388
		l12.679,2.835l10.629-20.437l1.82,11.438c4.282,6.704,11.517,10.58,20.591,10.58c1.481,0,3.022-0.103,4.579-0.305
		c1.688-0.22,3.304-0.563,4.869-0.985l-6.993-10.16l15.48,6.541c0.592-0.366,1.16-0.77,1.727-1.177l9.29-11.986l-0.222,10.129
		c4.054,1.61,8.571,2.494,13.172,2.494c1.499,0,2.984-0.095,4.415-0.281c6.573-0.854,12.048-3.474,15.831-7.576
		c4.018-4.357,5.787-10.166,4.981-16.356C372.657,135.495,370.078,132.219,366.893,129.941 M137.812,167.728l-0.243,1.585
		c-1.634,0.813-3.816,1.626-6.66,1.996c-0.681,0.088-1.357,0.133-2.012,0.133c-2.63,0-8.854-0.819-9.842-8.413
		c-0.63-4.848,0.654-9.894,3.523-13.845c2.923-4.025,7.184-6.588,11.998-7.214c0.9-0.116,1.781-0.176,2.618-0.176
		c3.715,0,6.781,1.109,9.867,3.586l-19.466,2.529l-2.928,21.526L137.812,167.728z M161.62,155.474l1.811-12.222l-8.455,1.099
		l6.625-7.606l5.035,14.869C164.726,152.706,163.047,154.002,161.62,155.474 M179.708,168.01c-0.197,0.026-0.386,0.038-0.562,0.038
		h-0.001c-0.396,0-0.629-0.063-0.743-0.106c-0.065-0.62,0.102-1.063,0.568-1.518c0.755-0.734,2.115-1.276,3.729-1.485
		c0.577-0.075,1.186-0.12,1.815-0.134C183.382,166.449,181.698,167.752,179.708,168.01 M327.18,150.101l-1.895-1.955l3.706-0.481
		L327.18,150.101z"/>
	<path clip-path="url(#SVGID_2_)" fill="#6BAE44" d="M312.74,164.615l-4.118-5.983l9.807,4.146c3.545-1.574,6.355-3.717,8.535-6.073
		l-7.032-7.26c-3.418,3.14-6.279,4.555-9.7,4.999c-6.842,0.89-10.559-2.279-11.687-7.612l31.474-4.091
		c0.998-3.695,1.375-7.484,0.953-10.736c-1.323-10.176-9.165-16.984-21.054-15.439c-16.421,2.135-25.363,17.647-23.641,30.904
		c1.646,12.658,10.687,19.311,23.857,17.599C311.038,164.95,311.9,164.794,312.74,164.615 M310.248,127.132
		c5.303-0.688,7.916,2.017,8.404,5.779c0.146,1.111,0.107,2.161-0.039,3.049l-19.928,2.591
		C300.068,132.457,304.348,127.899,310.248,127.132"/>
	<path clip-path="url(#SVGID_2_)" fill="#6BAE44" d="M354.325,129.666c-4.071-1.21-6.461-2.203-6.695-4
		c-0.311-2.396,1.382-4.094,4.545-4.505c3.765-0.489,7.706,0.391,12.608,3.318l5.946-9.122c-4.196-2.847-11.461-5.207-18.902-4.24
		c-11.374,1.478-17.487,9.316-16.298,18.469c0.956,7.354,7.503,9.548,15.088,11.694c3.342,0.957,5.635,1.877,5.857,3.587
		c0.334,2.565-1.529,4.286-4.951,4.73c-4.105,0.533-9.415-0.168-14.826-4.335l-6.515,8.762c0.693,0.561,1.424,1.071,2.177,1.548
		l2.761-3.563l-0.11,5.021c5.377,2.552,11.611,3.295,16.862,2.611c10.948-1.423,18.017-8.604,16.715-18.61
		C367.653,133.848,360.657,131.539,354.325,129.666"/>
	<path clip-path="url(#SVGID_2_)" fill="#6BAE44" d="M100.715,165.847c-2.423-18.645,11.154-37.978,32.707-40.778
		c12.658-1.646,20.903,2.24,25.805,7.169l-8.627,9.905c-4.007-3.393-9.111-5.86-16.637-4.883
		c-12.83,1.668-21.242,13.894-19.619,26.381c1.212,9.322,8.71,13.479,17.176,12.378c4.619-0.601,7.896-2.155,10.392-3.698
		l1.555-10.117l-13.257,1.723l1.6-11.774l26.001-3.379l-4.588,30.948c-5.468,4.104-12.009,7.303-20.99,8.47
		C118.549,189.969,103.04,183.723,100.715,165.847"/>
	<path clip-path="url(#SVGID_2_)" fill="#6BAE44" d="M160.974,171.756c-1.378-10.605,6.493-17.629,17.611-19.075
		c4.961-0.644,9.178-0.322,13.182,0.376l0.093-0.622c0.124-1.06,0.247-2.119,0.069-3.487c-0.411-3.164-2.925-5.1-9.339-4.266
		c-4.447,0.578-8.751,2.268-11.908,4.07l-3.386-9.998c4.448-2.577,10.097-4.616,16.597-5.46c12.316-1.602,19.227,2.719,20.395,11.7
		c0.311,2.394,0.173,4.673-0.126,7.06l-3.467,26.195l-12.572,1.634l0.68-5.481c-3.167,4.412-7.497,7.236-12.885,7.937
		C167.964,183.372,161.908,178.94,160.974,171.756 M190.666,161.982l0.186-1.242c-2.335-0.565-5.599-0.924-8.763-0.513
		c-5.389,0.7-8.967,3.949-8.389,8.396c0.367,2.821,2.943,4.574,6.62,4.097C185.709,172.021,189.855,167.133,190.666,161.982"/>
	<path clip-path="url(#SVGID_2_)" fill="#6BAE44" d="M221.202,173.22l3.26-24.24c0.741-5.662,3.429-9.751,8.56-10.418
		c4.021-0.522,6.328,1.178,6.807,4.855c0.145,1.111,0.11,2.855-0.064,4.185l-3.146,23.455c4.292-0.411,8.592-0.653,12.873-0.733
		l3.365-25.034c0.742-5.663,3.429-9.751,8.561-10.418c4.02-0.521,6.327,1.178,6.807,4.855c0.144,1.112,0.11,2.855-0.066,4.184
		l-3.056,22.797l8.025,1.795l6.054-11.641l1.873-14.105c0.393-3.009,0.74-6.359,0.406-8.926c-1.079-8.296-6.78-12.686-14.991-11.617
		c-6.928,0.899-11.957,5.032-15.342,10.43c-2.452-4.813-6.981-7.529-13.225-6.717c-5.132,0.667-8.539,3.893-11.412,7.224
		l0.661-4.957l-13,1.69l-6.12,46.283C212.357,175.029,216.757,174.04,221.202,173.22"/>
	<polygon clip-path="url(#SVGID_2_)" fill="#FFCF01" points="288.199,197.437 277.857,186.014 263.551,193.305 271.462,180.247 
		259.863,168.585 274.711,171.906 282.234,157.439 284.782,173.456 299.746,175.271 286.273,182.179 	"/>
	<polygon clip-path="url(#SVGID_2_)" fill="#FFCF01" points="215.628,199.864 211.979,197.685 208.794,200.759 209.829,196.678 
		205.831,194.536 210.015,194.216 210.834,189.795 212.796,193.814 216.889,193.088 213.891,195.995 	"/>
	<path clip-path="url(#SVGID_2_)" fill="#FFCF01" d="M266.63,206.798c-24.217-4.346-49.025-0.729-59.091,4.595
		c16.813-4.952,39.258-4.862,65.072,2.828L266.63,206.798z"/>
	<polygon clip-path="url(#SVGID_2_)" fill="#FFCF01" points="297.344,238.83 288.246,226.393 273.258,232.153 282.486,219.991 
		272.164,207.185 286.585,212.032 295.573,198.429 296.441,214.624 311.135,217.986 297.017,223.453 	"/>
	<polygon clip-path="url(#SVGID_2_)" fill="#FFCF01" points="331.14,186.382 326.024,178.149 316.352,181.052 322.717,173.861 
		316.852,165.341 325.665,169.065 331.948,160.961 331.723,171.157 340.779,173.965 331.665,176.724 	"/>
	<polygon clip-path="url(#SVGID_2_)" fill="#FFCF01" points="249.515,198.521 245.32,194.806 240.441,198.011 242.779,192.977 
		238.122,189.225 243.62,189.832 245.762,184.304 247.322,189.99 252.802,190.05 248.209,193.084 	"/>
	<path clip-path="url(#SVGID_2_)" fill="#FFCF01" d="M146.667,212.953c29.094-25.366,73.593-36.805,118.898-30.823l0.771-1.27
		l-7.424-7.465C215.04,171.554,168.209,188.985,146.667,212.953"/>
	<path clip-path="url(#SVGID_2_)" fill="#FFCF01" d="M335.988,205.682c0.989-0.313,1.989-0.588,2.989-0.866
		c3.981-1.546,8.075-2.793,12.242-3.736c-16.316-9.761-33.486-16.879-51.013-21.475l-9.542,4.893l0.346,2.737
		C306.401,191.405,321.509,197.522,335.988,205.682"/>
</g>
</svg>
