<?xml version="1.0" encoding="utf-8"?>
<!-- Generator: Adobe Illustrator 16.0.0, SVG Export Plug-In . SVG Version: 6.00 Build 0)  -->
<!DOCTYPE svg PUBLIC "-//W3C//DTD SVG 1.1//EN" "http://www.w3.org/Graphics/SVG/1.1/DTD/svg11.dtd">
<svg version="1.1" id="Layer_1" xmlns="http://www.w3.org/2000/svg" xmlns:xlink="http://www.w3.org/1999/xlink" x="0px" y="0px"
	 width="612px" height="347px" viewBox="0 222.5 612 347" enable-background="new 0 222.5 612 347" xml:space="preserve">
<polygon fill="#231F20" points="595.799,533.639 593.934,533.639 593.934,526.063 591.146,526.063 591.146,524.442 598.583,524.442 
	598.583,526.063 595.799,526.063 "/>
<polygon fill="#231F20" points="608.553,533.639 606.79,533.639 606.79,525.967 606.769,525.967 605.074,533.639 603.171,533.639 
	601.506,525.967 601.483,525.967 601.483,533.639 599.655,533.639 599.655,524.442 602.46,524.442 604.113,531.681 604.135,531.681 
	605.838,524.442 608.553,524.442 "/>
<g>
	<g>
		<defs>
			<rect id="SVGID_1_" x="-22.699" y="191.741" width="669.976" height="407"/>
		</defs>
		<clipPath id="SVGID_2_">
			<use xlink:href="#SVGID_1_"  overflow="visible"/>
		</clipPath>
		<path clip-path="url(#SVGID_2_)" fill="#953D96" d="M392.613,258.919h183.568l-4.001,59.642h-101.39l-5.202,41.779
			c8.008-1.618,16.408-2.83,27.617-2.83c61.366,0,104.991,40.166,104.991,96.163c0,45.825-31.219,104.255-121.804,104.255
			c-34.885,0-64.509-9.704-83.381-24.329c-20.01-15.434-28.012-34.504-34.483-49.867l40.088-20.757
			c6.404,10.981,19.68,34.099,52.896,34.099c29.685,0,48.094-20.688,48.094-43.399c0-23.112-19.61-42.99-48.094-42.99
			c-23.612,0-35.219,10.511-44.094,18.664l-34.417-18.263L392.613,258.919z"/>
	</g>
	<g>
		<defs>
			<rect id="SVGID_3_" x="-22.699" y="191.741" width="669.976" height="407"/>
		</defs>
		<clipPath id="SVGID_4_">
			<use xlink:href="#SVGID_3_"  overflow="visible"/>
		</clipPath>
		<path clip-path="url(#SVGID_4_)" fill="none" stroke="#953D96" stroke-width="19.675" d="M392.613,258.919h183.568l-4.001,59.642
			h-101.39l-5.202,41.779c8.008-1.618,16.408-2.83,27.617-2.83c61.366,0,104.991,40.166,104.991,96.163
			c0,45.825-31.219,104.255-121.804,104.255c-34.885,0-64.509-9.704-83.381-24.329c-20.01-15.434-28.012-34.504-34.483-49.867
			l40.088-20.757c6.404,10.981,19.68,34.099,52.896,34.099c29.685,0,48.094-20.688,48.094-43.399c0-23.112-19.61-42.99-48.094-42.99
			c-23.612,0-35.219,10.511-44.094,18.664l-34.417-18.263L392.613,258.919z"/>
	</g>
	<g>
		<defs>
			<rect id="SVGID_5_" x="-22.699" y="191.741" width="669.976" height="407"/>
		</defs>
		<clipPath id="SVGID_6_">
			<use xlink:href="#SVGID_5_"  overflow="visible"/>
		</clipPath>
		<path clip-path="url(#SVGID_6_)" fill="#FFF100" d="M392.613,258.919h183.568l-4.001,59.642h-101.39l-5.202,41.779
			c8.008-1.618,16.408-2.83,27.617-2.83c61.366,0,104.991,40.166,104.991,96.163c0,45.825-31.219,104.255-121.804,104.255
			c-34.885,0-64.509-9.704-83.381-24.329c-20.01-15.434-28.012-34.504-34.483-49.867l40.088-20.757
			c6.404,10.981,19.68,34.099,52.896,34.099c29.685,0,48.094-20.688,48.094-43.399c0-23.112-19.61-42.99-48.094-42.99
			c-23.612,0-35.219,10.511-44.094,18.664l-34.417-18.263L392.613,258.919z"/>
	</g>
	<g>
		<defs>
			<rect id="SVGID_7_" x="-22.699" y="191.741" width="669.976" height="407"/>
		</defs>
		<clipPath id="SVGID_8_">
			<use xlink:href="#SVGID_7_"  overflow="visible"/>
		</clipPath>
		<path clip-path="url(#SVGID_8_)" fill="none" stroke="#FFF100" stroke-width="7.81" d="M392.613,258.919h183.568l-4.001,59.642
			h-101.39l-5.202,41.779c8.008-1.618,16.408-2.83,27.617-2.83c61.366,0,104.991,40.166,104.991,96.163
			c0,45.825-31.219,104.255-121.804,104.255c-34.885,0-64.509-9.704-83.381-24.329c-20.01-15.434-28.012-34.504-34.483-49.867
			l40.088-20.757c6.404,10.981,19.68,34.099,52.896,34.099c29.685,0,48.094-20.688,48.094-43.399c0-23.112-19.61-42.99-48.094-42.99
			c-23.612,0-35.219,10.511-44.094,18.664l-34.417-18.263L392.613,258.919z"/>
	</g>
	<g>
		<defs>
			<rect id="SVGID_9_" x="-22.699" y="191.741" width="669.976" height="407"/>
		</defs>
		<clipPath id="SVGID_10_">
			<use xlink:href="#SVGID_9_"  overflow="visible"/>
		</clipPath>
		<path clip-path="url(#SVGID_10_)" fill="#953D96" d="M392.613,258.919h183.568l-4.001,59.642h-101.39l-5.202,41.779
			c8.008-1.618,16.408-2.83,27.617-2.83c61.366,0,104.991,40.166,104.991,96.163c0,45.825-31.219,104.255-121.804,104.255
			c-34.885,0-64.509-9.704-83.381-24.329c-20.01-15.434-28.012-34.504-34.483-49.867l40.088-20.757
			c6.404,10.981,19.68,34.099,52.896,34.099c29.685,0,48.094-20.688,48.094-43.399c0-23.112-19.61-42.99-48.094-42.99
			c-23.612,0-35.219,10.511-44.094,18.664l-34.417-18.263L392.613,258.919z"/>
	</g>
	<g>
		<defs>
			<rect id="SVGID_11_" x="-22.699" y="191.741" width="669.976" height="407"/>
		</defs>
		<clipPath id="SVGID_12_">
			<use xlink:href="#SVGID_11_"  overflow="visible"/>
		</clipPath>
		<path clip-path="url(#SVGID_12_)" fill="#953D96" d="M46.161,234.994h28.454v55.5c0,6.856-0.43,14.289-6.207,20.708
			c-5.901,6.456-14.504,8.853-23.356,8.853c-3.04,0-9.461-0.125-15.577-3.29c-7.744-4.024-11.464-10.478-13.215-13.611l10.264-7.224
			c1.538,2.398,4.705,7.315,10.695,7.315c1.842,0,4.024-0.429,6.117-2.396c2.272-2.274,2.826-5.008,2.826-10.694L46.161,234.994
			L46.161,234.994z"/>
	</g>
	<g>
		<defs>
			<rect id="SVGID_13_" x="-22.699" y="191.741" width="669.976" height="407"/>
		</defs>
		<clipPath id="SVGID_14_">
			<use xlink:href="#SVGID_13_"  overflow="visible"/>
		</clipPath>
		<path clip-path="url(#SVGID_14_)" fill="none" stroke="#953D96" stroke-width="19.675" d="M46.161,234.994h28.454v55.5
			c0,6.856-0.43,14.289-6.207,20.708c-5.901,6.456-14.504,8.853-23.356,8.853c-3.04,0-9.461-0.125-15.577-3.29
			c-7.744-4.024-11.464-10.478-13.215-13.611l10.264-7.224c1.538,2.398,4.705,7.315,10.695,7.315c1.842,0,4.024-0.429,6.117-2.396
			c2.272-2.274,2.826-5.008,2.826-10.694L46.161,234.994L46.161,234.994z"/>
	</g>
	<g>
		<defs>
			<rect id="SVGID_15_" x="-22.699" y="191.741" width="669.976" height="407"/>
		</defs>
		<clipPath id="SVGID_16_">
			<use xlink:href="#SVGID_15_"  overflow="visible"/>
		</clipPath>
		<path clip-path="url(#SVGID_16_)" fill="#953D96" d="M140.448,303.46c-2.916,4.148-11.125,15.489-29.438,15.489
			c-21.141,0-33.892-13.397-33.892-32.049c0-18.87,12.966-32.388,32.604-32.388c8.172,0,14.378,2.271,18.617,5.007
			c14.414,8.941,14.414,24.984,14.414,32.727h-40.687c0.554,3.471,1.323,7.279,5.687,10.356c3.165,2.271,6.42,3.04,10.141,3.04
			c8.173,0,13.091-4.918,16.008-7.834L140.448,303.46z M118.753,279.925c-0.215-3.721-0.645-12.019-8.603-12.019
			c-7.313,0-8.388,7.869-8.942,12.019H118.753z"/>
	</g>
	<g>
		<defs>
			<rect id="SVGID_17_" x="-22.699" y="191.741" width="669.976" height="407"/>
		</defs>
		<clipPath id="SVGID_18_">
			<use xlink:href="#SVGID_17_"  overflow="visible"/>
		</clipPath>
		<path clip-path="url(#SVGID_18_)" fill="none" stroke="#953D96" stroke-width="19.675" d="M140.448,303.46
			c-2.916,4.148-11.125,15.489-29.438,15.489c-21.141,0-33.892-13.397-33.892-32.049c0-18.87,12.966-32.388,32.604-32.388
			c8.172,0,14.378,2.271,18.617,5.007c14.414,8.941,14.414,24.984,14.414,32.727h-40.687c0.554,3.471,1.323,7.279,5.687,10.356
			c3.165,2.271,6.42,3.04,10.141,3.04c8.173,0,13.091-4.918,16.008-7.834L140.448,303.46z M118.753,279.925
			c-0.215-3.721-0.645-12.019-8.603-12.019c-7.313,0-8.388,7.869-8.942,12.019H118.753z"/>
	</g>
	<g>
		<defs>
			<rect id="SVGID_19_" x="-22.699" y="191.741" width="669.976" height="407"/>
		</defs>
		<clipPath id="SVGID_20_">
			<use xlink:href="#SVGID_19_"  overflow="visible"/>
		</clipPath>
		<path clip-path="url(#SVGID_20_)" fill="#953D96" d="M169.457,267.142c3.596-7.409,8.944-11.557,17.24-11.557
			c1.539,0,2.612,0.125,3.935,0.339v21.048c-3.595-2.18-6.546-4.023-11.553-4.023c-5.347,0-7.746,1.843-9.623,3.38v40.867h-24.859
			v-59.735h24.859L169.457,267.142L169.457,267.142z"/>
	</g>
	<g>
		<defs>
			<rect id="SVGID_21_" x="-22.699" y="191.741" width="669.976" height="407"/>
		</defs>
		<clipPath id="SVGID_22_">
			<use xlink:href="#SVGID_21_"  overflow="visible"/>
		</clipPath>
		<path clip-path="url(#SVGID_22_)" fill="none" stroke="#953D96" stroke-width="19.675" d="M169.457,267.142
			c3.596-7.409,8.944-11.557,17.24-11.557c1.539,0,2.612,0.125,3.935,0.339v21.048c-3.595-2.18-6.546-4.023-11.553-4.023
			c-5.347,0-7.746,1.843-9.623,3.38v40.867h-24.859v-59.735h24.859L169.457,267.142L169.457,267.142z"/>
	</g>
	<g>
		<defs>
			<rect id="SVGID_23_" x="-22.699" y="191.741" width="669.976" height="407"/>
		</defs>
		<clipPath id="SVGID_24_">
			<use xlink:href="#SVGID_23_"  overflow="visible"/>
		</clipPath>
		<path clip-path="url(#SVGID_24_)" fill="#953D96" d="M192.118,299.525c2.305,2.738,6.668,7.96,15.271,7.96
			c5.349,0,8.852-2.701,8.852-6.082c0-4.364-4.918-5.686-7.224-6.456c-3.378-0.983-6.759-1.717-9.925-2.917
			c-2.825-1.107-12.072-4.702-12.072-16.685c0-11.804,9.461-20.959,26.915-20.959c18.1,0,22.679,9.927,24.555,14.074l-7.53,4.364
			c-2.52-3.165-5.471-6.759-12.23-6.759c-5.133,0-7.745,3.04-7.745,5.9c0,4.025,4.578,5.099,7.745,5.868
			c7.098,1.645,22.032,5.132,22.032,20.406c0,9.924-7.959,21.139-29.008,21.139c-16.562,0-22.124-6.33-27.81-14.72L192.118,299.525z
			"/>
	</g>
	<g>
		<defs>
			<rect id="SVGID_25_" x="-22.699" y="191.741" width="669.976" height="407"/>
		</defs>
		<clipPath id="SVGID_26_">
			<use xlink:href="#SVGID_25_"  overflow="visible"/>
		</clipPath>
		<path clip-path="url(#SVGID_26_)" fill="none" stroke="#953D96" stroke-width="19.675" d="M192.118,299.525
			c2.305,2.738,6.668,7.96,15.271,7.96c5.349,0,8.852-2.701,8.852-6.082c0-4.364-4.918-5.686-7.224-6.456
			c-3.378-0.983-6.759-1.717-9.925-2.917c-2.825-1.107-12.072-4.702-12.072-16.685c0-11.804,9.461-20.959,26.915-20.959
			c18.1,0,22.679,9.927,24.555,14.074l-7.53,4.364c-2.52-3.165-5.471-6.759-12.23-6.759c-5.133,0-7.745,3.04-7.745,5.9
			c0,4.025,4.578,5.099,7.745,5.868c7.098,1.645,22.032,5.132,22.032,20.406c0,9.924-7.959,21.139-29.008,21.139
			c-16.562,0-22.124-6.33-27.81-14.72L192.118,299.525z"/>
	</g>
	<g>
		<defs>
			<rect id="SVGID_27_" x="-22.699" y="191.741" width="669.976" height="407"/>
		</defs>
		<clipPath id="SVGID_28_">
			<use xlink:href="#SVGID_27_"  overflow="visible"/>
		</clipPath>
		<path clip-path="url(#SVGID_28_)" fill="#953D96" d="M305.767,303.46c-2.981,4.148-11.156,15.489-29.47,15.489
			c-21.174,0-33.926-13.397-33.926-32.049c0-18.87,13.002-32.388,32.604-32.388c8.173,0,14.414,2.271,18.652,5.007
			c14.378,8.941,14.378,24.984,14.378,32.727h-40.65c0.553,3.471,1.289,7.279,5.652,10.356c3.165,2.271,6.455,3.04,10.14,3.04
			c8.208,0,13.09-4.918,16.042-7.834L305.767,303.46z M284.042,279.925c-0.215-3.721-0.648-12.019-8.638-12.019
			c-7.278,0-8.386,7.869-8.924,12.019H284.042z"/>
	</g>
	<g>
		<defs>
			<rect id="SVGID_29_" x="-22.699" y="191.741" width="669.976" height="407"/>
		</defs>
		<clipPath id="SVGID_30_">
			<use xlink:href="#SVGID_29_"  overflow="visible"/>
		</clipPath>
		<path clip-path="url(#SVGID_30_)" fill="none" stroke="#953D96" stroke-width="19.675" d="M305.767,303.46
			c-2.981,4.148-11.156,15.489-29.47,15.489c-21.174,0-33.926-13.397-33.926-32.049c0-18.87,13.002-32.388,32.604-32.388
			c8.173,0,14.414,2.271,18.652,5.007c14.378,8.941,14.378,24.984,14.378,32.727h-40.65c0.553,3.471,1.289,7.279,5.652,10.356
			c3.165,2.271,6.455,3.04,10.14,3.04c8.208,0,13.09-4.918,16.042-7.834L305.767,303.46z M284.042,279.925
			c-0.215-3.721-0.648-12.019-8.638-12.019c-7.278,0-8.386,7.869-8.924,12.019H284.042z"/>
	</g>
	<g>
		<defs>
			<rect id="SVGID_31_" x="-22.699" y="191.741" width="669.976" height="407"/>
		</defs>
		<clipPath id="SVGID_32_">
			<use xlink:href="#SVGID_31_"  overflow="visible"/>
		</clipPath>
		<path clip-path="url(#SVGID_32_)" fill="#953D96" d="M302.019,257.461h26.432c3.344,10.91,7.188,22.893,9.155,32.908
			c2.826-10.23,3.596-12.411,10.783-32.908h19.943l-23.198,54.389c-3.165,7.099-7.35,16.469-16.074,22.031
			c-8.73,5.562-19.265,5.562-26.489,5.473v-9.373c12.446-0.892,16.811-8.421,22.125-17.883L302.019,257.461z"/>
	</g>
	<g>
		<defs>
			<rect id="SVGID_33_" x="-22.699" y="191.741" width="669.976" height="407"/>
		</defs>
		<clipPath id="SVGID_34_">
			<use xlink:href="#SVGID_33_"  overflow="visible"/>
		</clipPath>
		<path clip-path="url(#SVGID_34_)" fill="none" stroke="#953D96" stroke-width="19.675" d="M302.019,257.461h26.432
			c3.344,10.91,7.188,22.893,9.155,32.908c2.826-10.23,3.596-12.411,10.783-32.908h19.943l-23.198,54.389
			c-3.165,7.099-7.35,16.469-16.074,22.031c-8.73,5.562-19.265,5.562-26.489,5.473v-9.373c12.446-0.892,16.811-8.421,22.125-17.883
			L302.019,257.461z"/>
	</g>
	<g>
		<defs>
			<rect id="SVGID_35_" x="-22.699" y="191.741" width="669.976" height="407"/>
		</defs>
		<clipPath id="SVGID_36_">
			<use xlink:href="#SVGID_35_"  overflow="visible"/>
		</clipPath>
		<path clip-path="url(#SVGID_36_)" fill="#953D96" d="M151.378,395.783c-3.595,4.701-13.306,17.271-36.626,17.271
			c-27.257,0-40.776-19.853-40.776-39.393c0-18.319,13.092-41.639,43.387-41.639c19.852,0,28.455,10.353,33.71,16.56l-10.575,8.173
			c-3.159-3.9-7.434-8.941-16.465-8.941c-15.273,0-20.96,13.214-20.96,24.215c0,14.932,9.283,23.477,20.406,23.477
			c9.711,0,16.131-6.237,18.743-8.635L151.378,395.783z"/>
	</g>
	<g>
		<defs>
			<rect id="SVGID_37_" x="-22.699" y="191.741" width="669.976" height="407"/>
		</defs>
		<clipPath id="SVGID_38_">
			<use xlink:href="#SVGID_37_"  overflow="visible"/>
		</clipPath>
		<path clip-path="url(#SVGID_38_)" fill="none" stroke="#953D96" stroke-width="19.675" d="M151.378,395.783
			c-3.595,4.701-13.306,17.271-36.626,17.271c-27.257,0-40.776-19.853-40.776-39.393c0-18.319,13.092-41.639,43.387-41.639
			c19.852,0,28.455,10.353,33.71,16.56l-10.575,8.173c-3.159-3.9-7.434-8.941-16.465-8.941c-15.273,0-20.96,13.214-20.96,24.215
			c0,14.932,9.283,23.477,20.406,23.477c9.711,0,16.131-6.237,18.743-8.635L151.378,395.783z"/>
	</g>
	<g>
		<defs>
			<rect id="SVGID_39_" x="-22.699" y="191.741" width="669.976" height="407"/>
		</defs>
		<clipPath id="SVGID_40_">
			<use xlink:href="#SVGID_39_"  overflow="visible"/>
		</clipPath>
		<path clip-path="url(#SVGID_40_)" fill="#953D96" d="M208.947,410.995h-25.073v-7.957c-3.076,4.024-7.531,9.679-18.439,9.679
			c-12.663,0-19.726-8.979-19.726-19.605c0-13.215,10.569-20.654,23.66-20.654c6.546,0,11.214,1.539,14.505,2.647
			c0-3.505-0.125-8.422-4.365-11.894c-3.075-2.521-6.33-2.611-8.084-2.611c-7.618,0-12.107,4.455-15.271,7.619l-7.405-6.206
			c5.346-5.991,13.09-13.981,30.76-13.981c11.893,0,17.454,3.501,19.419,4.825c9.895,6.297,10.019,15.262,10.019,21.785
			L208.947,410.995L208.947,410.995z M183.874,385.334c-1.968-0.43-3.382-0.768-5.472-0.768c-6.638,0-8.604,4.363-8.604,7.348
			c0,3.256,2.302,6.421,6.332,6.421c3.594,0,5.65-1.968,7.744-4.184V385.334z"/>
	</g>
	<g>
		<defs>
			<rect id="SVGID_41_" x="-22.699" y="191.741" width="669.976" height="407"/>
		</defs>
		<clipPath id="SVGID_42_">
			<use xlink:href="#SVGID_41_"  overflow="visible"/>
		</clipPath>
		<path clip-path="url(#SVGID_42_)" fill="none" stroke="#953D96" stroke-width="19.675" d="M208.947,410.995h-25.073v-7.957
			c-3.076,4.024-7.531,9.679-18.439,9.679c-12.663,0-19.726-8.979-19.726-19.605c0-13.215,10.569-20.654,23.66-20.654
			c6.546,0,11.214,1.539,14.505,2.647c0-3.505-0.125-8.422-4.365-11.894c-3.075-2.521-6.33-2.611-8.084-2.611
			c-7.618,0-12.107,4.455-15.271,7.619l-7.405-6.206c5.346-5.991,13.09-13.981,30.76-13.981c11.893,0,17.454,3.501,19.419,4.825
			c9.895,6.297,10.019,15.262,10.019,21.785L208.947,410.995L208.947,410.995z M183.874,385.334
			c-1.968-0.43-3.382-0.768-5.472-0.768c-6.638,0-8.604,4.363-8.604,7.348c0,3.256,2.302,6.421,6.332,6.421
			c3.594,0,5.65-1.968,7.744-4.184V385.334z"/>
	</g>
	<g>
		<defs>
			<rect id="SVGID_43_" x="-22.699" y="191.741" width="669.976" height="407"/>
		</defs>
		<clipPath id="SVGID_44_">
			<use xlink:href="#SVGID_43_"  overflow="visible"/>
		</clipPath>
		<path clip-path="url(#SVGID_44_)" fill="#953D96" d="M216.355,393.292c2.307,2.737,6.67,7.959,15.272,7.959
			c5.348,0,8.853-2.735,8.853-6.081c0-4.364-4.918-5.655-7.226-6.423c-3.379-1.014-6.759-1.786-9.926-2.983
			c-2.826-1.075-12.072-4.669-12.072-16.687c0-11.768,9.46-20.924,26.916-20.924c18.1,0,22.678,9.926,24.549,14.074l-7.523,4.363
			c-2.521-3.165-5.472-6.759-12.231-6.759c-5.134,0-7.745,3.041-7.745,5.868c0,4.058,4.577,5.131,7.745,5.9
			c7.098,1.628,22.033,5.132,22.033,20.406c0,9.924-7.959,21.139-29.009,21.139c-16.561,0-22.123-6.329-27.81-14.719
			L216.355,393.292z"/>
	</g>
	<g>
		<defs>
			<rect id="SVGID_45_" x="-22.699" y="191.741" width="669.976" height="407"/>
		</defs>
		<clipPath id="SVGID_46_">
			<use xlink:href="#SVGID_45_"  overflow="visible"/>
		</clipPath>
		<path clip-path="url(#SVGID_46_)" fill="none" stroke="#953D96" stroke-width="19.675" d="M216.355,393.292
			c2.307,2.737,6.67,7.959,15.272,7.959c5.348,0,8.853-2.735,8.853-6.081c0-4.364-4.918-5.655-7.226-6.423
			c-3.379-1.014-6.759-1.786-9.926-2.983c-2.826-1.075-12.072-4.669-12.072-16.687c0-11.768,9.46-20.924,26.916-20.924
			c18.1,0,22.678,9.926,24.549,14.074l-7.523,4.363c-2.521-3.165-5.472-6.759-12.231-6.759c-5.134,0-7.745,3.041-7.745,5.868
			c0,4.058,4.577,5.131,7.745,5.9c7.098,1.628,22.033,5.132,22.033,20.406c0,9.924-7.959,21.139-29.009,21.139
			c-16.561,0-22.123-6.329-27.81-14.719L216.355,393.292z"/>
	</g>
	<g>
		<defs>
			<rect id="SVGID_47_" x="-22.699" y="191.741" width="669.976" height="407"/>
		</defs>
		<clipPath id="SVGID_48_">
			<use xlink:href="#SVGID_47_"  overflow="visible"/>
		</clipPath>
		<path clip-path="url(#SVGID_48_)" fill="#953D96" d="M269.006,333.989h25.073v25.627c3.38-4.057,8.728-10.693,20.102-10.693
			c5.401,0,9.927,1.753,12.934,4.238c6.147,5.042,6.147,11.894,6.147,17.884v39.95H308.28v-35.587c0-3.47-0.091-9.801-6.761-9.801
			c-4.15,0-5.991,2.398-7.439,4.239v41.149h-25.073L269.006,333.989L269.006,333.989z"/>
	</g>
	<g>
		<defs>
			<rect id="SVGID_49_" x="-22.699" y="191.741" width="669.976" height="407"/>
		</defs>
		<clipPath id="SVGID_50_">
			<use xlink:href="#SVGID_49_"  overflow="visible"/>
		</clipPath>
		<path clip-path="url(#SVGID_50_)" fill="none" stroke="#953D96" stroke-width="19.675" d="M269.006,333.989h25.073v25.627
			c3.38-4.057,8.728-10.693,20.102-10.693c5.401,0,9.927,1.753,12.934,4.238c6.147,5.042,6.147,11.894,6.147,17.884v39.95H308.28
			v-35.587c0-3.47-0.091-9.801-6.761-9.801c-4.15,0-5.991,2.398-7.439,4.239v41.149h-25.073L269.006,333.989L269.006,333.989z"/>
	</g>
	<g>
		<defs>
			<rect id="SVGID_51_" x="-22.699" y="191.741" width="669.976" height="407"/>
		</defs>
		<clipPath id="SVGID_52_">
			<use xlink:href="#SVGID_51_"  overflow="visible"/>
		</clipPath>
		<path clip-path="url(#SVGID_52_)" fill="#FFF100" d="M46.161,234.994h28.454v55.5c0,6.856-0.43,14.289-6.207,20.708
			c-5.901,6.456-14.504,8.853-23.356,8.853c-3.04,0-9.461-0.125-15.577-3.29c-7.744-4.024-11.464-10.478-13.215-13.611l10.264-7.224
			c1.538,2.398,4.705,7.315,10.695,7.315c1.842,0,4.024-0.429,6.117-2.396c2.272-2.274,2.826-5.008,2.826-10.694L46.161,234.994
			L46.161,234.994z"/>
	</g>
	<g>
		<defs>
			<rect id="SVGID_53_" x="-22.699" y="191.741" width="669.976" height="407"/>
		</defs>
		<clipPath id="SVGID_54_">
			<use xlink:href="#SVGID_53_"  overflow="visible"/>
		</clipPath>
		<path clip-path="url(#SVGID_54_)" fill="none" stroke="#FFF100" stroke-width="7.81" d="M46.161,234.994h28.454v55.5
			c0,6.856-0.43,14.289-6.207,20.708c-5.901,6.456-14.504,8.853-23.356,8.853c-3.04,0-9.461-0.125-15.577-3.29
			c-7.744-4.024-11.464-10.478-13.215-13.611l10.264-7.224c1.538,2.398,4.705,7.315,10.695,7.315c1.842,0,4.024-0.429,6.117-2.396
			c2.272-2.274,2.826-5.008,2.826-10.694L46.161,234.994L46.161,234.994z"/>
	</g>
	<g>
		<defs>
			<rect id="SVGID_55_" x="-22.699" y="191.741" width="669.976" height="407"/>
		</defs>
		<clipPath id="SVGID_56_">
			<use xlink:href="#SVGID_55_"  overflow="visible"/>
		</clipPath>
		<path clip-path="url(#SVGID_56_)" fill="#FFF100" d="M140.448,303.46c-2.916,4.148-11.125,15.489-29.438,15.489
			c-21.141,0-33.892-13.397-33.892-32.049c0-18.87,12.966-32.388,32.604-32.388c8.172,0,14.378,2.271,18.617,5.007
			c14.414,8.941,14.414,24.984,14.414,32.727h-40.687c0.554,3.471,1.323,7.279,5.687,10.356c3.165,2.271,6.42,3.04,10.141,3.04
			c8.173,0,13.091-4.918,16.008-7.834L140.448,303.46z M118.753,279.925c-0.215-3.721-0.645-12.019-8.603-12.019
			c-7.313,0-8.388,7.869-8.942,12.019H118.753z"/>
	</g>
	<g>
		<defs>
			<rect id="SVGID_57_" x="-22.699" y="191.741" width="669.976" height="407"/>
		</defs>
		<clipPath id="SVGID_58_">
			<use xlink:href="#SVGID_57_"  overflow="visible"/>
		</clipPath>
		<path clip-path="url(#SVGID_58_)" fill="none" stroke="#FFF100" stroke-width="7.81" d="M140.448,303.46
			c-2.916,4.148-11.125,15.489-29.438,15.489c-21.141,0-33.892-13.397-33.892-32.049c0-18.87,12.966-32.388,32.604-32.388
			c8.172,0,14.378,2.271,18.617,5.007c14.414,8.941,14.414,24.984,14.414,32.727h-40.687c0.554,3.471,1.323,7.279,5.687,10.356
			c3.165,2.271,6.42,3.04,10.141,3.04c8.173,0,13.091-4.918,16.008-7.834L140.448,303.46z M118.753,279.925
			c-0.215-3.721-0.645-12.019-8.603-12.019c-7.313,0-8.388,7.869-8.942,12.019H118.753z"/>
	</g>
	<g>
		<defs>
			<rect id="SVGID_59_" x="-22.699" y="191.741" width="669.976" height="407"/>
		</defs>
		<clipPath id="SVGID_60_">
			<use xlink:href="#SVGID_59_"  overflow="visible"/>
		</clipPath>
		<path clip-path="url(#SVGID_60_)" fill="#FFF100" d="M169.457,267.142c3.596-7.409,8.944-11.557,17.24-11.557
			c1.539,0,2.612,0.125,3.935,0.339v21.048c-3.595-2.18-6.546-4.023-11.553-4.023c-5.347,0-7.746,1.843-9.623,3.38v40.867h-24.859
			v-59.735h24.859L169.457,267.142L169.457,267.142z"/>
	</g>
	<g>
		<defs>
			<rect id="SVGID_61_" x="-22.699" y="191.741" width="669.976" height="407"/>
		</defs>
		<clipPath id="SVGID_62_">
			<use xlink:href="#SVGID_61_"  overflow="visible"/>
		</clipPath>
		<path clip-path="url(#SVGID_62_)" fill="none" stroke="#FFF100" stroke-width="7.81" d="M169.457,267.142
			c3.596-7.409,8.944-11.557,17.24-11.557c1.539,0,2.612,0.125,3.935,0.339v21.048c-3.595-2.18-6.546-4.023-11.553-4.023
			c-5.347,0-7.746,1.843-9.623,3.38v40.867h-24.859v-59.735h24.859L169.457,267.142L169.457,267.142z"/>
	</g>
	<g>
		<defs>
			<rect id="SVGID_63_" x="-22.699" y="191.741" width="669.976" height="407"/>
		</defs>
		<clipPath id="SVGID_64_">
			<use xlink:href="#SVGID_63_"  overflow="visible"/>
		</clipPath>
		<path clip-path="url(#SVGID_64_)" fill="#FFF100" d="M192.118,299.525c2.305,2.738,6.668,7.96,15.271,7.96
			c5.349,0,8.852-2.701,8.852-6.082c0-4.364-4.918-5.686-7.224-6.456c-3.378-0.983-6.759-1.717-9.925-2.917
			c-2.825-1.107-12.072-4.702-12.072-16.685c0-11.804,9.461-20.959,26.915-20.959c18.1,0,22.679,9.927,24.555,14.074l-7.53,4.364
			c-2.52-3.165-5.471-6.759-12.23-6.759c-5.133,0-7.745,3.04-7.745,5.9c0,4.025,4.578,5.099,7.745,5.868
			c7.098,1.645,22.032,5.132,22.032,20.406c0,9.924-7.959,21.139-29.008,21.139c-16.562,0-22.124-6.33-27.81-14.72L192.118,299.525z
			"/>
	</g>
	<g>
		<defs>
			<rect id="SVGID_65_" x="-22.699" y="191.741" width="669.976" height="407"/>
		</defs>
		<clipPath id="SVGID_66_">
			<use xlink:href="#SVGID_65_"  overflow="visible"/>
		</clipPath>
		<path clip-path="url(#SVGID_66_)" fill="none" stroke="#FFF100" stroke-width="7.81" d="M192.118,299.525
			c2.305,2.738,6.668,7.96,15.271,7.96c5.349,0,8.852-2.701,8.852-6.082c0-4.364-4.918-5.686-7.224-6.456
			c-3.378-0.983-6.759-1.717-9.925-2.917c-2.825-1.107-12.072-4.702-12.072-16.685c0-11.804,9.461-20.959,26.915-20.959
			c18.1,0,22.679,9.927,24.555,14.074l-7.53,4.364c-2.52-3.165-5.471-6.759-12.23-6.759c-5.133,0-7.745,3.04-7.745,5.9
			c0,4.025,4.578,5.099,7.745,5.868c7.098,1.645,22.032,5.132,22.032,20.406c0,9.924-7.959,21.139-29.008,21.139
			c-16.562,0-22.124-6.33-27.81-14.72L192.118,299.525z"/>
	</g>
	<g>
		<defs>
			<rect id="SVGID_67_" x="-22.699" y="191.741" width="669.976" height="407"/>
		</defs>
		<clipPath id="SVGID_68_">
			<use xlink:href="#SVGID_67_"  overflow="visible"/>
		</clipPath>
		<path clip-path="url(#SVGID_68_)" fill="#FFF100" d="M305.767,303.46c-2.981,4.148-11.156,15.489-29.47,15.489
			c-21.174,0-33.926-13.397-33.926-32.049c0-18.87,13.002-32.388,32.604-32.388c8.173,0,14.414,2.271,18.652,5.007
			c14.378,8.941,14.378,24.984,14.378,32.727h-40.65c0.553,3.471,1.289,7.279,5.652,10.356c3.165,2.271,6.455,3.04,10.14,3.04
			c8.208,0,13.09-4.918,16.042-7.834L305.767,303.46z M284.042,279.925c-0.215-3.721-0.648-12.019-8.638-12.019
			c-7.278,0-8.386,7.869-8.924,12.019H284.042z"/>
	</g>
	<g>
		<defs>
			<rect id="SVGID_69_" x="-22.699" y="191.741" width="669.976" height="407"/>
		</defs>
		<clipPath id="SVGID_70_">
			<use xlink:href="#SVGID_69_"  overflow="visible"/>
		</clipPath>
		<path clip-path="url(#SVGID_70_)" fill="none" stroke="#FFF100" stroke-width="7.81" d="M305.767,303.46
			c-2.981,4.148-11.156,15.489-29.47,15.489c-21.174,0-33.926-13.397-33.926-32.049c0-18.87,13.002-32.388,32.604-32.388
			c8.173,0,14.414,2.271,18.652,5.007c14.378,8.941,14.378,24.984,14.378,32.727h-40.65c0.553,3.471,1.289,7.279,5.652,10.356
			c3.165,2.271,6.455,3.04,10.14,3.04c8.208,0,13.09-4.918,16.042-7.834L305.767,303.46z M284.042,279.925
			c-0.215-3.721-0.648-12.019-8.638-12.019c-7.278,0-8.386,7.869-8.924,12.019H284.042z"/>
	</g>
	<g>
		<defs>
			<rect id="SVGID_71_" x="-22.699" y="191.741" width="669.976" height="407"/>
		</defs>
		<clipPath id="SVGID_72_">
			<use xlink:href="#SVGID_71_"  overflow="visible"/>
		</clipPath>
		<path clip-path="url(#SVGID_72_)" fill="#FFF100" d="M302.019,257.461h26.432c3.344,10.91,7.188,22.893,9.155,32.908
			c2.826-10.23,3.596-12.411,10.783-32.908h19.943l-23.198,54.389c-3.165,7.099-7.35,16.469-16.074,22.031
			c-8.73,5.562-19.265,5.562-26.489,5.473v-9.373c12.446-0.892,16.811-8.421,22.125-17.883L302.019,257.461z"/>
	</g>
	<g>
		<defs>
			<rect id="SVGID_73_" x="-22.699" y="191.741" width="669.976" height="407"/>
		</defs>
		<clipPath id="SVGID_74_">
			<use xlink:href="#SVGID_73_"  overflow="visible"/>
		</clipPath>
		<path clip-path="url(#SVGID_74_)" fill="none" stroke="#FFF100" stroke-width="7.81" d="M302.019,257.461h26.432
			c3.344,10.91,7.188,22.893,9.155,32.908c2.826-10.23,3.596-12.411,10.783-32.908h19.943l-23.198,54.389
			c-3.165,7.099-7.35,16.469-16.074,22.031c-8.73,5.562-19.265,5.562-26.489,5.473v-9.373c12.446-0.892,16.811-8.421,22.125-17.883
			L302.019,257.461z"/>
	</g>
	<g>
		<defs>
			<rect id="SVGID_75_" x="-22.699" y="191.741" width="669.976" height="407"/>
		</defs>
		<clipPath id="SVGID_76_">
			<use xlink:href="#SVGID_75_"  overflow="visible"/>
		</clipPath>
		<path clip-path="url(#SVGID_76_)" fill="#FFF100" d="M151.378,395.783c-3.595,4.701-13.306,17.271-36.626,17.271
			c-27.257,0-40.776-19.853-40.776-39.393c0-18.319,13.092-41.639,43.387-41.639c19.852,0,28.455,10.353,33.71,16.56l-10.575,8.173
			c-3.159-3.9-7.434-8.941-16.465-8.941c-15.273,0-20.96,13.214-20.96,24.215c0,14.932,9.283,23.477,20.406,23.477
			c9.711,0,16.131-6.237,18.743-8.635L151.378,395.783z"/>
	</g>
	<g>
		<defs>
			<rect id="SVGID_77_" x="-22.699" y="191.741" width="669.976" height="407"/>
		</defs>
		<clipPath id="SVGID_78_">
			<use xlink:href="#SVGID_77_"  overflow="visible"/>
		</clipPath>
		<path clip-path="url(#SVGID_78_)" fill="none" stroke="#FFF100" stroke-width="7.81" d="M151.378,395.783
			c-3.595,4.701-13.306,17.271-36.626,17.271c-27.257,0-40.776-19.853-40.776-39.393c0-18.319,13.092-41.639,43.387-41.639
			c19.852,0,28.455,10.353,33.71,16.56l-10.575,8.173c-3.159-3.9-7.434-8.941-16.465-8.941c-15.273,0-20.96,13.214-20.96,24.215
			c0,14.932,9.283,23.477,20.406,23.477c9.711,0,16.131-6.237,18.743-8.635L151.378,395.783z"/>
	</g>
	<g>
		<defs>
			<rect id="SVGID_79_" x="-22.699" y="191.741" width="669.976" height="407"/>
		</defs>
		<clipPath id="SVGID_80_">
			<use xlink:href="#SVGID_79_"  overflow="visible"/>
		</clipPath>
		<path clip-path="url(#SVGID_80_)" fill="#FFF100" d="M208.947,410.995h-25.073v-7.957c-3.076,4.024-7.531,9.679-18.439,9.679
			c-12.663,0-19.726-8.979-19.726-19.605c0-13.215,10.569-20.654,23.66-20.654c6.546,0,11.214,1.539,14.505,2.647
			c0-3.505-0.125-8.422-4.365-11.894c-3.075-2.521-6.33-2.611-8.084-2.611c-7.618,0-12.107,4.455-15.271,7.619l-7.405-6.206
			c5.346-5.991,13.09-13.981,30.76-13.981c11.893,0,17.454,3.501,19.419,4.825c9.895,6.297,10.019,15.262,10.019,21.785
			L208.947,410.995L208.947,410.995z M183.874,385.334c-1.968-0.43-3.382-0.768-5.472-0.768c-6.638,0-8.604,4.363-8.604,7.348
			c0,3.256,2.302,6.421,6.332,6.421c3.594,0,5.65-1.968,7.744-4.184V385.334z"/>
	</g>
	<g>
		<defs>
			<rect id="SVGID_81_" x="-22.699" y="191.741" width="669.976" height="407"/>
		</defs>
		<clipPath id="SVGID_82_">
			<use xlink:href="#SVGID_81_"  overflow="visible"/>
		</clipPath>
		<path clip-path="url(#SVGID_82_)" fill="none" stroke="#FFF100" stroke-width="7.81" d="M208.947,410.995h-25.073v-7.957
			c-3.076,4.024-7.531,9.679-18.439,9.679c-12.663,0-19.726-8.979-19.726-19.605c0-13.215,10.569-20.654,23.66-20.654
			c6.546,0,11.214,1.539,14.505,2.647c0-3.505-0.125-8.422-4.365-11.894c-3.075-2.521-6.33-2.611-8.084-2.611
			c-7.618,0-12.107,4.455-15.271,7.619l-7.405-6.206c5.346-5.991,13.09-13.981,30.76-13.981c11.893,0,17.454,3.501,19.419,4.825
			c9.895,6.297,10.019,15.262,10.019,21.785L208.947,410.995L208.947,410.995z M183.874,385.334
			c-1.968-0.43-3.382-0.768-5.472-0.768c-6.638,0-8.604,4.363-8.604,7.348c0,3.256,2.302,6.421,6.332,6.421
			c3.594,0,5.65-1.968,7.744-4.184V385.334z"/>
	</g>
	<g>
		<defs>
			<rect id="SVGID_83_" x="-22.699" y="191.741" width="669.976" height="407"/>
		</defs>
		<clipPath id="SVGID_84_">
			<use xlink:href="#SVGID_83_"  overflow="visible"/>
		</clipPath>
		<path clip-path="url(#SVGID_84_)" fill="#FFF100" d="M216.355,393.292c2.307,2.737,6.67,7.959,15.272,7.959
			c5.348,0,8.853-2.735,8.853-6.081c0-4.364-4.918-5.655-7.226-6.423c-3.379-1.014-6.759-1.786-9.926-2.983
			c-2.826-1.075-12.072-4.669-12.072-16.687c0-11.768,9.46-20.924,26.916-20.924c18.1,0,22.678,9.926,24.549,14.074l-7.523,4.363
			c-2.521-3.165-5.472-6.759-12.231-6.759c-5.134,0-7.745,3.041-7.745,5.868c0,4.058,4.577,5.131,7.745,5.9
			c7.098,1.628,22.033,5.132,22.033,20.406c0,9.924-7.959,21.139-29.009,21.139c-16.561,0-22.123-6.329-27.81-14.719
			L216.355,393.292z"/>
	</g>
	<g>
		<defs>
			<rect id="SVGID_85_" x="-22.699" y="191.741" width="669.976" height="407"/>
		</defs>
		<clipPath id="SVGID_86_">
			<use xlink:href="#SVGID_85_"  overflow="visible"/>
		</clipPath>
		<path clip-path="url(#SVGID_86_)" fill="none" stroke="#FFF100" stroke-width="7.81" d="M216.355,393.292
			c2.307,2.737,6.67,7.959,15.272,7.959c5.348,0,8.853-2.735,8.853-6.081c0-4.364-4.918-5.655-7.226-6.423
			c-3.379-1.014-6.759-1.786-9.926-2.983c-2.826-1.075-12.072-4.669-12.072-16.687c0-11.768,9.46-20.924,26.916-20.924
			c18.1,0,22.678,9.926,24.549,14.074l-7.523,4.363c-2.521-3.165-5.472-6.759-12.231-6.759c-5.134,0-7.745,3.041-7.745,5.868
			c0,4.058,4.577,5.131,7.745,5.9c7.098,1.628,22.033,5.132,22.033,20.406c0,9.924-7.959,21.139-29.009,21.139
			c-16.561,0-22.123-6.329-27.81-14.719L216.355,393.292z"/>
	</g>
	<g>
		<defs>
			<rect id="SVGID_87_" x="-22.699" y="191.741" width="669.976" height="407"/>
		</defs>
		<clipPath id="SVGID_88_">
			<use xlink:href="#SVGID_87_"  overflow="visible"/>
		</clipPath>
		<path clip-path="url(#SVGID_88_)" fill="#FFF100" d="M269.006,333.989h25.073v25.627c3.38-4.057,8.728-10.693,20.102-10.693
			c5.401,0,9.927,1.753,12.934,4.238c6.147,5.042,6.147,11.894,6.147,17.884v39.95H308.28v-35.587c0-3.47-0.091-9.801-6.761-9.801
			c-4.15,0-5.991,2.398-7.439,4.239v41.149h-25.073L269.006,333.989L269.006,333.989z"/>
	</g>
	<g>
		<defs>
			<rect id="SVGID_89_" x="-22.699" y="191.741" width="669.976" height="407"/>
		</defs>
		<clipPath id="SVGID_90_">
			<use xlink:href="#SVGID_89_"  overflow="visible"/>
		</clipPath>
		<path clip-path="url(#SVGID_90_)" fill="none" stroke="#FFF100" stroke-width="7.81" d="M269.006,333.989h25.073v25.627
			c3.38-4.057,8.728-10.693,20.102-10.693c5.401,0,9.927,1.753,12.934,4.238c6.147,5.042,6.147,11.894,6.147,17.884v39.95H308.28
			v-35.587c0-3.47-0.091-9.801-6.761-9.801c-4.15,0-5.991,2.398-7.439,4.239v41.149h-25.073L269.006,333.989L269.006,333.989z"/>
	</g>
	<g>
		<defs>
			<rect id="SVGID_91_" x="-22.699" y="191.741" width="669.976" height="407"/>
		</defs>
		<clipPath id="SVGID_92_">
			<use xlink:href="#SVGID_91_"  overflow="visible"/>
		</clipPath>
		<path clip-path="url(#SVGID_92_)" fill="#953D96" d="M46.161,234.994h28.454v55.5c0,6.856-0.43,14.289-6.207,20.708
			c-5.901,6.456-14.504,8.853-23.356,8.853c-3.04,0-9.461-0.125-15.577-3.29c-7.744-4.024-11.464-10.478-13.215-13.611l10.264-7.224
			c1.538,2.398,4.705,7.315,10.695,7.315c1.842,0,4.024-0.429,6.117-2.396c2.272-2.274,2.826-5.008,2.826-10.694L46.161,234.994
			L46.161,234.994z"/>
	</g>
	<g>
		<defs>
			<rect id="SVGID_93_" x="-22.699" y="191.741" width="669.976" height="407"/>
		</defs>
		<clipPath id="SVGID_94_">
			<use xlink:href="#SVGID_93_"  overflow="visible"/>
		</clipPath>
		<path clip-path="url(#SVGID_94_)" fill="#953D96" d="M140.448,303.46c-2.916,4.148-11.125,15.489-29.438,15.489
			c-21.141,0-33.892-13.397-33.892-32.049c0-18.87,12.966-32.388,32.604-32.388c8.172,0,14.378,2.271,18.617,5.007
			c14.414,8.941,14.414,24.984,14.414,32.727h-40.687c0.554,3.471,1.323,7.279,5.687,10.356c3.165,2.271,6.42,3.04,10.141,3.04
			c8.173,0,13.091-4.918,16.008-7.834L140.448,303.46z M118.753,279.925c-0.215-3.721-0.645-12.019-8.603-12.019
			c-7.313,0-8.388,7.869-8.942,12.019H118.753z"/>
	</g>
	<g>
		<defs>
			<rect id="SVGID_95_" x="-22.699" y="191.741" width="669.976" height="407"/>
		</defs>
		<clipPath id="SVGID_96_">
			<use xlink:href="#SVGID_95_"  overflow="visible"/>
		</clipPath>
		<path clip-path="url(#SVGID_96_)" fill="#953D96" d="M169.457,267.142c3.596-7.409,8.944-11.557,17.24-11.557
			c1.539,0,2.612,0.125,3.935,0.339v21.048c-3.595-2.18-6.546-4.023-11.553-4.023c-5.347,0-7.746,1.843-9.623,3.38v40.867h-24.859
			v-59.735h24.859L169.457,267.142L169.457,267.142z"/>
	</g>
	<g>
		<defs>
			<rect id="SVGID_97_" x="-22.699" y="191.741" width="669.976" height="407"/>
		</defs>
		<clipPath id="SVGID_98_">
			<use xlink:href="#SVGID_97_"  overflow="visible"/>
		</clipPath>
		<path clip-path="url(#SVGID_98_)" fill="#953D96" d="M192.118,299.525c2.305,2.738,6.668,7.96,15.271,7.96
			c5.349,0,8.852-2.701,8.852-6.082c0-4.364-4.918-5.686-7.224-6.456c-3.378-0.983-6.759-1.717-9.925-2.917
			c-2.825-1.107-12.072-4.702-12.072-16.685c0-11.804,9.461-20.959,26.915-20.959c18.1,0,22.679,9.927,24.555,14.074l-7.53,4.364
			c-2.52-3.165-5.471-6.759-12.23-6.759c-5.133,0-7.745,3.04-7.745,5.9c0,4.025,4.578,5.099,7.745,5.868
			c7.098,1.645,22.032,5.132,22.032,20.406c0,9.924-7.959,21.139-29.008,21.139c-16.562,0-22.124-6.33-27.81-14.72L192.118,299.525z
			"/>
	</g>
	<g>
		<defs>
			<rect id="SVGID_99_" x="-22.699" y="191.741" width="669.976" height="407"/>
		</defs>
		<clipPath id="SVGID_100_">
			<use xlink:href="#SVGID_99_"  overflow="visible"/>
		</clipPath>
		<path clip-path="url(#SVGID_100_)" fill="#953D96" d="M305.767,303.46c-2.981,4.148-11.156,15.489-29.47,15.489
			c-21.174,0-33.926-13.397-33.926-32.049c0-18.87,13.002-32.388,32.604-32.388c8.173,0,14.414,2.271,18.652,5.007
			c14.378,8.941,14.378,24.984,14.378,32.727h-40.65c0.553,3.471,1.289,7.279,5.652,10.356c3.165,2.271,6.455,3.04,10.14,3.04
			c8.208,0,13.09-4.918,16.042-7.834L305.767,303.46z M284.042,279.925c-0.215-3.721-0.648-12.019-8.638-12.019
			c-7.278,0-8.386,7.869-8.924,12.019H284.042z"/>
	</g>
	<g>
		<defs>
			<rect id="SVGID_101_" x="-22.699" y="191.741" width="669.976" height="407"/>
		</defs>
		<clipPath id="SVGID_102_">
			<use xlink:href="#SVGID_101_"  overflow="visible"/>
		</clipPath>
		<path clip-path="url(#SVGID_102_)" fill="#953D96" d="M302.019,257.461h26.432c3.344,10.91,7.188,22.893,9.155,32.908
			c2.826-10.23,3.596-12.411,10.783-32.908h19.943l-23.198,54.389c-3.165,7.099-7.35,16.469-16.074,22.031
			c-8.73,5.562-19.265,5.562-26.489,5.473v-9.373c12.446-0.892,16.811-8.421,22.125-17.883L302.019,257.461z"/>
	</g>
	<g>
		<defs>
			<rect id="SVGID_103_" x="-22.699" y="191.741" width="669.976" height="407"/>
		</defs>
		<clipPath id="SVGID_104_">
			<use xlink:href="#SVGID_103_"  overflow="visible"/>
		</clipPath>
		<path clip-path="url(#SVGID_104_)" fill="#953D96" d="M151.378,395.783c-3.595,4.701-13.306,17.271-36.626,17.271
			c-27.257,0-40.776-19.853-40.776-39.393c0-18.319,13.092-41.639,43.387-41.639c19.852,0,28.455,10.353,33.71,16.56l-10.575,8.173
			c-3.159-3.9-7.434-8.941-16.465-8.941c-15.273,0-20.96,13.214-20.96,24.215c0,14.932,9.283,23.477,20.406,23.477
			c9.711,0,16.131-6.237,18.743-8.635L151.378,395.783z"/>
	</g>
	<g>
		<defs>
			<rect id="SVGID_105_" x="-22.699" y="191.741" width="669.976" height="407"/>
		</defs>
		<clipPath id="SVGID_106_">
			<use xlink:href="#SVGID_105_"  overflow="visible"/>
		</clipPath>
		<path clip-path="url(#SVGID_106_)" fill="#953D96" d="M208.947,410.995h-25.073v-7.957c-3.076,4.024-7.531,9.679-18.439,9.679
			c-12.663,0-19.726-8.979-19.726-19.605c0-13.215,10.569-20.654,23.66-20.654c6.546,0,11.214,1.539,14.505,2.647
			c0-3.505-0.125-8.422-4.365-11.894c-3.075-2.521-6.33-2.611-8.084-2.611c-7.618,0-12.107,4.455-15.271,7.619l-7.405-6.206
			c5.346-5.991,13.09-13.981,30.76-13.981c11.893,0,17.454,3.501,19.419,4.825c9.895,6.297,10.019,15.262,10.019,21.785
			L208.947,410.995L208.947,410.995z M183.874,385.334c-1.968-0.43-3.382-0.768-5.472-0.768c-6.638,0-8.604,4.363-8.604,7.348
			c0,3.256,2.302,6.421,6.332,6.421c3.594,0,5.65-1.968,7.744-4.184V385.334z"/>
	</g>
	<g>
		<defs>
			<rect id="SVGID_107_" x="-22.699" y="191.741" width="669.976" height="407"/>
		</defs>
		<clipPath id="SVGID_108_">
			<use xlink:href="#SVGID_107_"  overflow="visible"/>
		</clipPath>
		<path clip-path="url(#SVGID_108_)" fill="#953D96" d="M216.355,393.292c2.307,2.737,6.67,7.959,15.272,7.959
			c5.348,0,8.853-2.735,8.853-6.081c0-4.364-4.918-5.655-7.226-6.423c-3.379-1.014-6.759-1.786-9.926-2.983
			c-2.826-1.075-12.072-4.669-12.072-16.687c0-11.768,9.46-20.924,26.916-20.924c18.1,0,22.678,9.926,24.549,14.074l-7.523,4.363
			c-2.521-3.165-5.472-6.759-12.231-6.759c-5.134,0-7.745,3.041-7.745,5.868c0,4.058,4.577,5.131,7.745,5.9
			c7.098,1.628,22.033,5.132,22.033,20.406c0,9.924-7.959,21.139-29.009,21.139c-16.561,0-22.123-6.329-27.81-14.719
			L216.355,393.292z"/>
	</g>
	<g>
		<defs>
			<rect id="SVGID_109_" x="-22.699" y="191.741" width="669.976" height="407"/>
		</defs>
		<clipPath id="SVGID_110_">
			<use xlink:href="#SVGID_109_"  overflow="visible"/>
		</clipPath>
		<path clip-path="url(#SVGID_110_)" fill="#953D96" d="M269.006,333.989h25.073v25.627c3.38-4.057,8.728-10.693,20.102-10.693
			c5.401,0,9.927,1.753,12.934,4.238c6.147,5.042,6.147,11.894,6.147,17.884v39.95H308.28v-35.587c0-3.47-0.091-9.801-6.761-9.801
			c-4.15,0-5.991,2.398-7.439,4.239v41.149h-25.073L269.006,333.989L269.006,333.989z"/>
	</g>
	<g>
		<defs>
			<rect id="SVGID_111_" x="-22.699" y="191.741" width="669.976" height="407"/>
		</defs>
		<clipPath id="SVGID_112_">
			<use xlink:href="#SVGID_111_"  overflow="visible"/>
		</clipPath>
		<path clip-path="url(#SVGID_112_)" fill="#722872" d="M470.8,536.1c38.29,0,69.342-31.407,69.342-70.116
			c0-38.78-31.052-70.187-69.342-70.187c-38.356,0-69.412,31.406-69.412,70.187C401.388,504.691,432.442,536.1,470.8,536.1"/>
	</g>
</g>
<g>
	<g>
		<defs>
			<path id="SVGID_113_" d="M387.314,457.554c0,38.212,30.982,69.194,69.192,69.194c38.207,0,69.191-30.982,69.191-69.194
				c0-38.206-30.984-69.192-69.191-69.192C418.298,388.361,387.314,419.348,387.314,457.554"/>
		</defs>
		<clipPath id="SVGID_114_">
			<use xlink:href="#SVGID_113_"  overflow="visible"/>
		</clipPath>
		
			<radialGradient id="SVGID_115_" cx="32.3662" cy="229.2319" r="1.233" gradientTransform="matrix(72.1372 -25.7337 26.2484 73.5798 -7884.6133 -15590.2539)" gradientUnits="userSpaceOnUse">
			<stop  offset="0" style="stop-color:#FFFFFF"/>
			<stop  offset="0.3348" style="stop-color:#FFFFFF"/>
			<stop  offset="0.5968" style="stop-color:#FFFFFF"/>
			<stop  offset="0.6617" style="stop-color:#FCFCFC"/>
			<stop  offset="0.7071" style="stop-color:#F3F3F3"/>
			<stop  offset="0.7465" style="stop-color:#E4E4E4"/>
			<stop  offset="0.7825" style="stop-color:#CECECF"/>
			<stop  offset="0.8162" style="stop-color:#B1B2B4"/>
			<stop  offset="0.8478" style="stop-color:#8F9093"/>
			<stop  offset="0.8598" style="stop-color:#808184"/>
			<stop  offset="1" style="stop-color:#808184"/>
		</radialGradient>
		<polygon clip-path="url(#SVGID_114_)" fill="url(#SVGID_115_)" points="343.529,403.964 510.096,344.543 569.483,511.145 
			402.917,570.534 		"/>
	</g>
</g>
<g>
	<g>
		<defs>
			<path id="SVGID_116_" d="M453.463,402.705c-12.167,0-36.637,16.105-38.243,30.441c-1.337,12.207,8.688,11.724,13.269,11.382
				c5.023-0.361,18.943-2.434,35.886-3.913c-19.031,5.536-31.721,12.59-38.955,20.683c-8.915,9.935,5.276,36.924,20.035,38.369
				c14.758,1.375,26.229-17.422,27.431-18.189c-6.474,22.429-16.799,27.485-16.799,27.485c3.257,3.938,7.563,2.606,8.88,2.216
				c6.772-3.609,10.262-19.223,11.907-31.416c0.888,7.165,13.741,19.568,24.631,12.725c13.957-10.555,15.586-24.42,14.266-32.944
				c-1.587-10.118-11.787-15.375-29.268-19.662c8.738,0.115,16.689,1.387,21.315-0.057c4.381-1.32,5.098-2.88,4.529-4.584
				c-6.344-21.048-25.194-34.021-34.198-30.397c-2.146,0.864-2.646,5.664-2.646,5.664s-0.032,14.453,0.771,26.949
				C475.09,427.481,470.585,402.706,453.463,402.705C453.464,402.705,453.464,402.705,453.463,402.705"/>
		</defs>
		<clipPath id="SVGID_117_">
			<use xlink:href="#SVGID_116_"  overflow="visible"/>
		</clipPath>
		
			<radialGradient id="SVGID_118_" cx="32.8135" cy="229.1895" r="1.2323" gradientTransform="matrix(42.5734 0 0 42.9565 -918.4117 -9398.1211)" gradientUnits="userSpaceOnUse">
			<stop  offset="0" style="stop-color:#D6DE23"/>
			<stop  offset="0.0187" style="stop-color:#D6DE23"/>
			<stop  offset="0.3263" style="stop-color:#8BC53F"/>
			<stop  offset="0.4254" style="stop-color:#86C03F"/>
			<stop  offset="0.5471" style="stop-color:#77B33F"/>
			<stop  offset="0.68" style="stop-color:#5E9C3F"/>
			<stop  offset="0.7159" style="stop-color:#56953F"/>
			<stop  offset="0.8595" style="stop-color:#2C7F3C"/>
			<stop  offset="1" style="stop-color:#006838"/>
		</radialGradient>
		<rect x="413.883" y="401.218" clip-path="url(#SVGID_117_)" fill="url(#SVGID_118_)" width="103.206" height="111.684"/>
	</g>
</g>
<g>
	<g>
		<defs>
			<rect id="SVGID_119_" x="-24.699" y="191.741" width="669.976" height="407"/>
		</defs>
		<clipPath id="SVGID_120_">
			<use xlink:href="#SVGID_119_"  overflow="visible"/>
		</clipPath>
		<path clip-path="url(#SVGID_120_)" fill="#FFFFFF" d="M464.595,428.649l-0.549-2.394l2.996-3.588l0.8-2.08l2.477-1.889
			l1.726,0.515l12.332,7.013l0.103,2.828l-1.733,5.084l-0.65,0.204l-0.561-0.234l0.13-0.217l0.393-1.76l-0.085-0.604l-0.085,0.712
			l-0.661,1.536l-0.194,1.694l-0.658,1.519l-0.597,0.284l-0.475-0.564l-0.16,0.403l1.664,1.559l1.427,0.552l0.141-0.252l0.392,0.011
			l0.839,0.811l0.378-0.184l-0.041-0.638l-0.492-1.129l0.812,0.019c0,0,2.807,3.52,0.271,11.691l-0.587-0.354l-0.237-0.75
			l-0.218-0.004l-0.333,6.133l-0.646,0.613l-0.624,3.645l-1.413,1.592l-0.04,1.132l-0.8,0.303l-0.441-0.659l-0.699,1.123
			l0.696,0.598l-0.776,1.12l0.549,0.354v0.267l0.541,0.25l-0.146,0.729l-1.042,1.202l-1.905,1.291l-2.488,2.661l-2.227,3.43
			l0.004,0.841l-0.85,1.104l-2.104,1.081l-0.913,0.006l1.12-2.004l0.012-1.012l0.821-0.848l0.014-1.758l-2.394-1.254l-1.689-0.094
			l-1.706-1.984l-0.943,0.037l-0.522,0.293l-4.813-4.348l-0.09-1.231l0.537-1.807l-0.479-0.847l0.694-2.87l0.975-1.203l0.712-0.141
			l1.563-1.463l0.532,0.106l2.181-1.156l1.419-2.699l0.825-0.132l1.999-2.103l1.448-0.604l1.631-1.188l-0.037-1.112l-1.423-1.405
			l-0.252-0.672l-1.223-1.146l-1.523-2.581l-0.209-0.611l-0.389,0.373l-0.883-0.051l-0.802-0.707l-0.009-1.721l-0.277-1.075
			l-1.724-1.192l0.405-1.224l-0.58-2.494l1.313-0.465l0.053-1.427L464.595,428.649z"/>
	</g>
</g>
</svg>
