<?xml version="1.0" encoding="utf-8"?>
<!-- Generator: Adobe Illustrator 16.0.0, SVG Export Plug-In . SVG Version: 6.00 Build 0)  -->
<!DOCTYPE svg PUBLIC "-//W3C//DTD SVG 1.1//EN" "http://www.w3.org/Graphics/SVG/1.1/DTD/svg11.dtd">
<svg version="1.1" id="Layer_1" xmlns="http://www.w3.org/2000/svg" xmlns:xlink="http://www.w3.org/1999/xlink" x="0px" y="0px"
	 width="494px" height="384px" viewBox="58.5 203.5 494 384" enable-background="new 58.5 203.5 494 384" xml:space="preserve">
<g>
	<g>
		<defs>
			<path id="SVGID_1_" d="M75.46,396.222c0,104.493,106.429,189.202,237.714,189.202c131.278,0,237.705-84.709,237.705-189.202
				c0-104.494-106.427-189.202-237.705-189.202C181.889,207.02,75.46,291.728,75.46,396.222"/>
		</defs>
		<clipPath id="SVGID_2_">
			<use xlink:href="#SVGID_1_"  overflow="visible"/>
		</clipPath>
		
			<linearGradient id="SVGID_3_" gradientUnits="userSpaceOnUse" x1="1.0571" y1="167.0039" x2="1.9666" y2="167.0039" gradientTransform="matrix(502.2781 0 0 502.2781 -442.639 -83485.9063)">
			<stop  offset="0" style="stop-color:#A82C31"/>
			<stop  offset="0.0484" style="stop-color:#AF2A2F"/>
			<stop  offset="0.2407" style="stop-color:#C5232A"/>
			<stop  offset="0.4493" style="stop-color:#D61F26"/>
			<stop  offset="0.6841" style="stop-color:#DF1C24"/>
			<stop  offset="1" style="stop-color:#E21B23"/>
		</linearGradient>
		<rect x="75.46" y="207.02" clip-path="url(#SVGID_2_)" fill="url(#SVGID_3_)" width="475.419" height="378.404"/>
	</g>
</g>
<g>
	<g>
		<defs>
			<path id="SVGID_4_" d="M118.965,383.433c0,89.305,91.535,161.694,204.453,161.694c112.917,0,204.449-72.39,204.449-161.694
				c0-89.297-91.532-161.693-204.449-161.693C210.5,221.74,118.965,294.136,118.965,383.433"/>
		</defs>
		<clipPath id="SVGID_5_">
			<use xlink:href="#SVGID_4_"  overflow="visible"/>
		</clipPath>
		
			<radialGradient id="SVGID_6_" cx="0.9238" cy="167.04" r="1.0836" gradientTransform="matrix(164.4344 0 0 180.4214 171.5328 -29754.2188)" gradientUnits="userSpaceOnUse">
			<stop  offset="0" style="stop-color:#FFFFFF"/>
			<stop  offset="0.5942" style="stop-color:#FDFEFE"/>
			<stop  offset="0.808" style="stop-color:#F6F9FD"/>
			<stop  offset="0.9601" style="stop-color:#EBF0F9"/>
			<stop  offset="1" style="stop-color:#E6EDF8"/>
		</radialGradient>
		<rect x="118.965" y="221.74" clip-path="url(#SVGID_5_)" fill="url(#SVGID_6_)" width="408.902" height="323.387"/>
	</g>
</g>
<g>
	<g>
		<defs>
			<rect id="SVGID_7_" x="35.109" y="190.5" width="556.391" height="414.643"/>
		</defs>
		<clipPath id="SVGID_8_">
			<use xlink:href="#SVGID_7_"  overflow="visible"/>
		</clipPath>
		<path clip-path="url(#SVGID_8_)" fill="#EDB111" d="M133.612,447.094c0,0,66.326,27.108,100.75,20.447
			c1.302-0.26-13.436,7.492-45.339,2.076C157.12,464.193,133.612,447.094,133.612,447.094"/>
	</g>
	<g>
		<defs>
			<rect id="SVGID_9_" x="35.109" y="190.5" width="556.391" height="414.643"/>
		</defs>
		<clipPath id="SVGID_10_">
			<use xlink:href="#SVGID_9_"  overflow="visible"/>
		</clipPath>
		<path clip-path="url(#SVGID_10_)" fill="#929497" d="M195.151,432.712c9.668-0.733,18.096-1.386,27.843-2.13
			c4.02,10.069,7.46,18.783,11.359,28.812c0.216-0.022,0.42-0.046,0.634-0.067c0.334-2.591,0.627-4.996,1.322-7.573
			c2.249-7.828,4.219-14.688,6.487-22.676c8.35-0.638,15.635-1.176,24.037-1.806c4.238,18.386,7.79,34.212,11.71,52.219
			c-7.497,1.093-13.979,2.041-21.404,3.102c-1.458-10.136-2.761-18.979-4.304-29.216c-0.144,0.015-0.286,0.031-0.427,0.046
			c-0.37,1.947-0.692,3.703-1.313,5.607c-2.937,9.021-5.475,16.755-8.373,25.619c-4.97,0.705-9.281,1.309-14.224,1.987
			c-3.605-7.883-6.773-14.713-10.46-22.55c-0.947-2.418-1.676-4.395-2.071-6.894c-0.29,0.033-0.571,0.067-0.861,0.09
			c-0.049,2.391-0.08,4.533-0.227,6.923c-0.52,8.566-0.979,15.97-1.503,24.471c-9.128,1.208-17.02,2.224-26.065,3.309
			C189.978,471.609,192.366,453.854,195.151,432.712"/>
	</g>
	<g>
		<defs>
			<rect id="SVGID_11_" x="35.109" y="190.5" width="556.391" height="414.643"/>
		</defs>
		<clipPath id="SVGID_12_">
			<use xlink:href="#SVGID_11_"  overflow="visible"/>
		</clipPath>
		<path clip-path="url(#SVGID_12_)" fill="#929497" d="M285.114,425.919c7.212-0.531,13.495-0.983,20.734-1.51
			c0.388,18.043,0.651,33.519,0.856,50.934c-7.08,1.046-13.204,1.942-20.225,2.976C286.105,460.349,285.694,444.464,285.114,425.919
			"/>
	</g>
	<g>
		<defs>
			<rect id="SVGID_13_" x="35.109" y="190.5" width="556.391" height="414.643"/>
		</defs>
		<clipPath id="SVGID_14_">
			<use xlink:href="#SVGID_13_"  overflow="visible"/>
		</clipPath>
		<path clip-path="url(#SVGID_14_)" fill="#929497" d="M315.203,423.74c6.527-0.467,12.211-0.864,18.773-1.329
			c0.116,11.794,0.2,21.964,0.26,33.479c4.966-0.604,9.707-1.177,14.667-1.782c0,5.283-0.003,9.835-0.022,15.031
			c-11.577,1.688-21.581,3.171-33.021,4.857C315.722,456.835,315.513,441.558,315.203,423.74"/>
	</g>
	<g>
		<defs>
			<rect id="SVGID_15_" x="35.109" y="190.5" width="556.391" height="414.643"/>
		</defs>
		<clipPath id="SVGID_16_">
			<use xlink:href="#SVGID_15_"  overflow="visible"/>
		</clipPath>
		<path clip-path="url(#SVGID_16_)" fill="#929497" d="M354.018,421.011c5.541-0.383,10.822-0.742,16.356-1.124
			c-0.019,11.165-0.046,20.791-0.104,31.633c4.487-0.529,8.381-1.004,12.874-1.543c-0.042,4.99-0.089,9.287-0.137,14.166
			c-10.146,1.479-18.929,2.761-28.985,4.242C354.091,452.294,354.081,437.846,354.018,421.011"/>
	</g>
	<g>
		<defs>
			<rect id="SVGID_17_" x="35.109" y="190.5" width="556.391" height="414.643"/>
		</defs>
		<clipPath id="SVGID_18_">
			<use xlink:href="#SVGID_17_"  overflow="visible"/>
		</clipPath>
		<path clip-path="url(#SVGID_18_)" fill="#929497" d="M388.639,418.648c4.983-0.334,9.31-0.629,14.297-0.957
			c-0.132,15.54-0.257,28.903-0.465,43.619c-4.96,0.715-9.258,1.346-14.209,2.063C388.447,448.262,388.546,434.583,388.639,418.648"
			/>
	</g>
	<g>
		<defs>
			<rect id="SVGID_19_" x="35.109" y="190.5" width="556.391" height="414.643"/>
		</defs>
		<clipPath id="SVGID_20_">
			<use xlink:href="#SVGID_19_"  overflow="visible"/>
		</clipPath>
		<path clip-path="url(#SVGID_20_)" fill="#929497" d="M427.178,429.41c4.11-0.158,6.138,2.955,6.212,7.545
			c-0.226,4.922-2.542,7.995-6.429,8.652c-3.993,0.298-6.296-2.254-6.389-7.292C420.782,433.614,423.029,430.011,427.178,429.41
			 M427.353,415.377c-11.114,1.241-19.354,9.841-20.068,24.118c0.388,14.51,8.252,20.124,19.48,18.934
			c10.604-1.973,17.812-9.421,18.484-22.952C444.966,422.177,438.019,415.164,427.353,415.377"/>
	</g>
	<g>
		<defs>
			<rect id="SVGID_21_" x="35.109" y="190.5" width="556.391" height="414.643"/>
		</defs>
		<clipPath id="SVGID_22_">
			<use xlink:href="#SVGID_21_"  overflow="visible"/>
		</clipPath>
		<path clip-path="url(#SVGID_22_)" fill="#929497" d="M448.313,414.671c3.683-0.246,6.881-0.457,10.567-0.705
			c3.17,7.404,5.935,13.826,9.123,21.093c0.096-0.008,0.19-0.019,0.299-0.03c-0.391-3.32-0.742-6.327-0.725-9.811
			c0.055-4.104,0.1-7.691,0.165-11.839c3.334-0.221,6.239-0.417,9.577-0.638c-0.182,13.519-0.325,25.159-0.522,37.8
			c-3.349,0.489-6.261,0.912-9.611,1.401c-3.118-6.453-5.837-12.216-8.957-18.936c-0.113,0.015-0.213,0.021-0.317,0.031
			c0.329,2.81,0.576,5.083,0.554,7.773c-0.065,4.396-0.122,8.159-0.199,12.42c-3.665,0.53-6.866,0.984-10.545,1.528
			C447.948,441.311,448.116,428.998,448.313,414.671"/>
	</g>
	<g>
		<defs>
			<rect id="SVGID_23_" x="35.109" y="190.5" width="556.391" height="414.643"/>
		</defs>
		<clipPath id="SVGID_24_">
			<use xlink:href="#SVGID_23_"  overflow="visible"/>
		</clipPath>
		<path clip-path="url(#SVGID_24_)" fill="#929497" d="M482.702,436.686c0.181,0.182,0.299,0.299,0.479,0.482
			c1.762,1.704,3.555,2.828,5.783,2.627c0.938-0.143,2.254-0.745,2.364-2.452c-0.051-1.701-1.13-1.639-2.004-1.776
			c-0.621-0.096-1.22-0.183-1.847-0.273c-3.786-0.657-6.55-2.986-6.66-9.206c0.468-9.446,5.582-14.285,11.282-14.938
			c2.939-0.146,5.189,0.626,7.669,2.733c-0.849,3.384-1.598,6.311-2.459,9.649c-1.572-1.472-3.104-2.439-5.13-2.328
			c-0.829,0.097-1.886,0.551-1.979,2.155c0.053,1.453,1.082,1.481,1.802,1.657c0.694,0.176,1.342,0.326,2.03,0.496
			c3.872,1.043,6.208,3.373,6.3,9.701c-0.419,8.874-5.208,12.976-10.788,14.028c-3.364,0.424-6.807-0.186-9.929-1.827
			C480.703,443.733,481.641,440.48,482.702,436.686"/>
	</g>
	<g>
		<defs>
			<rect id="SVGID_25_" x="35.109" y="190.5" width="556.391" height="414.643"/>
		</defs>
		<clipPath id="SVGID_26_">
			<use xlink:href="#SVGID_25_"  overflow="visible"/>
		</clipPath>
		<path clip-path="url(#SVGID_26_)" fill="#FFFFFF" d="M198.994,427.393c9.675-0.651,18.116-1.229,27.865-1.884
			c3.927,10.107,7.289,18.845,11.101,28.909c0.207-0.015,0.417-0.041,0.634-0.059c0.358-2.591,0.673-4.994,1.389-7.563
			c2.321-7.807,4.351-14.655,6.69-22.617c8.36-0.562,15.64-1.042,24.051-1.59c4.074,18.419,7.482,34.278,11.24,52.315
			c-7.506,1.033-13.997,1.912-21.431,2.916c-1.364-10.144-2.589-19.007-4.04-29.247c-0.144,0.004-0.282,0.022-0.428,0.037
			c-0.384,1.939-0.725,3.688-1.366,5.589c-3.009,8.988-5.619,16.71-8.595,25.547c-4.978,0.666-9.294,1.229-14.243,1.867
			c-3.53-7.917-6.637-14.771-10.255-22.645c-0.931-2.433-1.643-4.412-2.012-6.91c-0.291,0.03-0.569,0.052-0.862,0.083
			c-0.07,2.383-0.124,4.531-0.285,6.916c-0.603,8.565-1.123,15.957-1.727,24.459c-9.14,1.13-17.042,2.067-26.091,3.074
			C193.475,466.243,196.021,448.515,198.994,427.393"/>
	</g>
	<g>
		<defs>
			<rect id="SVGID_27_" x="35.109" y="190.5" width="556.391" height="414.643"/>
		</defs>
		<clipPath id="SVGID_28_">
			<use xlink:href="#SVGID_27_"  overflow="visible"/>
		</clipPath>
		<path clip-path="url(#SVGID_28_)" fill="#FFFFFF" d="M289.026,421.396c7.209-0.466,13.491-0.868,20.741-1.324
			c0.223,18.05,0.354,33.526,0.396,50.938c-7.084,0.979-13.223,1.827-20.253,2.795C289.696,455.836,289.425,439.947,289.026,421.396
			"/>
	</g>
	<g>
		<defs>
			<rect id="SVGID_29_" x="35.109" y="190.5" width="556.391" height="414.643"/>
		</defs>
		<clipPath id="SVGID_30_">
			<use xlink:href="#SVGID_29_"  overflow="visible"/>
		</clipPath>
		<path clip-path="url(#SVGID_30_)" fill="#FFFFFF" d="M319.125,419.488c6.536-0.411,12.222-0.763,18.785-1.172
			c0.018,11.8,0.011,21.968-0.037,33.485c4.968-0.557,9.715-1.09,14.677-1.649c-0.04,5.283-0.092,9.837-0.15,15.024
			c-11.599,1.599-21.611,2.989-33.064,4.567C319.346,452.578,319.28,437.301,319.125,419.488"/>
	</g>
	<g>
		<defs>
			<rect id="SVGID_31_" x="35.109" y="190.5" width="556.391" height="414.643"/>
		</defs>
		<clipPath id="SVGID_32_">
			<use xlink:href="#SVGID_31_"  overflow="visible"/>
		</clipPath>
		<path clip-path="url(#SVGID_32_)" fill="#FFFFFF" d="M357.966,417.102c5.538-0.333,10.831-0.646,16.359-0.975
			c-0.112,11.16-0.218,20.777-0.382,31.628c4.485-0.491,8.387-0.929,12.888-1.432c-0.089,4.987-0.167,9.284-0.271,14.164
			c-10.15,1.381-18.949,2.591-29.02,3.978C357.76,448.383,357.875,433.935,357.966,417.102"/>
	</g>
	<g>
		<defs>
			<rect id="SVGID_33_" x="35.109" y="190.5" width="556.391" height="414.643"/>
		</defs>
		<clipPath id="SVGID_34_">
			<use xlink:href="#SVGID_33_"  overflow="visible"/>
		</clipPath>
		<path clip-path="url(#SVGID_34_)" fill="#FFFFFF" d="M392.604,415.046c4.983-0.288,9.318-0.543,14.313-0.83
			c-0.273,15.544-0.522,28.896-0.863,43.612c-4.969,0.676-9.271,1.264-14.22,1.938C392.146,444.66,392.371,430.976,392.604,415.046"
			/>
	</g>
	<g>
		<defs>
			<rect id="SVGID_35_" x="35.109" y="190.5" width="556.391" height="414.643"/>
		</defs>
		<clipPath id="SVGID_36_">
			<use xlink:href="#SVGID_35_"  overflow="visible"/>
		</clipPath>
		<path clip-path="url(#SVGID_36_)" fill="#FFFFFF" d="M431.052,426.154c4.108-0.131,6.106,3.009,6.143,7.594
			c-0.271,4.919-2.617,7.978-6.511,8.593c-3.984,0.266-6.271-2.308-6.32-7.342C424.607,430.298,426.897,426.71,431.052,426.154
			 M431.348,412.121c-11.131,1.136-19.443,9.67-20.285,23.936c0.261,14.512,8.066,20.198,19.316,19.106
			c10.617-1.884,17.896-9.258,18.694-22.785C448.896,419.077,442.014,411.994,431.348,412.121"/>
	</g>
	<g>
		<defs>
			<rect id="SVGID_37_" x="35.109" y="190.5" width="556.391" height="414.643"/>
		</defs>
		<clipPath id="SVGID_38_">
			<use xlink:href="#SVGID_37_"  overflow="visible"/>
		</clipPath>
		<path clip-path="url(#SVGID_38_)" fill="#FFFFFF" d="M452.304,411.603c3.688-0.215,6.895-0.398,10.59-0.613
			c3.102,7.431,5.806,13.873,8.927,21.169c0.103-0.006,0.195-0.018,0.3-0.029c-0.356-3.322-0.688-6.333-0.636-9.806
			c0.095-4.111,0.172-7.696,0.268-11.838c3.337-0.194,6.251-0.367,9.586-0.563c-0.299,13.521-0.557,25.16-0.855,37.799
			c-3.355,0.458-6.275,0.856-9.632,1.313c-3.067-6.479-5.728-12.273-8.784-19.018c-0.111,0.016-0.21,0.024-0.313,0.032
			c0.3,2.816,0.528,5.088,0.479,7.782c-0.105,4.394-0.193,8.156-0.307,12.412c-3.685,0.501-6.886,0.936-10.562,1.438
			C451.712,438.23,451.981,425.924,452.304,411.603"/>
	</g>
	<g>
		<defs>
			<rect id="SVGID_39_" x="35.109" y="190.5" width="556.391" height="414.643"/>
		</defs>
		<clipPath id="SVGID_40_">
			<use xlink:href="#SVGID_39_"  overflow="visible"/>
		</clipPath>
		<path clip-path="url(#SVGID_40_)" fill="#FFFFFF" d="M486.182,433.783c0.176,0.182,0.622,0.434,0.796,0.622
			c1.749,1.72,3.525,2.854,5.762,2.677c0.943-0.134,2.271-0.725,2.388-2.426c-0.033-1.707-1.125-1.654-1.991-1.801
			c-0.629-0.097-1.218-0.191-1.846-0.287c-3.78-0.691-6.516-3.049-6.57-9.264c0.552-9.443,5.703-14.239,11.419-14.842
			c2.935-0.119,5.188,0.669,7.635,2.802c-0.866,3.372-1.65,6.301-2.536,9.634c-1.563-1.49-3.091-2.47-5.112-2.386
			c-0.829,0.091-1.895,0.539-1.993,2.149c0.033,1.449,1.063,1.488,1.786,1.672c0.688,0.17,1.341,0.331,2.024,0.505
			c3.859,1.082,6.173,3.428,6.197,9.758c-0.489,8.872-5.305,12.938-10.909,13.941c-3.372,0.395-7.302-0.413-10.41-2.094
			C483.938,440.771,485.071,437.567,486.182,433.783"/>
	</g>
	<g>
		<defs>
			<rect id="SVGID_41_" x="35.109" y="190.5" width="556.391" height="414.643"/>
		</defs>
		<clipPath id="SVGID_42_">
			<use xlink:href="#SVGID_41_"  overflow="visible"/>
		</clipPath>
		<path clip-path="url(#SVGID_42_)" fill="#929497" d="M206.545,295.455c15.707,2.204,29.479,4.143,45.4,6.37
			c6.673,22.556,12.262,41.08,18.497,61.952c0.333,0.007,0.649,0.014,0.975,0.014c0.479-5.016,0.896-9.687,1.923-14.583
			c3.319-14.82,6.212-27.911,9.572-43.071c12.553,1.736,23.475,3.234,36.054,4.955c6.071,35.201,11.073,65.497,16.516,100.091
			c-10.731,0.591-20.021,1.11-30.7,1.718c-2.121-19.405-4.065-36.464-6.403-56.354c-0.218-0.007-0.425-0.014-0.639-0.021
			c-0.534,3.642-1.002,6.946-1.918,10.436c-4.347,16.694-8.104,31.017-12.407,47.183c-7.579,0.445-14.151,0.85-21.689,1.304
			c-5.698-15.848-10.761-29.71-16.735-46.054c-1.558-5.071-2.768-9.237-3.461-14.418c-0.469-0.008-0.913-0.017-1.381-0.027
			c-0.006,4.855-0.015,9.204-0.188,13.986c-0.633,17.151-1.228,31.634-1.945,47.984c-14.896,0.942-27.772,1.775-42.503,2.752
			C199.426,380.104,202.851,343.465,206.545,295.455"/>
	</g>
	<g>
		<defs>
			<rect id="SVGID_43_" x="35.109" y="190.5" width="556.391" height="414.643"/>
		</defs>
		<clipPath id="SVGID_44_">
			<use xlink:href="#SVGID_43_"  overflow="visible"/>
		</clipPath>
		<path clip-path="url(#SVGID_44_)" fill="#929497" d="M337.985,313.669c18.12,2.446,33.843,4.55,51.813,6.919
			c-0.063,8.01-0.105,15.123-0.146,23.44c-7.665-0.557-14.342-1.038-22.031-1.586c0.01,2.969,0.031,5.801,0.045,8.767
			c7.015,0.366,13.115,0.689,20.126,1.057c-0.025,7.964-0.044,14.965-0.061,23.065c-6.954-0.057-12.999-0.095-19.949-0.132
			c0.008,3.077,0.022,6.004,0.035,9.076c7.812-0.082,14.604-0.148,22.415-0.218c-0.022,8.434-0.041,15.794-0.065,24.235
			c-17.681,0.905-32.998,1.708-50.556,2.667C339.177,377.208,338.624,347.318,337.985,313.669"/>
	</g>
	<g>
		<defs>
			<rect id="SVGID_45_" x="35.109" y="190.5" width="556.391" height="414.643"/>
		</defs>
		<clipPath id="SVGID_46_">
			<use xlink:href="#SVGID_45_"  overflow="visible"/>
		</clipPath>
		<path clip-path="url(#SVGID_46_)" fill="#929497" d="M457.027,359.248c-0.38,12.882-0.526,22.439-6.664,33.184
			c-6.173,9.685-14.153,14.55-23.253,15.317c-9.334,0.25-16.795-2.957-23.473-10.377c-6.503-7.958-10.2-18.039-10.385-32.746
			c0.309-14.986,4.047-24.76,10.78-32.098c6.918-6.784,14.683-9.169,24.465-8.091c10.271,1.706,21.715,8.459,26.181,21.958
			c-6.332,2.848-11.846,5.375-18.205,8.313c-1.658-4.228-4.212-6.218-7.687-6.581c-7.988-0.029-11.813,7.83-12.188,18.399
			c0.145,9.628,3.651,17.452,10.841,17.888c3.405-0.147,7.11-2.053,8.396-7.186c-3.244-0.021-6.065-0.03-9.302-0.054
			c0.085-6.814,0.162-12.696,0.247-19.355C437.359,358.31,446.524,358.751,457.027,359.248"/>
	</g>
	<g>
		<defs>
			<rect id="SVGID_47_" x="35.109" y="190.5" width="556.391" height="414.643"/>
		</defs>
		<clipPath id="SVGID_48_">
			<use xlink:href="#SVGID_47_"  overflow="visible"/>
		</clipPath>
		<path clip-path="url(#SVGID_48_)" fill="#929497" d="M477.892,376.823c1.151-7.826,2.161-14.517,3.343-21.955
			c0.201,0.014,0.385,0.025,0.586,0.034c0.234,3.122,0.446,5.966,0.863,9.173c0.559,4.396,1.055,8.281,1.632,12.805
			C482.138,376.859,480.064,376.839,477.892,376.823 M474.688,394.644c4.229-0.127,7.895-0.239,12.116-0.36
			c0.446,3.145,0.848,6.001,1.298,9.116c5.463-0.272,10.199-0.524,15.644-0.794c-4.816-25.672-8.868-47.668-13.242-69.047
			c-6.106-0.77-11.437-1.442-17.604-2.228c-6.422,23.042-11.922,46.904-18.178,73.724c6.452-0.323,12.061-0.598,18.502-0.921
			C473.737,400.826,474.17,397.948,474.688,394.644"/>
	</g>
	<g>
		<defs>
			<rect id="SVGID_49_" x="35.109" y="190.5" width="556.391" height="414.643"/>
		</defs>
		<clipPath id="SVGID_50_">
			<use xlink:href="#SVGID_49_"  overflow="visible"/>
		</clipPath>
		<path clip-path="url(#SVGID_50_)" fill="#FFFFFF" d="M209.744,292.276c15.707,2.209,29.479,4.146,45.401,6.373
			c6.678,22.56,12.266,41.077,18.501,61.954c0.328,0.007,0.644,0.01,0.973,0.017c0.478-5.023,0.886-9.695,1.925-14.589
			c3.314-14.817,6.205-27.903,9.57-43.073c12.55,1.744,23.478,3.237,36.047,4.957c6.084,35.206,11.077,65.504,16.513,100.095
			c-10.725,0.585-20.019,1.107-30.686,1.721c-2.129-19.41-4.072-36.467-6.413-56.355c-0.216-0.01-0.423-0.016-0.639-0.023
			c-0.532,3.643-1.002,6.943-1.918,10.44c-4.344,16.694-8.097,31.016-12.406,47.181c-7.579,0.442-14.147,0.847-21.69,1.306
			c-5.694-15.851-10.756-29.715-16.731-46.057c-1.566-5.076-2.773-9.239-3.465-14.416c-0.463-0.011-0.911-0.018-1.375-0.033
			c-0.012,4.863-0.019,9.204-0.191,13.991c-0.637,17.153-1.23,31.637-1.948,47.979c-14.896,0.945-27.765,1.782-42.505,2.755
			C202.621,376.93,206.05,340.291,209.744,292.276"/>
	</g>
	<g>
		<defs>
			<rect id="SVGID_51_" x="35.109" y="190.5" width="556.391" height="414.643"/>
		</defs>
		<clipPath id="SVGID_52_">
			<use xlink:href="#SVGID_51_"  overflow="visible"/>
		</clipPath>
		<path clip-path="url(#SVGID_52_)" fill="#FFFFFF" d="M341.178,310.496c18.126,2.443,33.845,4.553,51.813,6.915
			c-0.057,8.015-0.099,15.132-0.134,23.443c-7.668-0.555-14.353-1.038-22.036-1.587c0.008,2.968,0.026,5.802,0.042,8.766
			c7.016,0.372,13.114,0.692,20.129,1.07c-0.034,7.961-0.052,14.96-0.068,23.05c-6.945-0.049-12.994-0.085-19.943-0.128
			c0.012,3.08,0.029,6.01,0.033,9.074c7.813-0.076,14.607-0.142,22.424-0.216c-0.028,8.439-0.046,15.796-0.071,24.235
			c-17.67,0.907-33.002,1.709-50.558,2.663C342.371,374.032,341.825,344.142,341.178,310.496"/>
	</g>
	<g>
		<defs>
			<rect id="SVGID_53_" x="35.109" y="190.5" width="556.391" height="414.643"/>
		</defs>
		<clipPath id="SVGID_54_">
			<use xlink:href="#SVGID_53_"  overflow="visible"/>
		</clipPath>
		<path clip-path="url(#SVGID_54_)" fill="#FFFFFF" d="M460.221,356.075c-0.38,12.874-0.518,22.437-6.664,33.186
			c-6.162,9.686-14.146,14.543-23.246,15.308c-9.342,0.256-16.799-2.952-23.479-10.375c-6.498-7.953-10.2-18.031-10.381-32.741
			c0.312-14.991,4.056-24.764,10.775-32.096c6.927-6.79,14.685-9.173,24.47-8.089c10.274,1.704,21.718,8.458,26.185,21.952
			c-6.337,2.854-11.847,5.375-18.211,8.316c-1.651-4.224-4.204-6.223-7.684-6.584c-7.979-0.032-11.813,7.827-12.188,18.396
			c0.141,9.631,3.656,17.457,10.842,17.896c3.397-0.146,7.11-2.055,8.396-7.188c-3.238-0.022-6.062-0.031-9.311-0.059
			c0.089-6.811,0.164-12.696,0.261-19.351C440.555,355.14,449.718,355.574,460.221,356.075"/>
	</g>
	<g>
		<defs>
			<rect id="SVGID_55_" x="35.109" y="190.5" width="556.391" height="414.643"/>
		</defs>
		<clipPath id="SVGID_56_">
			<use xlink:href="#SVGID_55_"  overflow="visible"/>
		</clipPath>
		<path clip-path="url(#SVGID_56_)" fill="#FFFFFF" d="M481.09,373.65c1.15-7.826,2.167-14.52,3.34-21.958
			c0.199,0.012,0.389,0.022,0.586,0.035c0.236,3.127,0.447,5.964,0.859,9.172c0.571,4.395,1.057,8.287,1.634,12.802
			C485.339,373.683,483.26,373.667,481.09,373.65 M477.88,391.469c4.233-0.121,7.904-0.233,12.123-0.362
			c0.447,3.152,0.851,6.001,1.294,9.116c5.463-0.269,10.203-0.518,15.646-0.789c-4.822-25.674-8.864-47.668-13.235-69.044
			c-6.111-0.776-11.441-1.449-17.616-2.231c-6.416,23.041-11.918,46.909-18.173,73.722c6.454-0.32,12.061-0.593,18.507-0.921
			C476.929,397.65,477.373,394.775,477.88,391.469"/>
	</g>
	<g>
		<defs>
			<rect id="SVGID_57_" x="35.109" y="190.5" width="556.391" height="414.643"/>
		</defs>
		<clipPath id="SVGID_58_">
			<use xlink:href="#SVGID_57_"  overflow="visible"/>
		</clipPath>
		<path clip-path="url(#SVGID_58_)" fill="#E21B23" d="M210.85,291.144c15.712,2.212,29.485,4.152,45.405,6.376
			c6.675,22.563,12.263,41.081,18.498,61.956c0.331,0.005,0.641,0.012,0.969,0.012c0.482-5.017,0.893-9.688,1.928-14.584
			c3.312-14.822,6.213-27.903,9.571-43.073c12.552,1.741,23.471,3.244,36.053,4.955c6.064,35.202,11.07,65.507,16.505,100.095
			c-10.727,0.588-20.02,1.114-30.688,1.722c-2.124-19.408-4.067-36.46-6.411-56.358c-0.213-0.007-0.419-0.014-0.635-0.021
			c-0.534,3.647-1.002,6.947-1.922,10.436c-4.342,16.696-8.097,31.019-12.404,47.186c-7.577,0.448-14.147,0.845-21.692,1.305
			c-5.69-15.852-10.755-29.716-16.734-46.054c-1.553-5.08-2.768-9.239-3.456-14.417c-0.471-0.015-0.918-0.021-1.38-0.032
			c-0.011,4.859-0.021,9.203-0.189,13.988c-0.639,17.145-1.23,31.628-1.948,47.985c-14.895,0.943-27.767,1.782-42.505,2.754
			C203.731,375.799,207.158,339.161,210.85,291.144"/>
	</g>
	<g>
		<defs>
			<rect id="SVGID_59_" x="35.109" y="190.5" width="556.391" height="414.643"/>
		</defs>
		<clipPath id="SVGID_60_">
			<use xlink:href="#SVGID_59_"  overflow="visible"/>
		</clipPath>
		<path clip-path="url(#SVGID_60_)" fill="#E21B23" d="M342.289,309.366c18.127,2.445,33.844,4.548,51.813,6.915
			c-0.062,8.013-0.107,15.133-0.144,23.441c-7.675-0.552-14.343-1.034-22.031-1.582c0.015,2.967,0.028,5.799,0.04,8.762
			c7.02,0.366,13.119,0.695,20.128,1.069c-0.025,7.958-0.046,14.956-0.059,23.051c-6.954-0.047-13.004-0.083-19.954-0.125
			c0.011,3.077,0.033,6.008,0.044,9.075c7.812-0.08,14.595-0.147,22.409-0.216c-0.017,8.437-0.031,15.792-0.064,24.239
			c-17.675,0.901-33,1.708-50.558,2.66C343.48,372.901,342.924,343.011,342.289,309.366"/>
	</g>
	<g>
		<defs>
			<rect id="SVGID_61_" x="35.109" y="190.5" width="556.391" height="414.643"/>
		</defs>
		<clipPath id="SVGID_62_">
			<use xlink:href="#SVGID_61_"  overflow="visible"/>
		</clipPath>
		<path clip-path="url(#SVGID_62_)" fill="#E21B23" d="M461.327,354.947c-0.379,12.875-0.52,22.437-6.662,33.181
			c-6.165,9.685-14.15,14.557-23.245,15.319c-9.346,0.254-16.801-2.959-23.479-10.383c-6.506-7.956-10.201-18.033-10.378-32.739
			c0.302-14.993,4.041-24.766,10.769-32.103c6.929-6.786,14.686-9.167,24.471-8.086c10.269,1.705,21.724,8.454,26.183,21.955
			c-6.33,2.853-11.852,5.372-18.2,8.308c-1.663-4.217-4.217-6.214-7.695-6.575c-7.981-0.032-11.812,7.824-12.183,18.395
			c0.145,9.63,3.647,17.453,10.834,17.894c3.407-0.152,7.122-2.055,8.396-7.191c-3.238-0.021-6.061-0.03-9.305-0.055
			c0.09-6.812,0.169-12.693,0.259-19.352C441.658,354.011,450.828,354.448,461.327,354.947"/>
	</g>
	<g>
		<defs>
			<rect id="SVGID_63_" x="35.109" y="190.5" width="556.391" height="414.643"/>
		</defs>
		<clipPath id="SVGID_64_">
			<use xlink:href="#SVGID_63_"  overflow="visible"/>
		</clipPath>
		<path clip-path="url(#SVGID_64_)" fill="#E21B23" d="M482.192,372.518c1.148-7.824,2.165-14.514,3.342-21.955
			c0.203,0.01,0.385,0.023,0.589,0.034c0.233,3.132,0.45,5.969,0.865,9.17c0.56,4.4,1.051,8.286,1.629,12.806
			C486.446,372.555,484.364,372.537,482.192,372.518 M478.986,390.342c4.227-0.132,7.899-0.241,12.119-0.366
			c0.451,3.151,0.852,6.006,1.295,9.119c5.463-0.272,10.198-0.52,15.644-0.791c-4.815-25.676-8.867-47.667-13.239-69.048
			c-6.093-0.773-11.438-1.443-17.604-2.227c-6.415,23.039-11.926,46.903-18.187,73.727c6.457-0.321,12.068-0.599,18.511-0.919
			C478.035,396.524,478.479,393.65,478.986,390.342"/>
	</g>
	<g>
		<defs>
			<rect id="SVGID_65_" x="35.109" y="190.5" width="556.391" height="414.643"/>
		</defs>
		<clipPath id="SVGID_66_">
			<use xlink:href="#SVGID_65_"  overflow="visible"/>
		</clipPath>
		<path clip-path="url(#SVGID_66_)" fill="#0065A3" d="M200.583,425.385c9.673-0.65,18.111-1.23,27.86-1.891
			c3.927,10.104,7.292,18.848,11.098,28.916c0.214-0.021,0.418-0.044,0.636-0.064c0.354-2.59,0.672-4.996,1.391-7.559
			c2.32-7.811,4.349-14.656,6.688-22.619c8.358-0.564,15.644-1.042,24.057-1.596c4.073,18.424,7.479,34.278,11.242,52.313
			c-7.512,1.032-14.001,1.925-21.439,2.922c-1.363-10.147-2.588-19.006-4.039-29.253c-0.144,0.017-0.282,0.033-0.424,0.042
			c-0.391,1.938-0.724,3.701-1.365,5.595c-3.015,8.985-5.625,16.714-8.596,25.551c-4.983,0.66-9.299,1.219-14.249,1.854
			c-3.526-7.915-6.637-14.768-10.256-22.636c-0.929-2.437-1.639-4.42-2.008-6.913c-0.292,0.021-0.568,0.057-0.86,0.079
			c-0.072,2.386-0.124,4.527-0.292,6.916c-0.599,8.568-1.125,15.966-1.719,24.466c-9.145,1.127-17.046,2.063-26.094,3.066
			C195.06,464.229,197.608,446.502,200.583,425.385"/>
	</g>
	<g>
		<defs>
			<rect id="SVGID_67_" x="35.109" y="190.5" width="556.391" height="414.643"/>
		</defs>
		<clipPath id="SVGID_68_">
			<use xlink:href="#SVGID_67_"  overflow="visible"/>
		</clipPath>
		<path clip-path="url(#SVGID_68_)" fill="#0065A3" d="M290.612,419.386c7.205-0.464,13.494-0.864,20.736-1.324
			c0.23,18.049,0.362,33.52,0.41,50.938c-7.096,0.98-13.231,1.825-20.26,2.8C291.285,453.823,291.007,437.932,290.612,419.386"/>
	</g>
	<g>
		<defs>
			<rect id="SVGID_69_" x="35.109" y="190.5" width="556.391" height="414.643"/>
		</defs>
		<clipPath id="SVGID_70_">
			<use xlink:href="#SVGID_69_"  overflow="visible"/>
		</clipPath>
		<path clip-path="url(#SVGID_70_)" fill="#0065A3" d="M320.713,417.471c6.526-0.405,12.227-0.757,18.781-1.16
			c0.012,11.803,0.008,21.966-0.037,33.479c4.969-0.552,9.723-1.089,14.683-1.653c-0.047,5.286-0.098,9.837-0.158,15.031
			c-11.589,1.604-21.612,2.984-33.06,4.573C320.935,450.568,320.861,435.292,320.713,417.471"/>
	</g>
	<g>
		<defs>
			<rect id="SVGID_71_" x="35.109" y="190.5" width="556.391" height="414.643"/>
		</defs>
		<clipPath id="SVGID_72_">
			<use xlink:href="#SVGID_71_"  overflow="visible"/>
		</clipPath>
		<path clip-path="url(#SVGID_72_)" fill="#0065A3" d="M359.559,415.087c5.533-0.329,10.822-0.646,16.359-0.979
			c-0.115,11.17-0.23,20.78-0.389,31.635c4.487-0.496,8.391-0.934,12.888-1.433c-0.085,4.988-0.172,9.288-0.268,14.161
			c-10.15,1.39-18.947,2.593-29.019,3.985C359.345,446.373,359.465,431.921,359.559,415.087"/>
	</g>
	<g>
		<defs>
			<rect id="SVGID_73_" x="35.109" y="190.5" width="556.391" height="414.643"/>
		</defs>
		<clipPath id="SVGID_74_">
			<use xlink:href="#SVGID_73_"  overflow="visible"/>
		</clipPath>
		<path clip-path="url(#SVGID_74_)" fill="#0065A3" d="M394.19,413.033c4.984-0.29,9.322-0.541,14.307-0.834
			c-0.273,15.541-0.523,28.907-0.867,43.623c-4.955,0.67-9.265,1.259-14.214,1.931C393.729,442.644,393.952,428.965,394.19,413.033"
			/>
	</g>
	<g>
		<defs>
			<rect id="SVGID_75_" x="35.109" y="190.5" width="556.391" height="414.643"/>
		</defs>
		<clipPath id="SVGID_76_">
			<use xlink:href="#SVGID_75_"  overflow="visible"/>
		</clipPath>
		<path clip-path="url(#SVGID_76_)" fill="#0065A3" d="M432.636,424.14c4.115-0.115,6.102,3.01,6.143,7.592
			c-0.269,4.922-2.612,7.979-6.507,8.597c-3.996,0.265-6.273-2.311-6.325-7.344C426.197,428.279,428.479,424.703,432.636,424.14
			 M432.939,410.111c-11.138,1.138-19.447,9.664-20.289,23.936c0.251,14.51,8.059,20.192,19.313,19.1
			c10.613-1.879,17.896-9.253,18.691-22.786C450.483,417.064,443.601,409.983,432.939,410.111"/>
	</g>
	<g>
		<defs>
			<rect id="SVGID_77_" x="35.109" y="190.5" width="556.391" height="414.643"/>
		</defs>
		<clipPath id="SVGID_78_">
			<use xlink:href="#SVGID_77_"  overflow="visible"/>
		</clipPath>
		<path clip-path="url(#SVGID_78_)" fill="#0065A3" d="M453.895,409.591c3.688-0.217,6.894-0.405,10.583-0.615
			c3.104,7.433,5.812,13.872,8.927,21.174c0.104-0.011,0.197-0.022,0.303-0.031c-0.354-3.325-0.694-6.33-0.636-9.813
			c0.09-4.102,0.167-7.69,0.271-11.834c3.336-0.191,6.24-0.364,9.58-0.555c-0.297,13.517-0.549,25.154-0.859,37.797
			c-3.354,0.456-6.27,0.85-9.629,1.311c-3.064-6.475-5.729-12.271-8.778-19.012c-0.11,0.012-0.214,0.02-0.316,0.027
			c0.299,2.81,0.529,5.086,0.483,7.78c-0.107,4.392-0.198,8.152-0.31,12.413c-3.681,0.499-6.878,0.934-10.565,1.435
			C453.294,436.219,453.57,423.909,453.895,409.591"/>
	</g>
	<g>
		<defs>
			<rect id="SVGID_79_" x="35.109" y="190.5" width="556.391" height="414.643"/>
		</defs>
		<clipPath id="SVGID_80_">
			<use xlink:href="#SVGID_79_"  overflow="visible"/>
		</clipPath>
		<path clip-path="url(#SVGID_80_)" fill="#0065A3" d="M488.092,431.902c0.181,0.183,0.292,0.296,0.468,0.48
			c1.755,1.729,3.536,2.868,5.767,2.694c0.941-0.143,2.264-0.733,2.387-2.437c-0.032-1.711-1.118-1.655-1.991-1.804
			c-0.621-0.093-1.228-0.189-1.839-0.282c-3.785-0.691-6.518-3.046-6.578-9.26c0.555-9.445,5.707-14.236,11.412-14.847
			c2.948-0.119,5.19,0.677,7.649,2.798c-0.88,3.379-1.651,6.3-2.542,9.633c-1.571-1.484-3.086-2.466-5.112-2.378
			c-0.83,0.088-1.893,0.54-1.998,2.148c0.039,1.447,1.063,1.484,1.784,1.67c0.685,0.173,1.344,0.337,2.021,0.505
			c3.86,1.087,6.179,3.437,6.218,9.76c-0.504,8.875-5.322,12.933-10.919,13.939c-3.377,0.397-6.809-0.244-9.907-1.923
			C486.02,438.927,486.985,435.691,488.092,431.902"/>
	</g>
	<g>
		<defs>
			<rect id="SVGID_81_" x="35.109" y="190.5" width="556.391" height="414.643"/>
		</defs>
		<clipPath id="SVGID_82_">
			<use xlink:href="#SVGID_81_"  overflow="visible"/>
		</clipPath>
		<rect x="421.665" y="422.548" clip-path="url(#SVGID_82_)" fill="#0065A3" width="18.437" height="19.396"/>
	</g>
	<g>
		<defs>
			<rect id="SVGID_83_" x="35.109" y="190.5" width="556.391" height="414.643"/>
		</defs>
		<clipPath id="SVGID_84_">
			<use xlink:href="#SVGID_83_"  overflow="visible"/>
		</clipPath>
		<path clip-path="url(#SVGID_84_)" fill="#EDB111" d="M150.448,293.166c0,0-27.731-17.206-51.628-13.325
			c-22.246,3.61-28.086,15.158-28.747,27.791c0,0-1.988,12.216,6.137,30.012c0,0-7.27-24.303,1.709-30.812
			c10.446-7.577,24.576-1.849,27.364-0.438c11.97,6.078,19.941,15.476,21.699,17.381
			C129.382,311.405,141.509,296.657,150.448,293.166"/>
	</g>
	<g>
		<defs>
			<rect id="SVGID_85_" x="35.109" y="190.5" width="556.391" height="414.643"/>
		</defs>
		<clipPath id="SVGID_86_">
			<use xlink:href="#SVGID_85_"  overflow="visible"/>
		</clipPath>
		<path clip-path="url(#SVGID_86_)" fill="#E21B23" d="M82.359,312.061c-3.713,25.792-5.715,43.96,26.583,87.724
			C83.85,372.727,59.558,331.087,82.359,312.061"/>
	</g>
	<g>
		<defs>
			<rect id="SVGID_87_" x="35.109" y="190.5" width="556.391" height="414.643"/>
		</defs>
		<clipPath id="SVGID_88_">
			<use xlink:href="#SVGID_87_"  overflow="visible"/>
		</clipPath>
		<path clip-path="url(#SVGID_88_)" fill="#EDB111" d="M166.65,400.814c0,0,51.474,9.356,68.746-27.116
			c0,0-3.559,25.448-26.47,32.122C186.012,412.491,167.834,401.232,166.65,400.814"/>
	</g>
	<g>
		<defs>
			<rect id="SVGID_89_" x="35.109" y="190.5" width="556.391" height="414.643"/>
		</defs>
		<clipPath id="SVGID_90_">
			<use xlink:href="#SVGID_89_"  overflow="visible"/>
		</clipPath>
		<path clip-path="url(#SVGID_90_)" fill="#EDB111" d="M163.895,287.362c-12.79-6.616-37.682-14.993-58.684-14.278
			c-18.603,0.636-33.928,6.929-40.433,23.09c-6.509,16.166-6.401,62.813,27.224,97.311c31.044,31.857,62.191,42.97,94.379,51.96
			c-33.79-16.225-71.134-48.395-84.545-69.563c-10.95-17.282-17.723-42.49-12.403-65.297c4.771,1.038,9.518,2.572,14.97,5.368
			c6.919,3.76,15.821,10.471,21.206,22.12c-0.264-2.724-0.031-4.759,0.083-5.506c-2.27-3.236-12.302-20.587-37.744-24.675
			c-5.71,13.869-2.344,40.05,5.039,57.308c11.044,25.809,48.796,57.608,70.405,70.36c-33.927-12.043-67.099-34.313-85.39-65.118
			c-11.581-19.504-13.685-43.066-13.863-53.732c-0.34-20.66,8.082-35.017,28.217-39.485c20.568-4.564,46.378,1.789,68.173,11.25
			C161.8,287.88,162.547,287.582,163.895,287.362"/>
	</g>
	<g>
		<defs>
			<rect id="SVGID_91_" x="35.109" y="190.5" width="556.391" height="414.643"/>
		</defs>
		<clipPath id="SVGID_92_">
			<use xlink:href="#SVGID_91_"  overflow="visible"/>
		</clipPath>
		<path clip-path="url(#SVGID_92_)" fill="#E21B23" d="M119.705,364.317c0,0-9.193-40.205,2.941-61.738
			C113.153,317.678,105.361,342.229,119.705,364.317"/>
	</g>
	<g>
		<defs>
			<rect id="SVGID_93_" x="35.109" y="190.5" width="556.391" height="414.643"/>
		</defs>
		<clipPath id="SVGID_94_">
			<use xlink:href="#SVGID_93_"  overflow="visible"/>
		</clipPath>
		<polygon clip-path="url(#SVGID_94_)" fill="#FFFFFF" points="430.696,427.594 433.88,416.771 437.443,427.065 446.52,426.326 
			439.511,433.039 442.648,442.358 434.563,437.667 425.084,446.661 428.671,434.454 418.213,428.493 		"/>
	</g>
	<g>
		<defs>
			<rect id="SVGID_95_" x="35.109" y="190.5" width="556.391" height="414.643"/>
		</defs>
		<clipPath id="SVGID_96_">
			<use xlink:href="#SVGID_95_"  overflow="visible"/>
		</clipPath>
		<polygon clip-path="url(#SVGID_96_)" fill="#929497" points="291.736,523.623 284.67,525.076 284.808,502.467 276.396,526.875 
			273.529,527.465 269.81,505.278 265.273,529.065 258.339,530.493 266.875,487.854 273.743,486.904 276.913,507.78 
			284.465,485.417 291.331,484.469 		"/>
	</g>
	<g>
		<defs>
			<rect id="SVGID_97_" x="35.109" y="190.5" width="556.391" height="414.643"/>
		</defs>
		<clipPath id="SVGID_98_">
			<use xlink:href="#SVGID_97_"  overflow="visible"/>
		</clipPath>
		<polygon clip-path="url(#SVGID_98_)" fill="none" stroke="#929497" stroke-width="3.856" points="291.736,523.623 284.67,525.076 
			284.808,502.467 276.396,526.875 273.529,527.465 269.81,505.278 265.273,529.065 258.339,530.493 266.875,487.854 
			273.743,486.904 276.913,507.78 284.465,485.417 291.331,484.469 		"/>
	</g>
	<g>
		<defs>
			<rect id="SVGID_99_" x="35.109" y="190.5" width="556.391" height="414.643"/>
		</defs>
		<clipPath id="SVGID_100_">
			<use xlink:href="#SVGID_99_"  overflow="visible"/>
		</clipPath>
		<polygon clip-path="url(#SVGID_100_)" fill="#929497" points="312.343,489.854 304.136,491.113 303.576,497.789 311.221,496.529 
			310.538,504.929 302.927,506.295 302.358,513.07 310.462,511.52 309.782,519.909 294.65,523.021 298.044,483.539 313.023,481.463 
					"/>
	</g>
	<g>
		<defs>
			<rect id="SVGID_101_" x="35.109" y="190.5" width="556.391" height="414.643"/>
		</defs>
		<clipPath id="SVGID_102_">
			<use xlink:href="#SVGID_101_"  overflow="visible"/>
		</clipPath>
		<polygon clip-path="url(#SVGID_102_)" fill="none" stroke="#929497" stroke-width="3.856" points="312.343,489.854 
			304.136,491.113 303.576,497.789 311.221,496.529 310.538,504.929 302.927,506.295 302.358,513.07 310.462,511.52 
			309.782,519.909 294.65,523.021 298.044,483.539 313.023,481.463 		"/>
	</g>
	<g>
		<defs>
			<rect id="SVGID_103_" x="35.109" y="190.5" width="556.391" height="414.643"/>
		</defs>
		<clipPath id="SVGID_104_">
			<use xlink:href="#SVGID_103_"  overflow="visible"/>
		</clipPath>
		<path clip-path="url(#SVGID_104_)" fill="#929497" d="M342.441,497.091c-0.354,5.136-1.984,9.643-4.896,13.535
			c-2.805,3.771-6.097,6.108-9.87,6.99c-3.831,0.9-6.984-0.283-9.434-3.591c-2.446-3.346-3.488-7.771-3.136-13.248
			c0.354-5.601,2.083-10.688,5.158-15.22c3.07-4.488,6.513-6.939,10.342-7.382c5.396-0.618,9.098,2.221,11.125,8.478l-6.59,4.848
			c-0.703-3.418-2.428-5.034-5.167-4.837c-2.032,0.144-3.803,1.66-5.323,4.555c-1.316,2.564-2.099,5.356-2.33,8.365
			c-0.237,3.112,0.173,5.647,1.245,7.592c1.168,2.083,2.834,2.905,5.006,2.482c1.286-0.25,2.438-0.914,3.464-1.995
			c1.133-1.198,1.848-2.663,2.151-4.402l0.186-1.083l-5.626,1.027l0.554-7.416l13.388-2.264L342.441,497.091z"/>
	</g>
	<g>
		<defs>
			<rect id="SVGID_105_" x="35.109" y="190.5" width="556.391" height="414.643"/>
		</defs>
		<clipPath id="SVGID_106_">
			<use xlink:href="#SVGID_105_"  overflow="visible"/>
		</clipPath>
		<path clip-path="url(#SVGID_106_)" fill="none" stroke="#929497" stroke-width="3.856" d="M342.441,497.091
			c-0.354,5.136-1.984,9.643-4.896,13.535c-2.805,3.771-6.097,6.108-9.87,6.99c-3.831,0.9-6.984-0.283-9.434-3.591
			c-2.446-3.346-3.488-7.771-3.136-13.248c0.354-5.601,2.083-10.688,5.158-15.22c3.07-4.488,6.513-6.939,10.342-7.382
			c5.396-0.618,9.098,2.221,11.125,8.478l-6.59,4.848c-0.703-3.418-2.428-5.034-5.167-4.837c-2.032,0.144-3.803,1.66-5.323,4.555
			c-1.316,2.564-2.099,5.356-2.33,8.365c-0.237,3.112,0.173,5.647,1.245,7.592c1.168,2.083,2.834,2.905,5.006,2.482
			c1.286-0.25,2.438-0.914,3.464-1.995c1.133-1.198,1.848-2.663,2.151-4.402l0.186-1.083l-5.626,1.027l0.554-7.416l13.388-2.264
			L342.441,497.091z"/>
	</g>
	<g>
		<defs>
			<rect id="SVGID_107_" x="35.109" y="190.5" width="556.391" height="414.643"/>
		</defs>
		<clipPath id="SVGID_108_">
			<use xlink:href="#SVGID_107_"  overflow="visible"/>
		</clipPath>
		<path clip-path="url(#SVGID_108_)" fill="#929497" d="M371.732,507.164l-7.357,1.517l-1.432-5.641l-9.415,1.829l-2.261,6.507
			l-7.332,1.507l12.457-37.426l7.499-1.04L371.732,507.164z M361.563,496.56l-2.13-10.542l-3.56,11.574L361.563,496.56z"/>
	</g>
	<g>
		<defs>
			<rect id="SVGID_109_" x="35.109" y="190.5" width="556.391" height="414.643"/>
		</defs>
		<clipPath id="SVGID_110_">
			<use xlink:href="#SVGID_109_"  overflow="visible"/>
		</clipPath>
		<path clip-path="url(#SVGID_110_)" fill="none" stroke="#929497" stroke-width="3.856" d="M371.732,507.164l-7.357,1.517
			l-1.432-5.641l-9.415,1.829l-2.261,6.507l-7.332,1.507l12.457-37.426l7.499-1.04L371.732,507.164z M361.563,496.56l-2.13-10.542
			l-3.56,11.574L361.563,496.56z"/>
	</g>
	<g>
		<defs>
			<rect id="SVGID_111_" x="35.109" y="190.5" width="556.391" height="414.643"/>
		</defs>
		<clipPath id="SVGID_112_">
			<use xlink:href="#SVGID_111_"  overflow="visible"/>
		</clipPath>
		<path clip-path="url(#SVGID_112_)" fill="#929497" d="M396.734,480.502c-0.043,2.918-0.818,5.58-2.328,7.994
			c-1.562,2.523-3.455,4.002-5.68,4.41l-5.826,1.071l-0.568,11.008l-7.043,1.447l1.855-33.852l11.224-1.555
			c2.396-0.332,4.397,0.4,6.004,2.186C395.985,474.983,396.77,477.41,396.734,480.502 M389.563,481.644
			c-0.004-1.19-0.327-2.063-0.984-2.611c-0.566-0.494-1.319-0.67-2.254-0.526l-2.648,0.406l-0.413,8.032l2.989-0.51
			c0.954-0.161,1.75-0.671,2.377-1.521C389.26,484.067,389.568,482.981,389.563,481.644"/>
	</g>
	<g>
		<defs>
			<rect id="SVGID_113_" x="35.109" y="190.5" width="556.391" height="414.643"/>
		</defs>
		<clipPath id="SVGID_114_">
			<use xlink:href="#SVGID_113_"  overflow="visible"/>
		</clipPath>
		<path clip-path="url(#SVGID_114_)" fill="none" stroke="#929497" stroke-width="3.856" d="M396.734,480.502
			c-0.043,2.918-0.818,5.58-2.328,7.994c-1.562,2.523-3.455,4.002-5.68,4.41l-5.826,1.071l-0.568,11.008l-7.043,1.447l1.855-33.852
			l11.224-1.555c2.396-0.332,4.397,0.4,6.004,2.186C395.985,474.983,396.77,477.41,396.734,480.502z M389.563,481.644
			c-0.004-1.19-0.327-2.063-0.984-2.611c-0.566-0.494-1.319-0.67-2.254-0.526l-2.648,0.406l-0.413,8.032l2.989-0.51
			c0.954-0.161,1.75-0.671,2.377-1.521C389.26,484.067,389.568,482.981,389.563,481.644z"/>
	</g>
	<g>
		<defs>
			<rect id="SVGID_115_" x="35.109" y="190.5" width="556.391" height="414.643"/>
		</defs>
		<clipPath id="SVGID_116_">
			<use xlink:href="#SVGID_115_"  overflow="visible"/>
		</clipPath>
		<polygon clip-path="url(#SVGID_116_)" fill="#929497" points="414.486,498.37 399.285,501.497 400.682,469.322 407.548,468.371 
			406.558,493.141 414.729,491.577 		"/>
	</g>
	<g>
		<defs>
			<rect id="SVGID_117_" x="35.109" y="190.5" width="556.391" height="414.643"/>
		</defs>
		<clipPath id="SVGID_118_">
			<use xlink:href="#SVGID_117_"  overflow="visible"/>
		</clipPath>
		<polygon clip-path="url(#SVGID_118_)" fill="none" stroke="#929497" stroke-width="3.856" points="414.486,498.37 
			399.285,501.497 400.682,469.322 407.548,468.371 406.558,493.141 414.729,491.577 		"/>
	</g>
	<g>
		<defs>
			<rect id="SVGID_119_" x="35.109" y="190.5" width="556.391" height="414.643"/>
		</defs>
		<clipPath id="SVGID_120_">
			<use xlink:href="#SVGID_119_"  overflow="visible"/>
		</clipPath>
		<polygon clip-path="url(#SVGID_120_)" fill="#929497" points="425.953,496.013 418.885,497.466 419.906,466.659 426.837,465.699 
					"/>
	</g>
	<g>
		<defs>
			<rect id="SVGID_121_" x="35.109" y="190.5" width="556.391" height="414.643"/>
		</defs>
		<clipPath id="SVGID_122_">
			<use xlink:href="#SVGID_121_"  overflow="visible"/>
		</clipPath>
		<polygon clip-path="url(#SVGID_122_)" fill="none" stroke="#929497" stroke-width="3.856" points="425.953,496.013 
			418.885,497.466 419.906,466.659 426.837,465.699 		"/>
	</g>
	<g>
		<defs>
			<rect id="SVGID_123_" x="35.109" y="190.5" width="556.391" height="414.643"/>
		</defs>
		<clipPath id="SVGID_124_">
			<use xlink:href="#SVGID_123_"  overflow="visible"/>
		</clipPath>
		<polygon clip-path="url(#SVGID_124_)" fill="#929497" points="446.342,469.299 438.137,470.558 438.021,475.606 445.662,474.344 
			445.554,480.669 437.943,482.037 437.828,487.159 445.928,485.61 445.813,491.925 430.684,495.038 431.482,465.057 
			446.456,462.983 		"/>
	</g>
	<g>
		<defs>
			<rect id="SVGID_125_" x="35.109" y="190.5" width="556.391" height="414.643"/>
		</defs>
		<clipPath id="SVGID_126_">
			<use xlink:href="#SVGID_125_"  overflow="visible"/>
		</clipPath>
		<polygon clip-path="url(#SVGID_126_)" fill="none" stroke="#929497" stroke-width="3.856" points="446.342,469.299 
			438.137,470.558 438.021,475.606 445.662,474.344 445.554,480.669 437.943,482.037 437.828,487.159 445.928,485.61 
			445.813,491.925 430.684,495.038 431.482,465.057 446.456,462.983 		"/>
	</g>
	<g>
		<defs>
			<rect id="SVGID_127_" x="35.109" y="190.5" width="556.391" height="414.643"/>
		</defs>
		<clipPath id="SVGID_128_">
			<use xlink:href="#SVGID_127_"  overflow="visible"/>
		</clipPath>
		<path clip-path="url(#SVGID_128_)" fill="#929497" d="M472.348,486.466l-8.599,1.77l-6.49-9.461l-0.109,10.82l-6.863,1.411
			l0.42-28.61l9.61-1.331c2.675-0.37,4.823-0.063,6.445,0.924c1.89,1.115,2.938,3.09,3.151,5.926
			c0.013,0.238,0.022,0.469,0.022,0.694c-0.004,1.801-0.541,3.438-1.61,4.917c-1.023,1.384-2.413,2.513-4.18,3.391L472.348,486.466z
			 M462.938,469.754c0.007-0.917-0.305-1.668-0.927-2.251c-0.624-0.588-1.351-0.817-2.181-0.69l-2.339,0.356l-0.073,6.816
			l2.572-0.435c0.809-0.214,1.496-0.685,2.076-1.422C462.641,471.403,462.935,470.611,462.938,469.754"/>
	</g>
	<g>
		<defs>
			<rect id="SVGID_129_" x="35.109" y="190.5" width="556.391" height="414.643"/>
		</defs>
		<clipPath id="SVGID_130_">
			<use xlink:href="#SVGID_129_"  overflow="visible"/>
		</clipPath>
		<path clip-path="url(#SVGID_130_)" fill="none" stroke="#929497" stroke-width="3.856" d="M472.348,486.466l-8.599,1.77
			l-6.49-9.461l-0.109,10.82l-6.863,1.411l0.42-28.61l9.61-1.331c2.675-0.37,4.823-0.063,6.445,0.924
			c1.89,1.115,2.938,3.09,3.151,5.926c0.013,0.238,0.022,0.469,0.022,0.694c-0.004,1.801-0.541,3.438-1.61,4.917
			c-1.023,1.384-2.413,2.513-4.18,3.391L472.348,486.466z M462.938,469.754c0.007-0.917-0.305-1.668-0.927-2.251
			c-0.624-0.588-1.351-0.817-2.181-0.69l-2.339,0.356l-0.073,6.816l2.572-0.435c0.809-0.214,1.496-0.685,2.076-1.422
			C462.641,471.403,462.935,470.611,462.938,469.754z"/>
	</g>
	<g>
		<defs>
			<rect id="SVGID_131_" x="35.109" y="190.5" width="556.391" height="414.643"/>
		</defs>
		<clipPath id="SVGID_132_">
			<use xlink:href="#SVGID_131_"  overflow="visible"/>
		</clipPath>
		<polygon clip-path="url(#SVGID_132_)" fill="#929497" points="220.2,509.063 222.688,503.51 224.77,503.242 227.256,508.048 
			229.747,502.601 233.621,502.1 228.455,512.198 226.179,512.552 223.73,507.699 221.282,513.317 219.005,513.672 213.837,504.649 
			217.733,504.149 		"/>
	</g>
	<g>
		<defs>
			<rect id="SVGID_133_" x="35.109" y="190.5" width="556.391" height="414.643"/>
		</defs>
		<clipPath id="SVGID_134_">
			<use xlink:href="#SVGID_133_"  overflow="visible"/>
		</clipPath>
		<polygon clip-path="url(#SVGID_134_)" fill="none" stroke="#929497" stroke-width="3.856" points="220.2,509.063 222.688,503.51 
			224.77,503.242 227.256,508.048 229.747,502.601 233.621,502.1 228.455,512.198 226.179,512.552 223.73,507.699 221.282,513.317 
			219.005,513.672 213.837,504.649 217.733,504.149 		"/>
	</g>
	<g>
		<defs>
			<rect id="SVGID_135_" x="35.109" y="190.5" width="556.391" height="414.643"/>
		</defs>
		<clipPath id="SVGID_136_">
			<use xlink:href="#SVGID_135_"  overflow="visible"/>
		</clipPath>
		<path clip-path="url(#SVGID_136_)" fill="#929497" d="M237.729,498.042c0,1.001-0.891,1.936-1.97,2.07
			c-1.08,0.133-1.964-0.591-1.964-1.604c0-1.016,0.885-1.948,1.964-2.069C236.838,496.317,237.729,497.039,237.729,498.042
			 M237.517,510.785l-3.508,0.546v-9.282l3.508-0.451V510.785z"/>
	</g>
	<g>
		<defs>
			<rect id="SVGID_137_" x="35.109" y="190.5" width="556.391" height="414.643"/>
		</defs>
		<clipPath id="SVGID_138_">
			<use xlink:href="#SVGID_137_"  overflow="visible"/>
		</clipPath>
		<path clip-path="url(#SVGID_138_)" fill="none" stroke="#929497" stroke-width="3.856" d="M237.729,498.042
			c0,1.001-0.891,1.936-1.97,2.07c-1.08,0.133-1.964-0.591-1.964-1.604c0-1.016,0.885-1.948,1.964-2.069
			C236.838,496.317,237.729,497.039,237.729,498.042z M237.517,510.785l-3.508,0.546v-9.282l3.508-0.451V510.785z"/>
	</g>
	<g>
		<defs>
			<rect id="SVGID_139_" x="35.109" y="190.5" width="556.391" height="414.643"/>
		</defs>
		<clipPath id="SVGID_140_">
			<use xlink:href="#SVGID_139_"  overflow="visible"/>
		</clipPath>
		<polygon clip-path="url(#SVGID_140_)" fill="#929497" points="243.184,509.9 239.673,510.448 239.673,503.987 238.537,504.141 
			238.537,501.467 239.673,501.319 239.673,498.576 243.184,498.152 243.184,500.865 245.17,500.61 245.17,503.232 243.184,503.507 
					"/>
	</g>
	<g>
		<defs>
			<rect id="SVGID_141_" x="35.109" y="190.5" width="556.391" height="414.643"/>
		</defs>
		<clipPath id="SVGID_142_">
			<use xlink:href="#SVGID_141_"  overflow="visible"/>
		</clipPath>
		<polygon clip-path="url(#SVGID_142_)" fill="none" stroke="#929497" stroke-width="3.856" points="243.184,509.9 239.673,510.448 
			239.673,503.987 238.537,504.141 238.537,501.467 239.673,501.319 239.673,498.576 243.184,498.152 243.184,500.865 
			245.17,500.61 245.17,503.232 243.184,503.507 		"/>
	</g>
	<g>
		<defs>
			<rect id="SVGID_143_" x="35.109" y="190.5" width="556.391" height="414.643"/>
		</defs>
		<clipPath id="SVGID_144_">
			<use xlink:href="#SVGID_143_"  overflow="visible"/>
		</clipPath>
		<path clip-path="url(#SVGID_144_)" fill="#929497" d="M249.318,494.592v6.604l0.035-0.004c0.812-1.075,1.794-1.646,3.164-1.82
			c2.506-0.321,3.719,0.979,3.719,3.177v5.314l-3.507,0.548v-4.499c0-1.026-0.172-2.066-1.581-1.875
			c-1.389,0.188-1.83,1.322-1.83,2.36v4.547l-3.511,0.547v-14.506L249.318,494.592z"/>
	</g>
	<g>
		<defs>
			<rect id="SVGID_145_" x="35.109" y="190.5" width="556.391" height="414.643"/>
		</defs>
		<clipPath id="SVGID_146_">
			<use xlink:href="#SVGID_145_"  overflow="visible"/>
		</clipPath>
		<path clip-path="url(#SVGID_146_)" fill="none" stroke="#929497" stroke-width="3.856" d="M249.318,494.592v6.604l0.035-0.004
			c0.812-1.075,1.794-1.646,3.164-1.82c2.506-0.321,3.719,0.979,3.719,3.177v5.314l-3.507,0.548v-4.499
			c0-1.026-0.172-2.066-1.581-1.875c-1.389,0.188-1.83,1.322-1.83,2.36v4.547l-3.511,0.547v-14.506L249.318,494.592z"/>
	</g>
	<g>
		<defs>
			<rect id="SVGID_147_" x="35.109" y="190.5" width="556.391" height="414.643"/>
		</defs>
		<clipPath id="SVGID_148_">
			<use xlink:href="#SVGID_147_"  overflow="visible"/>
		</clipPath>
		<polygon clip-path="url(#SVGID_148_)" fill="#FFFFFF" points="293.988,521.383 286.921,522.836 287.057,500.227 278.646,524.64 
			275.781,525.231 272.062,503.041 267.525,526.828 260.59,528.254 269.127,485.618 275.993,484.667 279.168,505.539 
			286.719,483.183 293.584,482.23 		"/>
	</g>
	<g>
		<defs>
			<rect id="SVGID_149_" x="35.109" y="190.5" width="556.391" height="414.643"/>
		</defs>
		<clipPath id="SVGID_150_">
			<use xlink:href="#SVGID_149_"  overflow="visible"/>
		</clipPath>
		<polygon clip-path="url(#SVGID_150_)" fill="none" stroke="#FFFFFF" stroke-width="2.892" points="293.988,521.383 
			286.921,522.836 287.057,500.227 278.646,524.64 275.781,525.231 272.062,503.041 267.525,526.828 260.59,528.254 
			269.127,485.618 275.993,484.667 279.168,505.539 286.719,483.183 293.584,482.23 		"/>
	</g>
	<g>
		<defs>
			<rect id="SVGID_151_" x="35.109" y="190.5" width="556.391" height="414.643"/>
		</defs>
		<clipPath id="SVGID_152_">
			<use xlink:href="#SVGID_151_"  overflow="visible"/>
		</clipPath>
		<polygon clip-path="url(#SVGID_152_)" fill="#FFFFFF" points="314.597,487.612 306.385,488.874 305.827,495.556 313.472,494.295 
			312.793,502.688 305.178,504.055 304.611,510.833 312.71,509.284 312.033,517.671 296.898,520.784 300.296,481.301 
			315.271,479.227 		"/>
	</g>
	<g>
		<defs>
			<rect id="SVGID_153_" x="35.109" y="190.5" width="556.391" height="414.643"/>
		</defs>
		<clipPath id="SVGID_154_">
			<use xlink:href="#SVGID_153_"  overflow="visible"/>
		</clipPath>
		<polygon clip-path="url(#SVGID_154_)" fill="none" stroke="#FFFFFF" stroke-width="2.892" points="314.597,487.612 
			306.385,488.874 305.827,495.556 313.472,494.295 312.793,502.688 305.178,504.055 304.611,510.833 312.71,509.284 
			312.033,517.671 296.898,520.784 300.296,481.301 315.271,479.227 		"/>
	</g>
	<g>
		<defs>
			<rect id="SVGID_155_" x="35.109" y="190.5" width="556.391" height="414.643"/>
		</defs>
		<clipPath id="SVGID_156_">
			<use xlink:href="#SVGID_155_"  overflow="visible"/>
		</clipPath>
		<path clip-path="url(#SVGID_156_)" fill="#FFFFFF" d="M344.692,494.854c-0.354,5.135-1.981,9.642-4.896,13.536
			c-2.807,3.771-6.096,6.104-9.871,6.987c-3.832,0.901-6.979-0.284-9.43-3.593c-2.443-3.344-3.481-7.771-3.135-13.247
			c0.354-5.602,2.077-10.689,5.159-15.218c3.064-4.489,6.509-6.94,10.34-7.382c5.395-0.615,9.098,2.219,11.127,8.476l-6.59,4.848
			c-0.704-3.418-2.429-5.035-5.168-4.838c-2.029,0.148-3.807,1.665-5.321,4.558c-1.325,2.563-2.102,5.354-2.332,8.362
			c-0.24,3.116,0.176,5.646,1.244,7.595c1.167,2.083,2.835,2.906,5.004,2.482c1.283-0.248,2.44-0.914,3.466-1.997
			c1.135-1.199,1.852-2.663,2.148-4.4l0.187-1.085l-5.629,1.026l0.554-7.412l13.392-2.265L344.692,494.854z"/>
	</g>
	<g>
		<defs>
			<rect id="SVGID_157_" x="35.109" y="190.5" width="556.391" height="414.643"/>
		</defs>
		<clipPath id="SVGID_158_">
			<use xlink:href="#SVGID_157_"  overflow="visible"/>
		</clipPath>
		<path clip-path="url(#SVGID_158_)" fill="none" stroke="#FFFFFF" stroke-width="2.892" d="M344.692,494.854
			c-0.354,5.135-1.981,9.642-4.896,13.536c-2.807,3.771-6.096,6.104-9.871,6.987c-3.832,0.901-6.979-0.284-9.43-3.593
			c-2.443-3.344-3.481-7.771-3.135-13.247c0.354-5.602,2.077-10.689,5.159-15.218c3.064-4.489,6.509-6.94,10.34-7.382
			c5.395-0.615,9.098,2.219,11.127,8.476l-6.59,4.848c-0.704-3.418-2.429-5.035-5.168-4.838c-2.029,0.148-3.807,1.665-5.321,4.558
			c-1.325,2.563-2.102,5.354-2.332,8.362c-0.24,3.116,0.176,5.646,1.244,7.595c1.167,2.083,2.835,2.906,5.004,2.482
			c1.283-0.248,2.44-0.914,3.466-1.997c1.135-1.199,1.852-2.663,2.148-4.4l0.187-1.085l-5.629,1.026l0.554-7.412l13.392-2.265
			L344.692,494.854z"/>
	</g>
	<g>
		<defs>
			<rect id="SVGID_159_" x="35.109" y="190.5" width="556.391" height="414.643"/>
		</defs>
		<clipPath id="SVGID_160_">
			<use xlink:href="#SVGID_159_"  overflow="visible"/>
		</clipPath>
		<path clip-path="url(#SVGID_160_)" fill="#FFFFFF" d="M373.983,504.926l-7.354,1.516l-1.437-5.639l-9.412,1.83l-2.265,6.503
			l-7.332,1.508l12.458-37.423l7.499-1.04L373.983,504.926z M363.815,494.319l-2.133-10.536l-3.56,11.565L363.815,494.319z"/>
	</g>
	<g>
		<defs>
			<rect id="SVGID_161_" x="35.109" y="190.5" width="556.391" height="414.643"/>
		</defs>
		<clipPath id="SVGID_162_">
			<use xlink:href="#SVGID_161_"  overflow="visible"/>
		</clipPath>
		<path clip-path="url(#SVGID_162_)" fill="none" stroke="#FFFFFF" stroke-width="2.892" d="M373.983,504.926l-7.354,1.516
			l-1.437-5.639l-9.412,1.83l-2.265,6.503l-7.332,1.508l12.458-37.423l7.499-1.04L373.983,504.926z M363.815,494.319l-2.133-10.536
			l-3.56,11.565L363.815,494.319z"/>
	</g>
	<g>
		<defs>
			<rect id="SVGID_163_" x="35.109" y="190.5" width="556.391" height="414.643"/>
		</defs>
		<clipPath id="SVGID_164_">
			<use xlink:href="#SVGID_163_"  overflow="visible"/>
		</clipPath>
		<path clip-path="url(#SVGID_164_)" fill="#FFFFFF" d="M398.984,478.264c-0.044,2.917-0.818,5.578-2.325,7.994
			c-1.563,2.525-3.456,3.997-5.681,4.405l-5.827,1.072l-0.568,11.011l-7.043,1.449l1.852-33.851l11.229-1.554
			c2.396-0.333,4.402,0.396,6.007,2.184C398.237,472.74,399.023,475.17,398.984,478.264 M391.815,479.405
			c0-1.192-0.329-2.064-0.982-2.614c-0.571-0.492-1.321-0.669-2.258-0.525l-2.648,0.406l-0.413,8.031l2.993-0.507
			c0.953-0.162,1.742-0.671,2.374-1.521C391.51,481.831,391.821,480.741,391.815,479.405"/>
	</g>
	<g>
		<defs>
			<rect id="SVGID_165_" x="35.109" y="190.5" width="556.391" height="414.643"/>
		</defs>
		<clipPath id="SVGID_166_">
			<use xlink:href="#SVGID_165_"  overflow="visible"/>
		</clipPath>
		<path clip-path="url(#SVGID_166_)" fill="none" stroke="#FFFFFF" stroke-width="2.892" d="M398.984,478.264
			c-0.044,2.917-0.818,5.578-2.325,7.994c-1.563,2.525-3.456,3.997-5.681,4.405l-5.827,1.072l-0.568,11.011l-7.043,1.449
			l1.852-33.851l11.229-1.554c2.396-0.333,4.402,0.396,6.007,2.184C398.237,472.74,399.023,475.17,398.984,478.264z
			 M391.815,479.405c0-1.192-0.329-2.064-0.982-2.614c-0.571-0.492-1.321-0.669-2.258-0.525l-2.648,0.406l-0.413,8.031l2.993-0.507
			c0.953-0.162,1.742-0.671,2.374-1.521C391.51,481.831,391.821,480.741,391.815,479.405z"/>
	</g>
	<g>
		<defs>
			<rect id="SVGID_167_" x="35.109" y="190.5" width="556.391" height="414.643"/>
		</defs>
		<clipPath id="SVGID_168_">
			<use xlink:href="#SVGID_167_"  overflow="visible"/>
		</clipPath>
		<polygon clip-path="url(#SVGID_168_)" fill="#FFFFFF" points="416.738,496.132 401.539,499.259 402.934,467.086 409.798,466.135 
			408.814,490.903 416.98,489.341 		"/>
	</g>
	<g>
		<defs>
			<rect id="SVGID_169_" x="35.109" y="190.5" width="556.391" height="414.643"/>
		</defs>
		<clipPath id="SVGID_170_">
			<use xlink:href="#SVGID_169_"  overflow="visible"/>
		</clipPath>
		<polygon clip-path="url(#SVGID_170_)" fill="none" stroke="#FFFFFF" stroke-width="2.892" points="416.738,496.132 
			401.539,499.259 402.934,467.086 409.798,466.135 408.814,490.903 416.98,489.341 		"/>
	</g>
	<g>
		<defs>
			<rect id="SVGID_171_" x="35.109" y="190.5" width="556.391" height="414.643"/>
		</defs>
		<clipPath id="SVGID_172_">
			<use xlink:href="#SVGID_171_"  overflow="visible"/>
		</clipPath>
		<polygon clip-path="url(#SVGID_172_)" fill="#FFFFFF" points="428.205,493.772 421.14,495.228 422.159,464.422 429.09,463.464 		
			"/>
	</g>
	<g>
		<defs>
			<rect id="SVGID_173_" x="35.109" y="190.5" width="556.391" height="414.643"/>
		</defs>
		<clipPath id="SVGID_174_">
			<use xlink:href="#SVGID_173_"  overflow="visible"/>
		</clipPath>
		<polygon clip-path="url(#SVGID_174_)" fill="none" stroke="#FFFFFF" stroke-width="2.892" points="428.205,493.772 
			421.14,495.228 422.159,464.422 429.09,463.464 		"/>
	</g>
	<g>
		<defs>
			<rect id="SVGID_175_" x="35.109" y="190.5" width="556.391" height="414.643"/>
		</defs>
		<clipPath id="SVGID_176_">
			<use xlink:href="#SVGID_175_"  overflow="visible"/>
		</clipPath>
		<polygon clip-path="url(#SVGID_176_)" fill="#FFFFFF" points="448.596,467.059 440.385,468.317 440.271,473.372 447.918,472.11 
			447.804,478.429 440.192,479.797 440.08,484.922 448.179,483.372 448.067,489.688 432.936,492.8 433.73,462.82 448.706,460.746 		
			"/>
	</g>
	<g>
		<defs>
			<rect id="SVGID_177_" x="35.109" y="190.5" width="556.391" height="414.643"/>
		</defs>
		<clipPath id="SVGID_178_">
			<use xlink:href="#SVGID_177_"  overflow="visible"/>
		</clipPath>
		<polygon clip-path="url(#SVGID_178_)" fill="none" stroke="#FFFFFF" stroke-width="2.892" points="448.596,467.059 
			440.385,468.317 440.271,473.372 447.918,472.11 447.804,478.429 440.192,479.797 440.08,484.922 448.179,483.372 
			448.067,489.688 432.936,492.8 433.73,462.82 448.706,460.746 		"/>
	</g>
	<g>
		<defs>
			<rect id="SVGID_179_" x="35.109" y="190.5" width="556.391" height="414.643"/>
		</defs>
		<clipPath id="SVGID_180_">
			<use xlink:href="#SVGID_179_"  overflow="visible"/>
		</clipPath>
		<path clip-path="url(#SVGID_180_)" fill="#FFFFFF" d="M474.598,484.23L466,485.997l-6.485-9.463l-0.112,10.819l-6.869,1.413
			l0.423-28.609l9.615-1.331c2.672-0.37,4.817-0.062,6.438,0.924c1.894,1.113,2.942,3.088,3.158,5.924
			c0.014,0.239,0.022,0.47,0.022,0.692c-0.004,1.805-0.542,3.441-1.615,4.921c-1.021,1.384-2.406,2.516-4.175,3.391L474.598,484.23z
			 M465.188,467.515c0.007-0.915-0.303-1.668-0.926-2.25c-0.624-0.588-1.352-0.816-2.178-0.69l-2.345,0.355l-0.066,6.818
			l2.568-0.433c0.804-0.215,1.499-0.688,2.078-1.423C464.896,469.164,465.183,468.374,465.188,467.515"/>
	</g>
	<g>
		<defs>
			<rect id="SVGID_181_" x="35.109" y="190.5" width="556.391" height="414.643"/>
		</defs>
		<clipPath id="SVGID_182_">
			<use xlink:href="#SVGID_181_"  overflow="visible"/>
		</clipPath>
		<path clip-path="url(#SVGID_182_)" fill="none" stroke="#FFFFFF" stroke-width="2.892" d="M474.598,484.23L466,485.997
			l-6.485-9.463l-0.112,10.819l-6.869,1.413l0.423-28.609l9.615-1.331c2.672-0.37,4.817-0.062,6.438,0.924
			c1.894,1.113,2.942,3.088,3.158,5.924c0.014,0.239,0.022,0.47,0.022,0.692c-0.004,1.805-0.542,3.441-1.615,4.921
			c-1.021,1.384-2.406,2.516-4.175,3.391L474.598,484.23z M465.188,467.515c0.007-0.915-0.303-1.668-0.926-2.25
			c-0.624-0.588-1.352-0.816-2.178-0.69l-2.345,0.355l-0.066,6.818l2.568-0.433c0.804-0.215,1.499-0.688,2.078-1.423
			C464.896,469.164,465.183,468.374,465.188,467.515z"/>
	</g>
	<g>
		<defs>
			<rect id="SVGID_183_" x="35.109" y="190.5" width="556.391" height="414.643"/>
		</defs>
		<clipPath id="SVGID_184_">
			<use xlink:href="#SVGID_183_"  overflow="visible"/>
		</clipPath>
		<polygon clip-path="url(#SVGID_184_)" fill="#FFFFFF" points="222.452,506.822 224.941,501.27 227.021,501.001 229.509,505.809 
			231.998,500.359 235.872,499.86 230.705,509.959 228.43,510.314 225.981,505.459 223.53,511.076 221.258,511.432 216.09,502.411 
			219.987,501.91 		"/>
	</g>
	<g>
		<defs>
			<rect id="SVGID_185_" x="35.109" y="190.5" width="556.391" height="414.643"/>
		</defs>
		<clipPath id="SVGID_186_">
			<use xlink:href="#SVGID_185_"  overflow="visible"/>
		</clipPath>
		<polygon clip-path="url(#SVGID_186_)" fill="none" stroke="#FFFFFF" stroke-width="2.892" points="222.452,506.822 
			224.941,501.27 227.021,501.001 229.509,505.809 231.998,500.359 235.872,499.86 230.705,509.959 228.43,510.314 225.981,505.459 
			223.53,511.076 221.258,511.432 216.09,502.411 219.987,501.91 		"/>
	</g>
	<g>
		<defs>
			<rect id="SVGID_187_" x="35.109" y="190.5" width="556.391" height="414.643"/>
		</defs>
		<clipPath id="SVGID_188_">
			<use xlink:href="#SVGID_187_"  overflow="visible"/>
		</clipPath>
		<path clip-path="url(#SVGID_188_)" fill="#FFFFFF" d="M239.98,495.804c0,1.003-0.889,1.938-1.969,2.07
			c-1.08,0.133-1.969-0.591-1.969-1.604c0-1.013,0.889-1.944,1.969-2.069C239.091,494.079,239.98,494.801,239.98,495.804
			 M239.768,508.544l-3.509,0.551v-9.284l3.509-0.452V508.544z"/>
	</g>
	<g>
		<defs>
			<rect id="SVGID_189_" x="35.109" y="190.5" width="556.391" height="414.643"/>
		</defs>
		<clipPath id="SVGID_190_">
			<use xlink:href="#SVGID_189_"  overflow="visible"/>
		</clipPath>
		<path clip-path="url(#SVGID_190_)" fill="none" stroke="#FFFFFF" stroke-width="2.892" d="M239.98,495.804
			c0,1.003-0.889,1.938-1.969,2.07c-1.08,0.133-1.969-0.591-1.969-1.604c0-1.013,0.889-1.944,1.969-2.069
			C239.091,494.079,239.98,494.801,239.98,495.804z M239.768,508.544l-3.509,0.551v-9.284l3.509-0.452V508.544z"/>
	</g>
	<g>
		<defs>
			<rect id="SVGID_191_" x="35.109" y="190.5" width="556.391" height="414.643"/>
		</defs>
		<clipPath id="SVGID_192_">
			<use xlink:href="#SVGID_191_"  overflow="visible"/>
		</clipPath>
		<polygon clip-path="url(#SVGID_192_)" fill="#FFFFFF" points="245.438,507.662 241.929,508.21 241.929,501.749 240.789,501.903 
			240.789,499.227 241.929,499.078 241.929,496.337 245.438,495.915 245.438,498.627 247.423,498.37 247.423,500.997 
			245.438,501.27 		"/>
	</g>
	<g>
		<defs>
			<rect id="SVGID_193_" x="35.109" y="190.5" width="556.391" height="414.643"/>
		</defs>
		<clipPath id="SVGID_194_">
			<use xlink:href="#SVGID_193_"  overflow="visible"/>
		</clipPath>
		<polygon clip-path="url(#SVGID_194_)" fill="none" stroke="#FFFFFF" stroke-width="2.892" points="245.438,507.662 
			241.929,508.21 241.929,501.749 240.789,501.903 240.789,499.227 241.929,499.078 241.929,496.337 245.438,495.915 
			245.438,498.627 247.423,498.37 247.423,500.997 245.438,501.27 		"/>
	</g>
	<g>
		<defs>
			<rect id="SVGID_195_" x="35.109" y="190.5" width="556.391" height="414.643"/>
		</defs>
		<clipPath id="SVGID_196_">
			<use xlink:href="#SVGID_195_"  overflow="visible"/>
		</clipPath>
		<path clip-path="url(#SVGID_196_)" fill="#FFFFFF" d="M251.568,492.355v6.605l0.038-0.007c0.81-1.076,1.794-1.648,3.162-1.822
			c2.507-0.322,3.721,0.979,3.721,3.177v5.317l-3.508,0.547v-4.5c0-1.025-0.174-2.063-1.58-1.873
			c-1.389,0.189-1.833,1.321-1.833,2.357v4.546l-3.508,0.55v-14.505L251.568,492.355z"/>
	</g>
	<g>
		<defs>
			<rect id="SVGID_197_" x="35.109" y="190.5" width="556.391" height="414.643"/>
		</defs>
		<clipPath id="SVGID_198_">
			<use xlink:href="#SVGID_197_"  overflow="visible"/>
		</clipPath>
		<path clip-path="url(#SVGID_198_)" fill="none" stroke="#FFFFFF" stroke-width="2.892" d="M251.568,492.355v6.605l0.038-0.007
			c0.81-1.076,1.794-1.648,3.162-1.822c2.507-0.322,3.721,0.979,3.721,3.177v5.317l-3.508,0.547v-4.5
			c0-1.025-0.174-2.063-1.58-1.873c-1.389,0.189-1.833,1.321-1.833,2.357v4.546l-3.508,0.55v-14.505L251.568,492.355z"/>
	</g>
	<g>
		<defs>
			<rect id="SVGID_199_" x="35.109" y="190.5" width="556.391" height="414.643"/>
		</defs>
		<clipPath id="SVGID_200_">
			<use xlink:href="#SVGID_199_"  overflow="visible"/>
		</clipPath>
		<polygon clip-path="url(#SVGID_200_)" fill="#EC1C24" points="293.988,521.383 286.921,522.836 287.057,500.227 278.646,524.64 
			275.781,525.231 272.062,503.041 267.525,526.828 260.59,528.254 269.127,485.618 275.993,484.667 279.168,505.539 
			286.719,483.183 293.584,482.23 		"/>
	</g>
	<g>
		<defs>
			<rect id="SVGID_201_" x="35.109" y="190.5" width="556.391" height="414.643"/>
		</defs>
		<clipPath id="SVGID_202_">
			<use xlink:href="#SVGID_201_"  overflow="visible"/>
		</clipPath>
		<polygon clip-path="url(#SVGID_202_)" fill="#EC1C24" points="314.597,487.612 306.385,488.874 305.827,495.556 313.472,494.295 
			312.793,502.688 305.178,504.055 304.611,510.833 312.71,509.284 312.033,517.671 296.898,520.784 300.296,481.301 
			315.271,479.227 		"/>
	</g>
	<g>
		<defs>
			<rect id="SVGID_203_" x="35.109" y="190.5" width="556.391" height="414.643"/>
		</defs>
		<clipPath id="SVGID_204_">
			<use xlink:href="#SVGID_203_"  overflow="visible"/>
		</clipPath>
		<path clip-path="url(#SVGID_204_)" fill="#EC1C24" d="M344.692,494.854c-0.354,5.135-1.981,9.642-4.896,13.536
			c-2.807,3.771-6.096,6.104-9.871,6.987c-3.832,0.901-6.979-0.284-9.43-3.593c-2.443-3.344-3.481-7.771-3.135-13.247
			c0.354-5.602,2.077-10.689,5.159-15.218c3.064-4.489,6.509-6.94,10.34-7.382c5.395-0.615,9.098,2.219,11.127,8.476l-6.59,4.848
			c-0.704-3.418-2.429-5.035-5.168-4.838c-2.029,0.148-3.807,1.665-5.321,4.558c-1.325,2.563-2.102,5.354-2.332,8.362
			c-0.24,3.116,0.176,5.646,1.244,7.595c1.167,2.083,2.835,2.906,5.004,2.482c1.283-0.248,2.44-0.914,3.466-1.997
			c1.135-1.199,1.852-2.663,2.148-4.4l0.187-1.085l-5.629,1.026l0.554-7.412l13.392-2.265L344.692,494.854z"/>
	</g>
	<g>
		<defs>
			<rect id="SVGID_205_" x="35.109" y="190.5" width="556.391" height="414.643"/>
		</defs>
		<clipPath id="SVGID_206_">
			<use xlink:href="#SVGID_205_"  overflow="visible"/>
		</clipPath>
		<path clip-path="url(#SVGID_206_)" fill="#EC1C24" d="M373.983,504.926l-7.354,1.516l-1.437-5.639l-9.412,1.83l-2.265,6.503
			l-7.332,1.508l12.458-37.423l7.499-1.04L373.983,504.926z M363.815,494.319l-2.133-10.536l-3.56,11.565L363.815,494.319z"/>
	</g>
	<g>
		<defs>
			<rect id="SVGID_207_" x="35.109" y="190.5" width="556.391" height="414.643"/>
		</defs>
		<clipPath id="SVGID_208_">
			<use xlink:href="#SVGID_207_"  overflow="visible"/>
		</clipPath>
		<path clip-path="url(#SVGID_208_)" fill="#EC1C24" d="M398.984,478.264c-0.044,2.917-0.818,5.578-2.325,7.994
			c-1.563,2.525-3.456,3.997-5.681,4.405l-5.827,1.072l-0.568,11.011l-7.043,1.449l1.852-33.851l11.229-1.554
			c2.396-0.333,4.402,0.396,6.007,2.184C398.237,472.74,399.023,475.17,398.984,478.264 M391.815,479.405
			c0-1.192-0.329-2.064-0.982-2.614c-0.571-0.492-1.321-0.669-2.258-0.525l-2.648,0.406l-0.413,8.031l2.993-0.507
			c0.953-0.162,1.742-0.671,2.374-1.521C391.51,481.831,391.821,480.741,391.815,479.405"/>
	</g>
	<g>
		<defs>
			<rect id="SVGID_209_" x="35.109" y="190.5" width="556.391" height="414.643"/>
		</defs>
		<clipPath id="SVGID_210_">
			<use xlink:href="#SVGID_209_"  overflow="visible"/>
		</clipPath>
		<polygon clip-path="url(#SVGID_210_)" fill="#EC1C24" points="416.738,496.132 401.539,499.259 402.934,467.086 409.798,466.135 
			408.814,490.903 416.98,489.341 		"/>
	</g>
	<g>
		<defs>
			<rect id="SVGID_211_" x="35.109" y="190.5" width="556.391" height="414.643"/>
		</defs>
		<clipPath id="SVGID_212_">
			<use xlink:href="#SVGID_211_"  overflow="visible"/>
		</clipPath>
		<polygon clip-path="url(#SVGID_212_)" fill="#EC1C24" points="428.205,493.772 421.14,495.228 422.159,464.422 429.09,463.464 		
			"/>
	</g>
	<g>
		<defs>
			<rect id="SVGID_213_" x="35.109" y="190.5" width="556.391" height="414.643"/>
		</defs>
		<clipPath id="SVGID_214_">
			<use xlink:href="#SVGID_213_"  overflow="visible"/>
		</clipPath>
		<polygon clip-path="url(#SVGID_214_)" fill="#EC1C24" points="448.596,467.059 440.385,468.317 440.271,473.372 447.918,472.11 
			447.804,478.429 440.192,479.797 440.08,484.922 448.179,483.372 448.067,489.688 432.936,492.8 433.73,462.82 448.706,460.746 		
			"/>
	</g>
	<g>
		<defs>
			<rect id="SVGID_215_" x="35.109" y="190.5" width="556.391" height="414.643"/>
		</defs>
		<clipPath id="SVGID_216_">
			<use xlink:href="#SVGID_215_"  overflow="visible"/>
		</clipPath>
		<path clip-path="url(#SVGID_216_)" fill="#EC1C24" d="M474.598,484.23L466,485.997l-6.485-9.463l-0.112,10.819l-6.869,1.413
			l0.423-28.609l9.615-1.331c2.672-0.37,4.817-0.062,6.438,0.924c1.894,1.113,2.942,3.088,3.158,5.924
			c0.014,0.239,0.022,0.47,0.022,0.692c-0.004,1.805-0.542,3.441-1.615,4.921c-1.021,1.384-2.406,2.516-4.175,3.391L474.598,484.23z
			 M465.188,467.515c0.007-0.915-0.303-1.668-0.926-2.25c-0.624-0.588-1.352-0.816-2.178-0.69l-2.345,0.355l-0.066,6.818
			l2.568-0.433c0.804-0.215,1.499-0.688,2.078-1.423C464.896,469.164,465.183,468.374,465.188,467.515"/>
	</g>
	<g>
		<defs>
			<rect id="SVGID_217_" x="35.109" y="190.5" width="556.391" height="414.643"/>
		</defs>
		<clipPath id="SVGID_218_">
			<use xlink:href="#SVGID_217_"  overflow="visible"/>
		</clipPath>
		<polygon clip-path="url(#SVGID_218_)" fill="#EC1C24" points="222.452,506.822 224.941,501.27 227.021,501.001 229.509,505.809 
			231.998,500.359 235.872,499.86 230.705,509.959 228.43,510.314 225.981,505.459 223.53,511.076 221.258,511.432 216.09,502.411 
			219.987,501.91 		"/>
	</g>
	<g>
		<defs>
			<rect id="SVGID_219_" x="35.109" y="190.5" width="556.391" height="414.643"/>
		</defs>
		<clipPath id="SVGID_220_">
			<use xlink:href="#SVGID_219_"  overflow="visible"/>
		</clipPath>
		<path clip-path="url(#SVGID_220_)" fill="#EC1C24" d="M239.98,495.804c0,1.003-0.889,1.938-1.969,2.07
			c-1.08,0.133-1.969-0.591-1.969-1.604c0-1.013,0.889-1.944,1.969-2.069C239.091,494.079,239.98,494.801,239.98,495.804
			 M239.768,508.544l-3.509,0.551v-9.284l3.509-0.452V508.544z"/>
	</g>
	<g>
		<defs>
			<rect id="SVGID_221_" x="35.109" y="190.5" width="556.391" height="414.643"/>
		</defs>
		<clipPath id="SVGID_222_">
			<use xlink:href="#SVGID_221_"  overflow="visible"/>
		</clipPath>
		<polygon clip-path="url(#SVGID_222_)" fill="#EC1C24" points="245.438,507.662 241.929,508.21 241.929,501.749 240.789,501.903 
			240.789,499.227 241.929,499.078 241.929,496.337 245.438,495.915 245.438,498.627 247.423,498.37 247.423,500.997 
			245.438,501.27 		"/>
	</g>
	<g>
		<defs>
			<rect id="SVGID_223_" x="35.109" y="190.5" width="556.391" height="414.643"/>
		</defs>
		<clipPath id="SVGID_224_">
			<use xlink:href="#SVGID_223_"  overflow="visible"/>
		</clipPath>
		<path clip-path="url(#SVGID_224_)" fill="#EC1C24" d="M251.568,492.355v6.605l0.038-0.007c0.81-1.076,1.794-1.648,3.162-1.822
			c2.507-0.322,3.721,0.979,3.721,3.177v5.317l-3.508,0.547v-4.5c0-1.025-0.174-2.063-1.58-1.873
			c-1.389,0.189-1.833,1.321-1.833,2.357v4.546l-3.508,0.55v-14.505L251.568,492.355z"/>
	</g>
	<g>
		<defs>
			<rect id="SVGID_225_" x="35.109" y="190.5" width="556.391" height="414.643"/>
		</defs>
		<clipPath id="SVGID_226_">
			<use xlink:href="#SVGID_225_"  overflow="visible"/>
		</clipPath>
		<polygon clip-path="url(#SVGID_226_)" fill="#231F20" points="221.992,254.146 227.774,255.122 240.847,274.522 240.847,257.327 
			246.771,258.328 246.771,286.06 241.67,285.366 228.179,265.515 228.179,283.532 221.992,282.69 		"/>
	</g>
	<g>
		<defs>
			<rect id="SVGID_227_" x="35.109" y="190.5" width="556.391" height="414.643"/>
		</defs>
		<clipPath id="SVGID_228_">
			<use xlink:href="#SVGID_227_"  overflow="visible"/>
		</clipPath>
		<path clip-path="url(#SVGID_228_)" fill="#231F20" d="M249.127,275.911v-0.079c0-6.044,4.174-10.348,10.077-9.395
			c6.672,1.078,9.692,6.929,9.692,12.794c0,0.462-0.036,0.997-0.074,1.531l-13.924-2.034c0.57,2.789,2.384,4.458,4.943,4.818
			c1.908,0.27,3.289-0.158,4.849-1.448l3.212,3.436c-1.841,2.142-4.513,3.251-8.137,2.76
			C253.681,287.471,249.127,282.389,249.127,275.911 M263.429,276.286c-0.335-2.692-1.828-4.712-4.225-5.086
			c-2.374-0.369-3.925,1.153-4.382,3.791L263.429,276.286z"/>
	</g>
	<g>
		<defs>
			<rect id="SVGID_229_" x="35.109" y="190.5" width="556.391" height="414.643"/>
		</defs>
		<clipPath id="SVGID_230_">
			<use xlink:href="#SVGID_229_"  overflow="visible"/>
		</clipPath>
		<polygon clip-path="url(#SVGID_230_)" fill="#231F20" points="269.045,268.414 274.657,269.317 277.757,282.221 281.37,270.323 
			286.006,271.07 289.58,283.983 292.638,272.215 297.833,273.051 292.083,292.372 287.307,291.723 283.675,278.765 
			279.942,290.724 275.054,290.06 		"/>
	</g>
	<g>
		<defs>
			<rect id="SVGID_231_" x="35.109" y="190.5" width="556.391" height="414.643"/>
		</defs>
		<clipPath id="SVGID_232_">
			<use xlink:href="#SVGID_231_"  overflow="visible"/>
		</clipPath>
		<path clip-path="url(#SVGID_232_)" fill="#231F20" d="M307.555,290.833l3.222-3.503c1.32,1.801,2.604,2.935,4.211,3.163
			c1.891,0.268,3.063-0.835,3.063-3.772v-16.362l5.095,0.86v16.506c0,2.991-0.77,5.116-2.121,6.446
			c-1.389,1.364-3.43,1.883-5.903,1.548C311.536,295.234,309.151,293.148,307.555,290.833"/>
	</g>
	<g>
		<defs>
			<rect id="SVGID_233_" x="35.109" y="190.5" width="556.391" height="414.643"/>
		</defs>
		<clipPath id="SVGID_234_">
			<use xlink:href="#SVGID_233_"  overflow="visible"/>
		</clipPath>
		<path clip-path="url(#SVGID_234_)" fill="#231F20" d="M324.741,287.133v-0.072c0-5.503,3.463-9.475,8.36-8.684
			c5.541,0.896,8.058,6.194,8.058,11.544c0,0.422-0.03,0.91-0.06,1.398l-11.573-1.689c0.474,2.533,1.98,4.031,4.105,4.332
			c1.585,0.223,2.732-0.183,4.03-1.377l2.671,3.098c-1.534,1.974-3.753,3.015-6.765,2.606
			C328.518,297.607,324.741,293.031,324.741,287.133 M336.611,287.301c-0.276-2.45-1.518-4.272-3.51-4.584
			c-1.971-0.307-3.259,1.101-3.638,3.508L336.611,287.301z"/>
	</g>
	<g>
		<defs>
			<rect id="SVGID_235_" x="35.109" y="190.5" width="556.391" height="414.643"/>
		</defs>
		<clipPath id="SVGID_236_">
			<use xlink:href="#SVGID_235_"  overflow="visible"/>
		</clipPath>
		<path clip-path="url(#SVGID_236_)" fill="#231F20" d="M343.231,280.365l4.588,0.739v3.767c0.931-2.433,2.423-3.863,5.098-3.292
			v5.508l-0.235-0.036c-3.006-0.463-4.861,1.379-4.861,5.845v6.907l-4.588-0.625L343.231,280.365L343.231,280.365z"/>
	</g>
	<g>
		<defs>
			<rect id="SVGID_237_" x="35.109" y="190.5" width="556.391" height="414.643"/>
		</defs>
		<clipPath id="SVGID_238_">
			<use xlink:href="#SVGID_237_"  overflow="visible"/>
		</clipPath>
		<path clip-path="url(#SVGID_238_)" fill="#231F20" d="M353.747,298.151l1.911-3.186c1.703,1.69,3.482,2.7,4.935,2.905
			c1.273,0.179,1.852-0.286,1.852-1.108v-0.067c0-1.13-1.504-1.723-3.22-2.59c-2.185-1.077-4.684-2.653-4.684-6.25v-0.069
			c0-3.768,2.584-5.458,5.735-4.951c1.967,0.318,4.092,1.447,5.754,3.041l-1.662,3.317c-1.522-1.294-3.053-2.182-4.184-2.359
			c-1.075-0.167-1.628,0.296-1.628,1.019v0.069c0,1.031,1.484,1.738,3.163,2.679c2.161,1.179,4.65,2.778,4.65,6.11v0.068
			c0,4.048-2.547,5.54-5.896,5.086C358.296,301.57,355.837,300.374,353.747,298.151"/>
	</g>
	<g>
		<defs>
			<rect id="SVGID_239_" x="35.109" y="190.5" width="556.391" height="414.643"/>
		</defs>
		<clipPath id="SVGID_240_">
			<use xlink:href="#SVGID_239_"  overflow="visible"/>
		</clipPath>
		<path clip-path="url(#SVGID_240_)" fill="#231F20" d="M367.454,293.472v-0.068c0-5.196,3.089-8.977,7.465-8.271
			c4.95,0.801,7.194,5.79,7.194,10.849c0,0.398-0.027,0.859-0.056,1.322l-10.335-1.51c0.424,2.39,1.769,3.795,3.664,4.062
			c1.416,0.2,2.441-0.191,3.601-1.33l2.389,2.909c-1.37,1.877-3.353,2.876-6.041,2.512
			C370.823,303.335,367.454,299.041,367.454,293.472 M378.052,293.539c-0.25-2.314-1.356-4.027-3.133-4.303
			c-1.761-0.275-2.911,1.065-3.248,3.343L378.052,293.539z"/>
	</g>
	<g>
		<defs>
			<rect id="SVGID_241_" x="35.109" y="190.5" width="556.391" height="414.643"/>
		</defs>
		<clipPath id="SVGID_242_">
			<use xlink:href="#SVGID_241_"  overflow="visible"/>
		</clipPath>
		<path clip-path="url(#SVGID_242_)" fill="#231F20" d="M383.233,308.804l1.385-3.468c0.542,0.472,1.22,0.861,1.76,0.934
			c0.7,0.093,1.078-0.121,1.426-0.965l-5.689-18.676l4.372,0.704l3.274,12.542l3.113-11.515l4.159,0.671l-5.435,17.149
			c-1.092,3.437-2.27,4.635-4.71,4.321C385.404,310.313,384.293,309.705,383.233,308.804"/>
	</g>
	<g>
		<defs>
			<rect id="SVGID_243_" x="35.109" y="190.5" width="556.391" height="414.643"/>
		</defs>
		<clipPath id="SVGID_244_">
			<use xlink:href="#SVGID_243_"  overflow="visible"/>
		</clipPath>
		<polygon clip-path="url(#SVGID_244_)" fill="#231F20" points="406.227,285.242 410.127,285.9 410.127,303.801 418.811,305.038 
			418.811,309.456 406.227,307.745 		"/>
	</g>
	<g>
		<defs>
			<rect id="SVGID_245_" x="35.109" y="190.5" width="556.391" height="414.643"/>
		</defs>
		<clipPath id="SVGID_246_">
			<use xlink:href="#SVGID_245_"  overflow="visible"/>
		</clipPath>
		<path clip-path="url(#SVGID_246_)" fill="#231F20" d="M419.029,301.126v-0.063c0-4.858,3.033-8.313,7.067-7.66
			c3.964,0.64,6.874,4.912,6.874,9.668v0.062c0,4.757-2.933,8.223-6.921,7.682C422.038,310.271,419.029,305.984,419.029,301.126
			 M429.421,302.668v-0.062c0-2.455-1.358-4.808-3.37-5.121c-2.099-0.326-3.356,1.58-3.356,4.059v0.062
			c0,2.48,1.378,4.84,3.403,5.126C428.183,307.027,429.421,305.121,429.421,302.668"/>
	</g>
	<g>
		<defs>
			<rect id="SVGID_247_" x="35.109" y="190.5" width="556.391" height="414.643"/>
		</defs>
		<clipPath id="SVGID_248_">
			<use xlink:href="#SVGID_247_"  overflow="visible"/>
		</clipPath>
		<path clip-path="url(#SVGID_248_)" fill="#231F20" d="M435.083,306.987v-7.821l-1.499-0.233v-4.012l1.499,0.241v-4.218
			l3.535,0.592v4.196l2.901,0.467v3.965l-2.901-0.45v7.014c0,1.072,0.346,1.642,1.133,1.754c0.646,0.091,1.218-0.041,1.724-0.335
			v3.72c-0.734,0.479-1.586,0.73-2.763,0.571C436.554,312.146,435.083,310.807,435.083,306.987"/>
	</g>
	<g>
		<defs>
			<rect id="SVGID_249_" x="35.109" y="190.5" width="556.391" height="414.643"/>
		</defs>
		<clipPath id="SVGID_250_">
			<use xlink:href="#SVGID_249_"  overflow="visible"/>
		</clipPath>
		<path clip-path="url(#SVGID_250_)" fill="#231F20" d="M444.532,308.34v-7.708l-1.455-0.226v-3.955l1.455,0.234v-4.159l3.437,0.575
			v4.137l2.82,0.454v3.909l-2.82-0.438v6.915c0,1.057,0.338,1.617,1.099,1.727c0.63,0.088,1.188-0.043,1.678-0.333v3.667
			c-0.715,0.474-1.54,0.724-2.685,0.568C445.963,313.421,444.532,312.104,444.532,308.34"/>
	</g>
	<g>
		<defs>
			<rect id="SVGID_251_" x="35.109" y="190.5" width="556.391" height="414.643"/>
		</defs>
		<clipPath id="SVGID_252_">
			<use xlink:href="#SVGID_251_"  overflow="visible"/>
		</clipPath>
		<path clip-path="url(#SVGID_252_)" fill="#231F20" d="M451.257,305.908v-0.06c0-4.596,2.417-7.991,5.841-7.437
			c3.889,0.628,5.652,5.014,5.652,9.497c0,0.354-0.022,0.764-0.044,1.174l-8.106-1.185c0.328,2.109,1.383,3.333,2.87,3.543
			c1.112,0.157,1.913-0.204,2.823-1.23l1.877,2.543c-1.079,1.683-2.632,2.596-4.742,2.311
			C453.894,314.586,451.257,310.834,451.257,305.908 M459.559,305.807c-0.194-2.047-1.064-3.546-2.461-3.763
			c-1.377-0.216-2.277,0.988-2.544,3.01L459.559,305.807z"/>
	</g>
	<g>
		<defs>
			<rect id="SVGID_253_" x="35.109" y="190.5" width="556.391" height="414.643"/>
		</defs>
		<clipPath id="SVGID_254_">
			<use xlink:href="#SVGID_253_"  overflow="visible"/>
		</clipPath>
		<path clip-path="url(#SVGID_254_)" fill="#231F20" d="M463.778,299.785l3.231,0.521v3.165c0.659-2.064,1.713-3.298,3.602-2.876
			v4.632l-0.167-0.025c-2.121-0.327-3.435,1.259-3.435,5.009v5.802l-3.231-0.44V299.785L463.778,299.785z"/>
	</g>
	<g>
		<defs>
			<rect id="SVGID_255_" x="35.109" y="190.5" width="556.391" height="414.643"/>
		</defs>
		<clipPath id="SVGID_256_">
			<use xlink:href="#SVGID_255_"  overflow="visible"/>
		</clipPath>
		<path clip-path="url(#SVGID_256_)" fill="#231F20" d="M471.927,320.342l1.063-3.054c0.413,0.404,0.933,0.735,1.35,0.791
			c0.536,0.073,0.824-0.121,1.093-0.865l-4.356-16.253l3.342,0.539l2.517,10.93l2.386-10.14l3.201,0.516l-4.177,15.122
			c-0.839,3.026-1.741,4.092-3.612,3.853C473.59,321.632,472.742,321.116,471.927,320.342"/>
	</g>
</g>
<g>
	<g>
		<defs>
			<path id="SVGID_257_" d="M127.246,343.571c0,31.194,25.45,56.482,56.844,56.482s56.843-25.288,56.843-56.482
				c0-31.195-25.45-56.484-56.843-56.484C152.695,287.087,127.246,312.376,127.246,343.571"/>
		</defs>
		<clipPath id="SVGID_258_">
			<use xlink:href="#SVGID_257_"  overflow="visible"/>
		</clipPath>
		
			<radialGradient id="SVGID_259_" cx="0.6855" cy="166.9443" r="1.0846" gradientTransform="matrix(67.3562 -23.8756 24.5088 68.2669 -3944.9648 -11047.9219)" gradientUnits="userSpaceOnUse">
			<stop  offset="0" style="stop-color:#FFFFFF"/>
			<stop  offset="0.3348" style="stop-color:#FFFFFF"/>
			<stop  offset="0.5968" style="stop-color:#FFFFFF"/>
			<stop  offset="0.6617" style="stop-color:#FCFCFC"/>
			<stop  offset="0.7071" style="stop-color:#F3F3F3"/>
			<stop  offset="0.7465" style="stop-color:#E4E4E4"/>
			<stop  offset="0.7825" style="stop-color:#CECECF"/>
			<stop  offset="0.8162" style="stop-color:#B1B2B4"/>
			<stop  offset="0.8478" style="stop-color:#8F9093"/>
			<stop  offset="0.8598" style="stop-color:#808184"/>
			<stop  offset="1" style="stop-color:#808184"/>
		</radialGradient>
		<polygon clip-path="url(#SVGID_258_)" fill="url(#SVGID_259_)" points="91.267,299.84 228.101,251.338 276.913,387.301 
			140.08,435.805 		"/>
	</g>
</g>
<g>
	<g>
		<defs>
			<path id="SVGID_260_" d="M181.613,298.8c-10.034,0.002-30.107,13.181-31.431,24.888c-1.121,9.941,7.129,9.534,10.923,9.266
				c4.106-0.29,15.54-1.998,29.432-3.184c-15.623,4.511-26.043,10.251-32,16.883c-7.285,8.108,4.353,30.132,16.484,31.286
				c12.132,1.153,21.546-14.208,22.532-14.83c-5.336,18.336-13.815,22.446-13.815,22.446c2.688,3.204,6.217,2.096,7.319,1.78
				c5.564-2.956,8.415-15.65,9.775-25.648c0.747,5.852,11.259,15.989,20.232,10.388c11.472-8.584,12.819-19.893,11.71-26.883
				c-1.302-8.223-9.66-12.528-24.016-16.011c7.175,0.044,13.708,1.096,17.482-0.057c3.601-1.101,4.177-2.37,3.75-3.779
				c-5.208-17.176-20.722-27.742-28.097-24.778c-1.79,0.72-2.218,4.642-2.218,4.642s-0.029,11.756,0.632,21.983
				c-0.97-8.147-4.629-28.391-18.696-28.392C181.613,298.8,181.613,298.8,181.613,298.8"/>
		</defs>
		<clipPath id="SVGID_261_">
			<use xlink:href="#SVGID_260_"  overflow="visible"/>
		</clipPath>
		
			<radialGradient id="SVGID_262_" cx="0.4531" cy="167.0913" r="1.0843" gradientTransform="matrix(39.7518 0 0 39.8548 184.1866 -6324.3672)" gradientUnits="userSpaceOnUse">
			<stop  offset="0" style="stop-color:#D6DE23"/>
			<stop  offset="0.0187" style="stop-color:#D6DE23"/>
			<stop  offset="0.3263" style="stop-color:#8BC53F"/>
			<stop  offset="0.4254" style="stop-color:#86C03F"/>
			<stop  offset="0.5471" style="stop-color:#77B33F"/>
			<stop  offset="0.68" style="stop-color:#5E9C3F"/>
			<stop  offset="0.7159" style="stop-color:#56953F"/>
			<stop  offset="0.8595" style="stop-color:#2C7F3C"/>
			<stop  offset="1" style="stop-color:#006838"/>
		</radialGradient>
		<rect x="149.061" y="297.604" clip-path="url(#SVGID_261_)" fill="url(#SVGID_262_)" width="84.824" height="91.156"/>
	</g>
</g>
<g>
	<g>
		<defs>
			<rect id="SVGID_263_" x="35.109" y="190.5" width="556.391" height="414.643"/>
		</defs>
		<clipPath id="SVGID_264_">
			<use xlink:href="#SVGID_263_"  overflow="visible"/>
		</clipPath>
		<path clip-path="url(#SVGID_264_)" fill="#FFFFFF" d="M190.756,319.996l-0.476-1.954l2.498-2.933l0.657-1.713l1.981-1.524
			l1.444,0.439l10.129,5.702l0.103,2.315l-1.451,4.139l-0.509,0.199l-0.487-0.231l0.129-0.146l0.319-1.463l-0.08-0.463l-0.085,0.565
			l-0.521,1.244l-0.189,1.404l-0.524,1.226l-0.458,0.213l-0.399-0.423l-0.161,0.331l1.378,1.269l1.147,0.409l0.135-0.185
			l0.321,0.012l0.698,0.665l0.308-0.183l-0.042-0.494l-0.423-0.909l0.67,0.019c0,0,2.311,2.863,0.271,9.504l-0.514-0.283
			l-0.169-0.603l-0.217-0.006l-0.261,5.035l-0.502,0.471l-0.551,2.985l-1.132,1.299l-0.039,0.915l-0.659,0.229l-0.372-0.516
			l-0.559,0.907l0.555,0.524l-0.636,0.899l0.481,0.282v0.195l0.398,0.246l-0.078,0.581l-0.901,0.986l-1.55,1.072l-2.061,2.148
			l-1.802,2.775l0.004,0.693l-0.706,0.888l-1.748,0.932l-0.703,0.004l0.909-1.636l0.012-0.865l0.677-0.698l0.014-1.397l-1.964-1.035
			l-1.409-0.092l-1.418-1.621l-0.735,0.038l-0.451,0.221l-3.958-3.546l-0.09-1.011l0.466-1.443l-0.41-0.701l0.555-2.353l0.831-0.985
			l0.569-0.072l1.28-1.24l0.461,0.106l1.758-0.937l1.201-2.191l0.685-0.129l1.644-1.738l1.167-0.461l1.345-0.965l-0.035-0.895
			l-1.139-1.184l-0.252-0.529l-1.009-0.928l-1.241-2.138l-0.141-0.471l-0.315,0.302l-0.742-0.05l-0.656-0.563l-0.01-1.426
			l-0.209-0.858l-1.437-0.976l0.333-1.001l-0.506-2.055l1.096-0.389l0.056-1.139L190.756,319.996z"/>
	</g>
	<g>
		<defs>
			<rect id="SVGID_265_" x="35.109" y="190.5" width="556.391" height="414.643"/>
		</defs>
		<clipPath id="SVGID_266_">
			<use xlink:href="#SVGID_265_"  overflow="visible"/>
		</clipPath>
		<polygon clip-path="url(#SVGID_266_)" fill="#FFFFFF" points="208.116,338.861 207.852,339.317 207.794,342.983 207.049,345.396 
			207.398,345.329 208.454,343.039 208.524,339.313 		"/>
	</g>
	<g>
		<defs>
			<rect id="SVGID_267_" x="35.109" y="190.5" width="556.391" height="414.643"/>
		</defs>
		<clipPath id="SVGID_268_">
			<use xlink:href="#SVGID_267_"  overflow="visible"/>
		</clipPath>
		<polygon clip-path="url(#SVGID_268_)" fill="#FFFFFF" points="207.226,345.939 206.598,345.932 206.072,347.079 205.078,348.838 
			204.935,349.321 204.892,349.937 205.172,349.976 205.381,349.508 205.571,348.907 		"/>
	</g>
	<g>
		<defs>
			<rect id="SVGID_269_" x="35.109" y="190.5" width="556.391" height="414.643"/>
		</defs>
		<clipPath id="SVGID_270_">
			<use xlink:href="#SVGID_269_"  overflow="visible"/>
		</clipPath>
		<polygon clip-path="url(#SVGID_270_)" fill="#FFFFFF" points="418.523,298.513 418.475,298.602 418.441,299.333 418.294,299.805 
			418.354,299.797 418.551,299.353 418.592,298.608 		"/>
	</g>
	<g>
		<defs>
			<rect id="SVGID_271_" x="35.109" y="190.5" width="556.391" height="414.643"/>
		</defs>
		<clipPath id="SVGID_272_">
			<use xlink:href="#SVGID_271_"  overflow="visible"/>
		</clipPath>
		<polygon clip-path="url(#SVGID_272_)" fill="#FFFFFF" points="418.32,299.917 418.214,299.908 418.115,300.129 417.932,300.468 
			417.904,300.563 417.896,300.685 417.94,300.697 417.979,300.605 418.017,300.488 		"/>
	</g>
	<g>
		<defs>
			<rect id="SVGID_273_" x="35.109" y="190.5" width="556.391" height="414.643"/>
		</defs>
		<clipPath id="SVGID_274_">
			<use xlink:href="#SVGID_273_"  overflow="visible"/>
		</clipPath>
		<polygon clip-path="url(#SVGID_274_)" fill="#231F20" points="537.518,482.409 535.898,482.409 535.898,476.073 533.56,476.073 
			533.56,474.714 539.858,474.714 539.858,476.073 537.518,476.073 		"/>
	</g>
	<g>
		<defs>
			<rect id="SVGID_275_" x="35.109" y="190.5" width="556.391" height="414.643"/>
		</defs>
		<clipPath id="SVGID_276_">
			<use xlink:href="#SVGID_275_"  overflow="visible"/>
		</clipPath>
		<polygon clip-path="url(#SVGID_276_)" fill="#231F20" points="548.251,482.409 546.737,482.409 546.737,475.978 546.716,475.978 
			545.271,482.409 543.688,482.409 542.275,475.978 542.253,475.978 542.253,482.409 540.74,482.409 540.74,474.714 
			543.102,474.714 544.506,480.78 544.526,480.78 545.908,474.714 548.251,474.714 		"/>
	</g>
</g>
</svg>
