<?xml version="1.0" encoding="UTF-8" standalone="no"?>
<svg
   xmlns:dc="http://purl.org/dc/elements/1.1/"
   xmlns:cc="http://creativecommons.org/ns#"
   xmlns:rdf="http://www.w3.org/1999/02/22-rdf-syntax-ns#"
   xmlns:svg="http://www.w3.org/2000/svg"
   xmlns="http://www.w3.org/2000/svg"
   viewBox="0 0 813.33331 456"
   height="456"
   width="813.33331"
   xml:space="preserve"
   version="1.1"
   id="svg2"><metadata
     id="metadata8"><rdf:RDF><cc:Work
         rdf:about=""><dc:format>image/svg+xml</dc:format><dc:type
           rdf:resource="http://purl.org/dc/dcmitype/StillImage" /></cc:Work></rdf:RDF></metadata><defs
     id="defs6"><clipPath
       id="clipPath16"
       clipPathUnits="userSpaceOnUse"><path
         id="path18"
         d="M 0,342 610,342 610,0 0,0 0,342 Z" /></clipPath><clipPath
       id="clipPath156"
       clipPathUnits="userSpaceOnUse"><path
         id="path158"
         d="m 433.555,176.529 31.242,0 0,-23.387 -31.242,0 0,23.387 z" /></clipPath><clipPath
       id="clipPath172"
       clipPathUnits="userSpaceOnUse"><path
         id="path174"
         d="m 456.548,127.564 8.953,0 0,-12.725 -8.953,0 0,12.725 z" /></clipPath><radialGradient
       id="radialGradient212"
       spreadMethod="pad"
       gradientTransform="matrix(69.564285,24.815888,25.312168,-70.955467,300.96997,141.78447)"
       gradientUnits="userSpaceOnUse"
       r="1"
       cy="0"
       cx="0"
       fy="0"
       fx="0"><stop
         id="stop214"
         offset="0"
         style="stop-opacity:1;stop-color:#ffffff" /><stop
         id="stop216"
         offset="0.334803"
         style="stop-opacity:1;stop-color:#ffffff" /><stop
         id="stop218"
         offset="0.596777"
         style="stop-opacity:1;stop-color:#ffffff" /><stop
         id="stop220"
         offset="0.76302485"
         style="stop-opacity:1;stop-color:#ffffff" /><stop
         id="stop222"
         offset="0.859752"
         style="stop-opacity:1;stop-color:#7b7979" /><stop
         id="stop224"
         offset="1"
         style="stop-opacity:1;stop-color:#7b7979" /></radialGradient><radialGradient
       id="radialGradient240"
       spreadMethod="pad"
       gradientTransform="matrix(41.054939,0,0,-41.424416,309.89542,139.13925)"
       gradientUnits="userSpaceOnUse"
       r="1"
       cy="0"
       cx="0"
       fy="0"
       fx="0"><stop
         id="stop242"
         offset="0"
         style="stop-opacity:1;stop-color:#cce310" /><stop
         id="stop244"
         offset="0.018669"
         style="stop-opacity:1;stop-color:#cce310" /><stop
         id="stop246"
         offset="0.326252"
         style="stop-opacity:1;stop-color:#80cc28" /><stop
         id="stop248"
         offset="0.48582009"
         style="stop-opacity:1;stop-color:#80cc28" /><stop
         id="stop250"
         offset="0.715858"
         style="stop-opacity:1;stop-color:#4d9832" /><stop
         id="stop252"
         offset="0.73381485"
         style="stop-opacity:1;stop-color:#4d9832" /><stop
         id="stop254"
         offset="1"
         style="stop-opacity:1;stop-color:#1d6434" /></radialGradient><clipPath
       id="clipPath262"
       clipPathUnits="userSpaceOnUse"><path
         id="path264"
         d="M 0,342 610,342 610,0 0,0 0,342 Z" /></clipPath></defs><g
     transform="matrix(1.3333333,0,0,-1.3333333,0,456)"
     id="g10"><g
       id="g12"><g
         clip-path="url(#clipPath16)"
         id="g14"><g
           transform="translate(160.2947,167.3511)"
           id="g20"><path
             id="path22"
             style="fill:#1478c7;fill-opacity:1;fill-rule:nonzero;stroke:none"
             d="m 0,0 c 0,-41.435 10.957,-74.631 32.568,-98.69 22.117,-25.218 55.417,-39.1 93.795,-39.1 80.449,0 117.088,56.856 117.088,109.665 0,30.711 -12.459,56.734 -33.032,74.002 3.664,1.899 30.922,16.072 30.922,16.072 L 231.313,84.513 C 223.382,102.376 202.28,149.844 128.518,149.844 40.218,149.844 0,72.174 0,0" /></g><g
           transform="translate(261.6397,136.1441)"
           id="g24"><path
             id="path26"
             style="fill:#fff200;fill-opacity:1;fill-rule:nonzero;stroke:none"
             d="m 0,0 c 0,-6.482 0.291,-37.078 24.088,-37.078 20.696,0 24.102,23.176 24.102,37.078 0,17.294 -6.174,34.599 -24.102,34.599 C 19.454,34.599 0,33.371 0,0 m 74.447,88.679 c -6.482,8.026 -16.378,20.39 -35.852,20.39 -34.903,0 -37.373,-37.089 -37.987,-50.368 7.409,5.253 20.69,14.533 43.872,14.533 38.926,0 71.379,-26.278 71.379,-70.152 0,-36.449 -23.179,-83.424 -90.841,-83.424 -31.516,0 -57.159,10.827 -74.153,30.279 -19.786,21.949 -25.956,51.91 -25.956,81.27 0,50.972 25.023,123.586 102.264,123.586 56.544,0 71.376,-33.051 78.805,-49.733 L 74.447,88.679 Z" /></g><g
           transform="translate(261.6397,136.1441)"
           id="g28"><path
             id="path30"
             style="fill:none;stroke:#15569c;stroke-width:17.10899925;stroke-linecap:butt;stroke-linejoin:miter;stroke-miterlimit:4;stroke-dasharray:none;stroke-opacity:1"
             d="m 0,0 c 0,-6.482 0.291,-37.078 24.088,-37.078 20.696,0 24.102,23.176 24.102,37.078 0,17.294 -6.174,34.599 -24.102,34.599 C 19.454,34.599 0,33.371 0,0 Z m 74.447,88.679 c -6.482,8.026 -16.378,20.39 -35.852,20.39 -34.903,0 -37.373,-37.089 -37.987,-50.368 7.409,5.253 20.69,14.533 43.872,14.533 38.926,0 71.379,-26.278 71.379,-70.152 0,-36.449 -23.179,-83.424 -90.841,-83.424 -31.516,0 -57.159,10.827 -74.153,30.279 -19.786,21.949 -25.956,51.91 -25.956,81.27 0,50.972 25.023,123.586 102.264,123.586 56.544,0 71.376,-33.051 78.805,-49.733 L 74.447,88.679 Z" /></g><g
           transform="translate(261.6397,136.1441)"
           id="g32"><path
             id="path34"
             style="fill:#fff200;fill-opacity:1;fill-rule:nonzero;stroke:none"
             d="m 0,0 c 0,-6.482 0.291,-37.078 24.088,-37.078 20.696,0 24.102,23.176 24.102,37.078 0,17.294 -6.174,34.599 -24.102,34.599 C 19.454,34.599 0,33.371 0,0 m 74.447,88.679 c -6.482,8.026 -16.378,20.39 -35.852,20.39 -34.903,0 -37.373,-37.089 -37.987,-50.368 7.409,5.253 20.69,14.533 43.872,14.533 38.926,0 71.379,-26.278 71.379,-70.152 0,-36.449 -23.179,-83.424 -90.841,-83.424 -31.516,0 -57.159,10.827 -74.153,30.279 -19.786,21.949 -25.956,51.91 -25.956,81.27 0,50.972 25.023,123.586 102.264,123.586 56.544,0 71.376,-33.051 78.805,-49.733 L 74.447,88.679 Z" /></g><g
           transform="translate(140.7168,135.1166)"
           id="g36"><path
             id="path38"
             style="fill:#1478c7;fill-opacity:1;fill-rule:nonzero;stroke:none"
             d="M 0,0 C 0,0 2.283,-0.816 3.566,-1.532 5.129,-2.408 7.289,-4.163 7.578,-4.897 6.005,-6.631 5.818,-7.135 2.972,-8.917 2.19,-9.388 0.907,-9.854 0.522,-9.852 -1.846,-5.851 0,0 0,0 m -7.127,41.015 -0.136,0 c -23.688,-0.777 -36.881,-16.408 -37.144,-44.031 0.62,-39.338 23.608,-46.184 37.251,-46.77 8.216,-0.21 14.406,0.9 20.796,3.725 0.007,0 6.928,3.051 6.928,3.051 L 19.911,7.856 c 0,0 -0.099,-0.087 -0.102,-0.087 0.07,9.837 0.195,26.962 0.195,26.962 l -7.157,3.011 C 6.651,40.217 0.701,41.183 -7.127,41.015" /></g><g
           transform="translate(57.5432,195.2832)"
           id="g40"><path
             id="path42"
             style="fill:#1478c7;fill-opacity:1;fill-rule:nonzero;stroke:none"
             d="m 0,0 c -8.715,-0.649 -15.96,-1.42 -22.964,-2.159 -0.048,0 -12.856,-1.338 -12.856,-1.338 l -0.486,-10.178 c -0.715,-14.964 -1.059,-29.31 -1.059,-43.838 0,-11.392 0.223,-22.988 0.664,-34.484 l 0.404,-10.511 20.568,-1.69 c 0.003,0 16.526,-1.34 16.526,-1.34 0,0 -0.461,17.453 -0.632,23.716 6.892,0.079 27.151,3.591 28.093,42.164 0.008,0.205 0.008,0.4 0.008,0.608 0,15.284 -3.68,26.348 -10.936,32.982 C 12.521,-1.65 6.361,0.492 0,0" /></g><g
           transform="translate(106.9585,201.174)"
           id="g44"><path
             id="path46"
             style="fill:#1478c7;fill-opacity:1;fill-rule:nonzero;stroke:none"
             d="M 0,0 -6.325,-0.28 -22.431,-1.269 C -22.483,-1.274 -35.536,-2.19 -35.536,-2.19 L -35.9,-12.558 c -0.007,-0.012 -0.757,-21.675 -0.757,-21.675 l -0.082,-0.092 c 0,0 -0.013,-2.414 -0.013,-2.59 -0.008,-0.157 -0.068,-1.925 -0.068,-1.925 l 0.06,-0.089 -0.231,-25.905 c 0,-12.6 0.171,-24.52 0.528,-36.45 l 0.316,-10.658 21.757,-0.993 c 0.019,-0.002 20.036,-0.838 20.036,-0.838 l -0.301,12.315 c -0.358,11.683 -0.542,23.191 -0.542,35.221 l 0.27,26.916 0.03,1.439 c 0.017,0 0.102,5.149 0.102,5.149 0,-0.029 0.029,1.188 0.029,1.188 0,-0.052 0.799,25.334 0.799,25.334 L 6.238,0.293 0,0 Z" /></g><g
           transform="translate(190.2549,204.9269)"
           id="g48"><path
             id="path50"
             style="fill:#1478c7;fill-opacity:1;fill-rule:nonzero;stroke:none"
             d="m 0,0 -41.641,-1.526 -0.176,-11.13 c -0.439,-16.757 -0.185,-34.06 -0.185,-53.35 0,-13.277 1.324,-27.185 1.526,-42.859 l 0.147,-11.329 30.816,-0.651 9.333,-0.209 0,-0.012 c 0,0 0.484,0 0.703,-0.003 1.157,-0.028 5.23,-0.12 5.23,-0.12 l 0,0.048 c 2.26,-0.016 5.526,-0.063 5.526,-0.063 l 42.7,-0.562 -7.871,17.01 c -0.005,0.013 -14.662,31.48 -14.662,31.48 0.011,-0.003 -0.262,0.586 -0.614,1.341 1.461,2.605 3.332,5.937 3.332,5.937 l 20.724,36.743 -20.009,-0.076 c -0.034,0 -14.602,-0.124 -14.602,-0.124 0,0 -9.156,-0.095 -13.336,-0.126 0.109,8.67 0.227,17.477 0.227,17.477 L 7.371,0.187 0,0 Z" /></g><g
           transform="translate(56.6152,188.2993)"
           id="g52"><path
             id="path54"
             style="fill:#15569c;fill-opacity:1;fill-rule:nonzero;stroke:none"
             d="m 0,0 c -8.724,-0.627 -15.99,-1.368 -23.023,-2.101 l -7.961,-0.821 -0.232,-4.744 c -0.705,-14.484 -1.059,-28.671 -1.059,-42.779 0,-11.216 0.227,-22.392 0.665,-33.661 l 0.191,-4.897 15.607,-1.27 10.267,-0.815 -0.598,21.994 c 0,0 -0.025,0.729 -0.025,0.957 1.775,-0.037 5.644,-0.115 5.644,-0.115 6.579,-0.053 21.999,3.343 22.801,35.534 0.089,13.335 -2.926,22.796 -8.955,28.187 C 9.635,-1.232 4.895,0.381 0,0" /></g><g
           transform="translate(100.6706,194.8172)"
           id="g56"><path
             id="path58"
             style="fill:#15569c;fill-opacity:1;fill-rule:nonzero;stroke:none"
             d="m 0,0 -16.284,-0.977 -7.947,-0.547 -0.177,-4.909 c 0,0 -0.742,-20.965 -0.76,-21.396 l -0.077,0 c 0,0 -0.006,-1.325 -0.016,-2.638 -0.03,-0.847 -0.07,-1.922 -0.07,-1.922 l 0.06,0 0,-0.606 c -0.158,-8.601 -0.232,-16.922 -0.232,-25.035 0,-12.394 0.177,-24.292 0.536,-35.949 l 0.149,-5.028 16.578,-0.739 13.992,-0.579 -0.141,5.838 c -0.363,11.499 -0.545,22.998 -0.545,35.067 0,8.58 0.092,17.448 0.271,26.801 0,0 0.016,0.894 0.028,1.424 l 0.017,0 0.09,5.107 0.031,1.201 L 6.306,0.278 0,0 Z" /></g><g
           transform="translate(134.6669,169.8128)"
           id="g60"><path
             id="path62"
             style="fill:#15569c;fill-opacity:1;fill-rule:nonzero;stroke:none"
             d="m 0,0 -0.072,-0.004 c -21.406,-0.681 -32.4,-13.576 -32.639,-38.3 0.528,-32.711 18.135,-40.304 32.806,-40.925 7.537,-0.183 13.172,0.803 18.972,3.289 l 3.471,1.489 -0.463,34.925 -9.477,-7.599 c -2.234,-1.799 -3.85,-2.43 -6.298,-2.443 -4.662,0.228 -5.219,7.519 -5.245,10.648 l 0,0.282 c 0,8.443 3.47,8.791 4.965,8.844 2.19,-0.029 4.258,-0.729 6.67,-2.278 l 9.043,-5.777 0.246,33.464 -3.645,1.505 C 12.772,-0.713 7.291,0.144 0,0" /></g><g
           transform="translate(183.0179,197.8094)"
           id="g64"><path
             id="path66"
             style="fill:#15569c;fill-opacity:1;fill-rule:nonzero;stroke:none"
             d="m 0,0 -28.659,-0.856 -0.087,-5.194 c -0.751,-27.859 -0.851,-57.137 -0.357,-94.909 l 0.075,-5.318 25.521,-0.521 9.391,-0.216 -0.087,5.722 c -0.009,1.066 -0.024,2.177 -0.044,3.255 0.044,-0.098 3.884,-9.024 3.884,-9.024 l 7.851,-0.091 33.68,-0.443 -3.751,7.924 -14.831,31.009 c 0,0 -1.082,2.29 -2.026,4.281 1.693,2.943 4.988,8.675 4.988,8.675 l 15.642,27.024 -9.883,-0.04 -14.744,-0.116 -16.555,-0.153 -1.613,-3.086 c 0,0 -1.394,-2.689 -2.737,-5.294 0.097,10.602 0.241,21.153 0.424,31.779 L 6.174,0.182 0,0 Z" /></g><g
           transform="translate(43.5689,144.1562)"
           id="g68"><path
             id="path70"
             style="fill:#fff200;fill-opacity:1;fill-rule:nonzero;stroke:none"
             d="m 0,0 c 1.141,-0.03 2.214,0.078 3.487,0.033 3.847,0.183 7.775,1.398 8.071,10.477 0.023,8.685 -3.785,9.354 -7.799,9.146 C 2.616,19.654 1.477,19.496 0.333,19.485 0.193,12.838 0.142,6.601 0,0 m -13.153,36.216 c 8.014,0.802 16.256,1.689 26.321,2.407 6.867,0.509 16.456,-4.441 16.32,-27.066 -0.557,-21.78 -8.17,-30.178 -17.295,-30.12 -4.121,0.02 -7.881,0.211 -11.719,0.271 0.184,-7.683 0.253,-15.003 0.586,-22.607 -5.362,0.425 -9.994,0.781 -14.611,1.156 -1.017,25.533 -0.86,50.511 0.398,75.959" /></g><g
           transform="translate(100.3066,168.841)"
           id="g72"><path
             id="path74"
             style="fill:#fff200;fill-opacity:1;fill-rule:nonzero;stroke:none"
             d="m 0,0 c -6.664,-0.268 -12.866,-0.52 -18.916,-0.704 0.172,6.826 0.438,13.361 0.711,20.111 6.086,0.411 12.167,0.851 18.849,1.15 C 0.294,13.638 0.157,6.919 0,0 m -19.069,-7.097 c 6.178,0.25 12.329,0.355 18.93,0.557 -0.406,-21.031 -0.386,-41.271 0.271,-62.13 -6.566,0.308 -12.8,0.454 -18.902,0.812 -0.62,20.463 -0.662,40.304 -0.299,60.761" /></g><g
           transform="translate(151.3145,98.9004)"
           id="g76"><path
             id="path78"
             style="fill:#fff200;fill-opacity:1;fill-rule:nonzero;stroke:none"
             d="m 0,0 c -5.078,-2.183 -9.804,-2.955 -16.296,-2.794 -18.377,0.78 -26.855,12.954 -27.218,35.347 0.215,21.754 8.55,32.238 26.992,32.833 6.524,0.128 11.227,-0.618 15.984,-2.464 -0.147,-6.554 -0.186,-12.947 -0.144,-19.499 -2.788,1.768 -5.974,3.197 -9.965,3.226 -6.579,-0.171 -10.878,-4.789 -10.782,-14.686 0.067,-10.276 4.243,-15.891 10.886,-16.154 4.03,-0.023 6.993,1.115 10.281,3.771 C -0.242,12.957 -0.189,6.574 0,0" /></g><g
           transform="translate(182.6982,136.6479)"
           id="g80"><path
             id="path82"
             style="fill:#fff200;fill-opacity:1;fill-rule:nonzero;stroke:none"
             d="M 0,0 0.184,0 C 4.775,9.005 9.31,17.601 13.97,26.699 23.299,26.744 32.072,26.9 41.638,26.931 35.658,16.836 30.219,7.11 24.37,-2.982 c 6.057,-12.777 11.848,-25.072 18.044,-37.823 -9.689,0.163 -18.908,0.258 -28.503,0.366 -4.735,11.037 -9.347,21.59 -13.707,32.596 l -0.196,0 c -0.047,-10.994 0.107,-21.501 0.27,-32.361 -7.92,0.168 -15.354,0.346 -23.217,0.481 -0.427,31.954 -0.498,63.053 0.351,94.694 7.634,0.284 15.365,0.39 23.144,0.684 C 0.248,37.019 -0.031,18.973 0,0" /></g><g
           transform="translate(234.2758,52.7876)"
           id="g84"><path
             id="path86"
             style="fill:#1478c7;fill-opacity:1;fill-rule:nonzero;stroke:none"
             d="m 0,0 -0.122,-0.041 c 0,0 0.093,0.02 0.128,0.041 L 0,0 Z" /></g><g
           transform="translate(302.8783,70.7273)"
           id="g88"><path
             id="path90"
             style="fill:#fbc707;fill-opacity:1;fill-rule:nonzero;stroke:none"
             d="m 0,0 c 29.519,0 53.451,24.197 53.451,54.046 0,29.849 -23.932,54.046 -53.451,54.046 -29.521,0 -53.454,-24.197 -53.454,-54.046 C -53.454,24.197 -29.521,0 0,0" /></g><g
           transform="translate(595.4604,177.3138)"
           id="g92"><path
             id="path94"
             style="fill:#231f20;fill-opacity:1;fill-rule:nonzero;stroke:none"
             d="m 0,0 -153.829,7.227 0.191,4.088 L 0.035,4.131 0,0 Z" /></g><g
           transform="translate(445.266,99.7933)"
           id="g96"><path
             id="path98"
             style="fill:#231f20;fill-opacity:1;fill-rule:nonzero;stroke:none"
             d="m 0,0 -0.184,4.089 150.428,6.722 -0.007,-4.1 L 0,0 Z" /></g><g
           transform="translate(583.3322,164.3217)"
           id="g100"><path
             id="path102"
             style="fill:#231f20;fill-opacity:1;fill-rule:nonzero;stroke:none"
             d="m 0,0 -1.596,0 0,6.287 -2.308,0 0,1.353 6.216,0 0,-1.353 L 0,6.287 0,0 Z" /></g><g
           transform="translate(593.9256,164.3217)"
           id="g104"><path
             id="path106"
             style="fill:#231f20;fill-opacity:1;fill-rule:nonzero;stroke:none"
             d="m 0,0 -1.487,0 0,6.384 -0.025,0 L -2.938,0 l -1.563,0 -1.4,6.384 -0.02,0 0,-6.384 -1.487,0 0,7.64 2.333,0 1.382,-6.027 0.019,0 L -2.307,7.64 0,7.64 0,0 Z" /></g><g
           transform="translate(573.3638,165.8565)"
           id="g108"><path
             id="path110"
             style="fill:#d2e1e7;fill-opacity:1;fill-rule:nonzero;stroke:none"
             d="m 0,0 -2.946,0.062 c 0,0 -7.755,0.165 -10.611,0.247 l -3.133,0.089 -1.231,-2.882 c -4.92,-11.508 -10.045,-23.161 -15.232,-34.765 -0.971,1.375 -1.934,2.741 -2.911,4.12 4.764,3.444 7.386,8.684 7.358,15.053 -0.026,5.233 -1.848,9.764 -5.267,13.104 -3.841,3.75 -9.448,5.835 -16.217,6.032 l -82.61,2.297 0.256,-20.002 24.757,-0.392 -0.28,-37.101 19.973,0.641 0.27,36.114 11.934,-0.205 c 0.053,-10.075 0.034,-20.168 -0.144,-30.181 l -0.086,-4.836 19.446,0.612 0.078,4.382 c 0.058,3.237 0.102,6.474 0.136,9.71 l 0.969,0.012 c 2.724,-3.923 5.429,-7.825 8.117,-11.71 l 1.425,-2.059 11.233,0.346 13.88,0.47 c 0,0 3.103,7.196 4.068,9.446 l 13.203,0.203 c 1.185,-2.897 2.49,-6.096 2.49,-6.097 l 1.199,-2.942 21.532,0.529 L 0,0 Z" /></g><g
           transform="translate(344.8069,76.7168)"
           id="g112"><path
             id="path114"
             style="fill:#d2e1e7;fill-opacity:1;fill-rule:nonzero;stroke:none"
             d="M 0,0 C 0,0 36.072,48.877 47.888,65.037 36.781,80.347 2.01,127.838 2.01,127.838 l 56.205,-3.401 c 0,0 12.241,-17.576 16.79,-24.145 3.976,5.774 15.277,22.248 15.277,22.248 l 44.374,-2.546 c 0,0 -26.932,-37.502 -36.322,-50.475 C 108.15,55.9 141.608,9.25 141.608,9.25 L 90.49,6.255 72.244,34.562 51.27,3.356 0,0 Z" /></g><g
           transform="translate(463.485,159.6132)"
           id="g116"><path
             id="path118"
             style="fill:#3776c4;fill-opacity:1;fill-rule:nonzero;stroke:none"
             d="m 0,0 c -5.095,0.11 -10.19,0.22 -15.286,0.331 -0.039,3.255 -0.091,6.51 -0.154,9.765 13.605,-0.47 27.21,-0.934 40.815,-1.392 0.059,-3.083 0.105,-6.166 0.142,-9.25 -4.895,0.104 -9.79,0.208 -14.685,0.313 0.148,-12.356 0.124,-24.715 -0.071,-37.071 C 7.15,-37.405 3.539,-37.506 -0.072,-37.608 0.127,-25.073 0.151,-12.536 0,0" /></g><g
           transform="translate(463.485,159.6132)"
           id="g120"><path
             id="path122"
             style="fill:none;stroke:#231f20;stroke-width:13.92700005;stroke-linecap:butt;stroke-linejoin:miter;stroke-miterlimit:4;stroke-dasharray:none;stroke-opacity:1"
             d="m 0,0 c -5.095,0.11 -10.19,0.22 -15.286,0.331 -0.039,3.255 -0.091,6.51 -0.154,9.765 13.605,-0.47 27.21,-0.934 40.815,-1.392 0.059,-3.083 0.105,-6.166 0.142,-9.25 -4.895,0.104 -9.79,0.208 -14.685,0.313 0.148,-12.356 0.124,-24.715 -0.071,-37.071 C 7.15,-37.405 3.539,-37.506 -0.072,-37.608 0.127,-25.073 0.151,-12.536 0,0 Z" /></g><g
           transform="translate(495.5055,168.0939)"
           id="g124"><path
             id="path126"
             style="fill:#231f20;fill-opacity:1;fill-rule:nonzero;stroke:none"
             d="m 0,0 c 7.075,-0.237 14.151,-0.473 21.226,-0.707 5.778,-0.191 10.25,-1.888 13.236,-4.806 2.519,-2.463 3.896,-5.859 3.926,-9.903 0,-0.041 0,-0.082 0.001,-0.123 0.047,-6.918 -3.851,-11.274 -9.562,-13.348 3.623,-5.108 7.215,-10.183 10.778,-15.226 -3.834,-0.103 -7.667,-0.206 -11.501,-0.31 -3.179,4.587 -6.382,9.2 -9.61,13.839 -0.044,0 -0.088,0 -0.132,-0.001 -2.614,-0.021 -5.229,-0.041 -7.844,-0.062 -0.022,-4.754 -0.069,-9.507 -0.142,-14.26 C 6.941,-45.001 3.507,-45.096 0.072,-45.191 0.306,-30.128 0.282,-15.062 0,0" /></g><g
           transform="translate(495.5055,168.0939)"
           id="g128"><path
             id="path130"
             style="fill:none;stroke:#231f20;stroke-width:13.92700005;stroke-linecap:butt;stroke-linejoin:miter;stroke-miterlimit:4;stroke-dasharray:none;stroke-opacity:1"
             d="m 0,0 c 7.075,-0.237 14.151,-0.473 21.226,-0.707 5.778,-0.191 10.25,-1.888 13.236,-4.806 2.519,-2.463 3.896,-5.859 3.926,-9.903 0,-0.041 0,-0.082 0.001,-0.123 0.047,-6.918 -3.851,-11.274 -9.562,-13.348 3.623,-5.108 7.215,-10.183 10.778,-15.226 -3.834,-0.103 -7.667,-0.206 -11.501,-0.31 -3.179,4.587 -6.382,9.2 -9.61,13.839 -0.044,0 -0.088,0 -0.132,-0.001 -2.614,-0.021 -5.229,-0.041 -7.844,-0.062 -0.022,-4.754 -0.069,-9.507 -0.142,-14.26 C 6.941,-45.001 3.507,-45.096 0.072,-45.191 0.306,-30.128 0.282,-15.062 0,0 Z" /></g><g
           transform="translate(553.6159,166.4812)"
           id="g132"><path
             id="path134"
             style="fill:#231f20;fill-opacity:1;fill-rule:nonzero;stroke:none"
             d="m 0,0 c 2.886,-0.094 5.771,-0.188 8.657,-0.282 6.206,-13.816 12.186,-27.492 17.948,-41.022 -3.177,-0.083 -6.353,-0.166 -9.53,-0.25 -1.232,3.02 -2.475,6.047 -3.729,9.08 -6.014,-0.08 -12.027,-0.16 -18.041,-0.241 -1.347,-3.168 -2.707,-6.342 -4.079,-9.524 -3.286,-0.088 -6.573,-0.176 -9.86,-0.264 C -12.186,-28.183 -5.978,-14.013 0,0" /></g><g
           transform="translate(553.6159,166.4812)"
           id="g136"><path
             id="path138"
             style="fill:none;stroke:#231f20;stroke-width:13.92700005;stroke-linecap:butt;stroke-linejoin:miter;stroke-miterlimit:4;stroke-dasharray:none;stroke-opacity:1"
             d="m 0,0 c 2.886,-0.094 5.771,-0.188 8.657,-0.282 6.206,-13.816 12.186,-27.492 17.948,-41.022 -3.177,-0.083 -6.353,-0.166 -9.53,-0.25 -1.232,3.02 -2.475,6.047 -3.729,9.08 -6.014,-0.08 -12.027,-0.16 -18.041,-0.241 -1.347,-3.168 -2.707,-6.342 -4.079,-9.524 -3.286,-0.088 -6.573,-0.176 -9.86,-0.264 C -12.186,-28.183 -5.978,-14.013 0,0 Z" /></g><g
           transform="translate(463.485,159.6132)"
           id="g140"><path
             id="path142"
             style="fill:#ffffff;fill-opacity:1;fill-rule:nonzero;stroke:none"
             d="m 0,0 c -5.095,0.11 -10.19,0.22 -15.286,0.331 -0.039,3.255 -0.091,6.51 -0.154,9.765 13.605,-0.47 27.21,-0.934 40.815,-1.392 0.059,-3.083 0.105,-6.166 0.142,-9.25 -4.895,0.104 -9.79,0.208 -14.685,0.313 0.148,-12.356 0.124,-24.715 -0.071,-37.071 C 7.15,-37.405 3.539,-37.506 -0.072,-37.608 0.127,-25.073 0.151,-12.536 0,0" /></g><g
           transform="translate(516.2975,146.0663)"
           id="g144"><path
             id="path146"
             style="fill:#ffffff;fill-opacity:1;fill-rule:nonzero;stroke:none"
             d="m 0,0 c 4.874,-0.015 7.65,2.459 7.625,6.121 0,0.041 0,0.083 0,0.124 -0.03,4.097 -3.031,6.272 -7.908,6.377 -3.356,0.071 -6.713,0.141 -10.069,0.213 0.05,-4.265 0.08,-8.531 0.089,-12.796 C -6.842,0.026 -3.421,0.013 0,0 m -20.792,22.028 c 7.075,-0.238 14.151,-0.473 21.226,-0.707 5.778,-0.191 10.25,-1.888 13.236,-4.806 2.519,-2.463 3.896,-5.86 3.926,-9.904 0,-0.04 0,-0.081 0.001,-0.122 0.047,-6.918 -3.851,-11.275 -9.562,-13.349 3.623,-5.107 7.215,-10.182 10.778,-15.225 -3.834,-0.103 -7.667,-0.207 -11.501,-0.311 -3.179,4.588 -6.382,9.201 -9.61,13.84 -0.044,0 -0.088,-0.001 -0.132,-0.001 -2.614,-0.021 -5.229,-0.042 -7.844,-0.062 -0.021,-4.754 -0.069,-9.508 -0.142,-14.26 -3.435,-0.095 -6.869,-0.19 -10.304,-0.284 0.234,15.062 0.21,30.128 -0.072,45.191" /></g><g
           transform="translate(563.6852,141.9538)"
           id="g148"><path
             id="path150"
             style="fill:#ffffff;fill-opacity:1;fill-rule:nonzero;stroke:none"
             d="M 0,0 C -1.875,4.463 -3.774,8.941 -5.697,13.433 -7.553,8.963 -9.432,4.478 -11.336,-0.022 -7.557,-0.015 -3.779,-0.007 0,0 m -10.069,24.527 c 2.885,-0.094 5.771,-0.188 8.656,-0.281 6.207,-13.817 12.187,-27.493 17.949,-41.023 -3.177,-0.083 -6.354,-0.166 -9.53,-0.249 -1.232,3.019 -2.475,6.046 -3.729,9.079 -6.014,-0.08 -12.027,-0.16 -18.041,-0.241 -1.348,-3.167 -2.707,-6.342 -4.079,-9.524 -3.287,-0.088 -6.573,-0.176 -9.86,-0.264 6.447,14.32 12.656,28.49 18.634,42.503" /></g><g
           id="g152"><g
             id="g154" /><g
             id="g160"><g
               style="opacity:0.5"
               id="g162"
               clip-path="url(#clipPath156)"><g
                 id="g164"
                 transform="translate(438.8259,176.5293)"><path
                   id="path166"
                   style="fill:#c9dbe3;fill-opacity:1;fill-rule:nonzero;stroke:none"
                   d="M 0,0 C 10.511,-0.416 15.461,0.042 25.972,-0.367 20.789,-7.59 14.647,-16.032 9.346,-23.387 2.32,-23.325 1.754,-22.979 -5.271,-22.917 -3.45,-15.254 -1.693,-7.615 0,0" /></g></g></g></g><g
           id="g168"><g
             id="g170" /><g
             id="g176"><g
               style="opacity:0.5"
               id="g178"
               clip-path="url(#clipPath172)"><g
                 id="g180"
                 transform="translate(456.5804,114.8386)"><path
                   id="path182"
                   style="fill:#c9dbe3;fill-opacity:1;fill-rule:nonzero;stroke:none"
                   d="M 0,0 -0.032,12.725 8.92,0.288 0,0 Z" /></g></g></g></g><g
           transform="translate(336.1082,81.283)"
           id="g184"><path
             id="path186"
             style="fill:#000915;fill-opacity:1;fill-rule:nonzero;stroke:none"
             d="M 0,0 13.824,18.68 C 25.045,33.844 36.301,49.14 48.095,65.25 36.807,80.782 26.012,95.55 15.237,110.21 l -13.814,18.793 23.27,-1.571 c 9.428,-0.635 18.858,-1.266 28.286,-1.891 l 5.182,-0.344 2.977,-4.256 c 4.782,-6.837 9.512,-13.627 14.194,-20.37 4.029,5.846 8.022,11.651 11.978,17.414 l 3.483,5.078 6.145,-0.397 c 8.257,-0.531 16.512,-1.06 24.769,-1.584 l 19.544,-1.241 -11.439,-15.896 C 120.71,91.298 111.43,78.442 101.964,65.383 111.969,51.53 121.763,37.903 131.357,24.507 L 142.807,8.521 123.174,7.388 C 114.699,6.898 106.222,6.405 97.747,5.907 L 91.655,5.549 88.191,10.575 C 83.761,17.008 79.285,23.488 74.763,30.021 69.551,22.623 64.278,15.165 58.944,7.65 L 55.943,3.419 50.765,3.105 C 41.577,2.552 32.387,1.992 23.196,1.427 L 0,0 Z" /></g><g
           transform="translate(351.5551,202.5842)"
           id="g188"><path
             id="path190"
             style="fill:#82ace0;fill-opacity:1;fill-rule:nonzero;stroke:none"
             d="M 0,0 5.219,-7.1 C 16.799,-22.854 28.824,-39.315 40.99,-56.066 28.121,-73.657 15.934,-90.223 3.794,-106.629 l -5.223,-7.057 8.764,0.538 c 9.192,0.565 18.385,1.126 27.578,1.681 l 1.956,0.118 1.134,1.599 c 7.008,9.875 14.176,20.025 21.355,30.24 6.205,-8.944 12.559,-18.135 18.936,-27.393 l 1.308,-1.899 2.303,0.135 c 8.478,0.498 16.957,0.991 25.435,1.481 l 7.417,0.429 -4.326,6.04 c -11.295,15.769 -21.86,30.454 -32.234,44.805 9.916,13.669 19.979,27.598 30.697,42.492 l 4.322,6.006 -7.384,0.469 c -8.258,0.524 -16.516,1.053 -24.774,1.585 l -2.321,0.15 -1.317,-1.918 c -5.762,-8.396 -11.602,-16.879 -17.521,-25.447 -6.616,9.553 -13.238,19.069 -19.731,28.353 l -1.124,1.608 -1.959,0.13 c -9.43,0.625 -18.862,1.255 -28.293,1.891 L 0,0 Z" /></g><g
           transform="translate(363.6389,96.2363)"
           id="g192"><path
             id="path194"
             style="fill:#ffffff;fill-opacity:1;fill-rule:nonzero;stroke:none"
             d="m 0,0 c 11.698,15.824 23.478,31.851 35.91,48.855 l 1.035,1.414 -1.029,1.417 C 23.994,68.109 12.679,83.61 1.435,98.925 8.763,98.433 16.092,97.943 23.422,97.457 31.018,86.589 38.489,75.84 45.837,65.211 l 1.979,-2.861 1.976,2.86 C 56.606,75.058 63.315,84.794 69.919,94.417 76.28,94.008 82.638,93.6 88.997,93.195 79.245,79.65 69.287,65.867 59.114,51.853 l -1.023,-1.411 1.021,-1.41 C 69.819,34.229 80.284,19.682 90.524,5.395 83.947,5.016 77.369,4.632 70.792,4.246 63.734,14.49 56.562,24.86 49.268,35.357 l -1.964,2.828 -1.978,-2.818 C 37.452,24.148 29.441,12.789 21.286,1.295 14.192,0.867 7.096,0.436 0,0" /></g><g
           transform="translate(360.0715,197.9082)"
           id="g196"><path
             id="path198"
             style="fill:#cce1f5;fill-opacity:1;fill-rule:nonzero;stroke:none"
             d="m 0,0 c 12.829,-17.453 25.335,-34.588 37.537,-51.398 -12.66,-17.314 -25.644,-34.981 -38.97,-52.989 9.194,0.565 18.389,1.125 27.582,1.681 8.386,11.817 16.621,23.492 24.713,35.02 7.555,-10.877 14.983,-21.617 22.286,-32.22 8.48,0.498 16.96,0.992 25.439,1.482 -11.049,15.426 -22.364,31.16 -33.96,47.192 11.059,15.236 21.864,30.198 32.429,44.879 C 88.797,-5.829 80.538,-5.3 72.278,-4.768 65.424,-14.754 58.461,-24.863 51.384,-35.094 43.82,-24.154 36.127,-13.086 28.298,-1.892 18.866,-1.266 9.433,-0.636 0,0 m 9.998,-5.492 c 5.227,-0.35 10.454,-0.698 15.681,-1.045 7.164,-10.252 14.474,-20.769 21.749,-31.291 l 3.955,-5.72 3.956,5.719 c 6.548,9.466 13,18.829 19.357,28.087 4.459,-0.287 8.918,-0.573 13.377,-0.858 -9.454,-13.121 -18.442,-25.552 -27.337,-37.807 l -2.047,-2.82 2.042,-2.823 c 9.356,-12.935 18.844,-26.111 28.861,-40.078 -4.673,-0.272 -9.348,-0.545 -14.021,-0.819 -7.017,10.18 -13.993,20.263 -20.76,30.004 l -3.929,5.656 -3.956,-5.637 C 39.087,-76.092 31.233,-87.225 23.56,-98.045 c -4.999,-0.303 -9.999,-0.607 -14.999,-0.912 10.692,14.477 21.501,29.188 32.858,44.72 l 2.068,2.828 -2.058,2.835 C 30.789,-33.915 20.244,-19.461 9.998,-5.492" /></g></g></g><g
       id="g200"><g
         id="g202"><g
           id="g208"><g
             id="g210"><path
               id="path226"
               style="fill:url(#radialGradient212);stroke:none"
               d="m 238.453,130.897 c 0,-29.917 24.253,-54.17 54.17,-54.17 l 0,0 c 29.917,0 54.17,24.253 54.17,54.17 l 0,0 c 0,29.918 -24.253,54.17 -54.17,54.17 l 0,0 c -29.917,0 -54.17,-24.252 -54.17,-54.17" /></g></g></g></g><g
       id="g228"><g
         id="g230"><g
           id="g236"><g
             id="g238"><path
               id="path256"
               style="fill:url(#radialGradient240);stroke:none"
               d="m 290.263,173.834 c -9.562,-0.002 -28.691,-12.641 -29.952,-23.869 l 0,0 c -1.07,-9.534 6.793,-9.142 10.409,-8.886 l 0,0 c 3.914,0.279 14.809,1.916 28.047,3.054 l 0,0 c -14.887,-4.327 -24.818,-9.832 -30.494,-16.192 l 0,0 c -6.941,-7.777 4.148,-28.898 15.709,-30.004 l 0,0 c 11.562,-1.107 20.532,13.626 21.472,14.224 l 0,0 C 300.369,94.574 292.288,90.632 292.288,90.632 l 0,0 c 2.563,-3.073 5.926,-2.01 6.976,-1.708 l 0,0 c 5.302,2.835 8.019,15.01 9.315,24.598 l 0,0 c 0.711,-5.61 10.728,-15.333 19.28,-9.962 l 0,0 c 10.933,8.234 12.217,19.079 11.161,25.783 l 0,0 c -1.242,7.885 -9.206,12.015 -22.886,15.354 l 0,0 c 6.838,-0.043 13.063,-1.051 16.662,0.056 l 0,0 c 3.429,1.054 3.978,2.271 3.57,3.623 l 0,0 c -4.964,16.472 -19.746,26.606 -26.773,23.763 l 0,0 c -1.706,-0.689 -2.115,-4.451 -2.115,-4.451 l 0,0 c 0,0 -0.026,-11.274 0.602,-21.083 l 0,0 c -0.923,7.813 -4.41,27.228 -17.816,27.229 l 0,0 c -0.001,0 -0.001,0 -0.001,0" /></g></g></g></g><g
       id="g258"><g
         clip-path="url(#clipPath262)"
         id="g260"><g
           transform="translate(298.9766,153.5071)"
           id="g266"><path
             id="path268"
             style="fill:#ffffff;fill-opacity:1;fill-rule:nonzero;stroke:none"
             d="M 0,0 -0.454,1.873 1.926,4.686 2.553,6.329 4.44,7.791 5.816,7.37 15.47,1.902 l 0.097,-2.221 -1.382,-3.969 -0.486,-0.191 -0.464,0.222 0.123,0.14 0.306,1.404 -0.078,0.443 -0.081,-0.542 -0.497,-1.193 -0.18,-1.346 -0.498,-1.176 -0.435,-0.205 -0.382,0.406 -0.153,-0.317 1.314,-1.216 1.093,-0.393 0.13,0.177 0.305,-0.011 0.664,-0.637 0.292,0.174 -0.038,0.474 -0.403,0.872 0.639,-0.017 c 0,0 2.202,-2.746 0.259,-9.115 l -0.491,0.271 -0.161,0.579 -0.206,0.005 -0.25,-4.829 -0.478,-0.449 -0.526,-2.864 -1.079,-1.245 -0.037,-0.879 -0.627,-0.219 -0.354,0.495 -0.532,-0.87 0.529,-0.502 -0.606,-0.863 0.456,-0.27 0,-0.187 0.381,-0.237 -0.072,-0.558 -0.86,-0.945 -1.476,-1.027 -1.965,-2.061 -1.718,-2.661 0.004,-0.665 -0.672,-0.851 -1.666,-0.894 -0.671,-0.004 0.867,1.57 0.01,0.829 0.647,0.669 0.013,1.34 -1.873,0.993 -1.342,0.088 -1.351,1.554 -0.701,-0.036 -0.429,-0.213 -3.774,3.402 -0.085,0.969 0.444,1.385 -0.39,0.672 0.528,2.256 0.792,0.946 0.543,0.069 1.22,1.189 0.439,-0.102 1.675,0.898 1.145,2.102 0.653,0.124 1.566,1.666 1.111,0.443 1.282,0.926 -0.034,0.859 -1.085,1.135 -0.24,0.506 -0.962,0.891 -1.182,2.05 -0.135,0.452 -0.3,-0.29 -0.707,0.047 -0.625,0.541 -0.009,1.367 -0.2,0.823 -1.369,0.936 0.317,0.961 -0.482,1.97 1.046,0.373 0.051,1.091 L 0,0 Z" /></g></g></g></g></svg>