<?xml version="1.0" encoding="utf-8"?>
<!-- Generator: Adobe Illustrator 18.1.1, SVG Export Plug-In . SVG Version: 6.00 Build 0)  -->
<!DOCTYPE svg PUBLIC "-//W3C//DTD SVG 1.1//EN" "http://www.w3.org/Graphics/SVG/1.1/DTD/svg11.dtd">
<svg version="1.1" id="Pick_3_-_New_Ball" xmlns="http://www.w3.org/2000/svg" xmlns:xlink="http://www.w3.org/1999/xlink" x="0px"
	 y="0px" width="558px" height="352px" viewBox="0 0 558 352" enable-background="new 0 0 558 352" xml:space="preserve">
<g>
	<g>
		<path fill="#00B259" d="M27,116.9h50.4c7.6,0,17.5,0,25.7,7.4c8.1,7.1,8.4,16.5,8.4,20.3c0,9.7-3.9,18.6-14.2,23.7
			c-9.6,4.8-20.7,4.8-37.7,4.8v32.9H27V116.9z M59.6,161.3c4.4,0,9.6-0.1,13.4-2.3c4.3-2.3,6.3-6.7,6.3-11.7c0-3.5-1.1-8.4-6.8-10.6
			c-2.8-1.1-6-1.4-12.8-1.5V161.3z"/>
		<path fill="#00B259" d="M27,98.8H9v125.1h68.6c0,0,0-25.6,0-33.2c10.2-0.5,19-2,27.6-6.3c15.4-7.6,24.3-22.1,24.3-39.8
			c0-17.3-7.8-27.9-14.5-33.7c-13.3-12-29.1-12-37.7-12H27z M77.4,134.9c6.6,0,10.8,0.2,13.6,2.8l0.2,0.2c1.6,1.4,2.3,3.4,2.3,6.7
			c0,5.1-1.9,6.4-4.1,7.5l-0.2,0.1C83.5,155,74,155,59.6,155c0,0-10.1,0-14.6,0c0-9.9,0-13.7,0-20.2
			C59.9,134.9,77.4,134.9,77.4,134.9z M115,110.8c0,0,0.1,0.1,0.1,0.1l-0.2-0.2C115,110.8,115,110.8,115,110.8z M105.2,184.4
			C105.2,184.4,105.2,184.4,105.2,184.4L105.2,184.4C105.3,184.4,105.3,184.4,105.2,184.4z"/>
		<path fill="#00B259" d="M41.6,135.2v44.1h18c4.9,0,13.9,0,22-4.5c9.8-5.3,15.7-15.6,15.7-27.5c0-12.5-7-23-18.2-27.3
			c-5.8-2.3-11.6-2.6-19.1-2.8l-18.3-0.3V135.2z M61.3,147.3c0-0.4,0.3-1,0.7-1.7c0.6,0.6,1.5,1.5,2.5,2.5c-0.9,0.9-1.5,1.5-2.1,2.1
			C61.7,149.2,61.3,148.1,61.3,147.3z M79,120c0.1,0,0.2,0,0.2,0.1l-0.5-0.2C78.9,119.9,79,120,79,120z M81.6,174.8
			c-0.1,0-0.1,0.1-0.2,0.1l0.5-0.2C81.8,174.8,81.7,174.8,81.6,174.8z"/>
		<path fill="#00B259" d="M126.2,150.1h24.1v57.4h-24.1V150.1z M125.3,134.4c0-3.7,3.9-9.9,13-9.9c9.1,0,13,6.2,13,9.9
			s-3.9,9.9-13,9.9c-3.3,0-6.6-0.8-9.2-2.9C127,139.6,125.3,137,125.3,134.4z"/>
		<polygon fill="#00B259" points="150.4,132.1 108.2,132.1 108.2,225.5 168.4,225.5 168.4,132.1 		"/>
		<path fill="#00B259" d="M107.3,134.4c0,7.9,3.9,15.7,10.5,21c5.6,4.5,12.7,6.9,20.5,6.9c19.2,0,31-14.5,31-27.9
			s-11.9-27.9-31-27.9S107.3,121,107.3,134.4z M133.3,134.4c0-5.8,3.6-8,5-8.1c0.3,0,1.1,0.2,2,1c2.8,2.2,3,6,3,7.1
			c0,5.8-3.6,7.9-5,8.1C136.9,142.3,133.3,140.2,133.3,134.4z"/>
		<path fill="#00B259" d="M222.4,194.2c-2.6,4.4-9.2,15.5-27.4,15.5c-20.2,0-31.6-15.5-31.6-30.5c0-20.4,16.2-31.5,32.4-31.5
			c17,0,23.1,9.6,26.6,15.1l-6.7,4.9c-2.9-3.1-6.2-6.6-12.7-6.6c-8.5,0-14.7,6.8-14.7,17.3c0,9.1,4.5,18.1,14.4,18.1
			c7,0,10.6-4.2,13-7.1L222.4,194.2z"/>
		<path fill="#00B259" d="M145.4,179.2c0,23.9,18.6,48.6,49.6,48.6c18.8,0,33.3-8.2,42.9-24.3l8.4-14.2c0,0-14.4-10.3-14.9-10.7
			c0.6-0.4,15.1-11.1,15.1-11.1l-8.8-14.2c-4-6.5-14.7-23.6-41.8-23.6C171.4,129.7,145.4,147,145.4,179.2z"/>
		<path fill="#00B259" d="M238.9,133.5h24.1v40.3l18.4-23.6h21.8l-18.7,22.7l15.3,27.1c2.1,3.7,2.7,4.5,5.2,7.7h-25.9
			c-2.4-2.5-3.6-3.8-6.1-7.8c-3-4.9-6.3-10.8-10.1-17.8v25.6h-24.1V133.5z"/>
		<path fill="#00B259" d="M220.9,115.5v110.1c0,0,21.8,0,24.1,0c0,0,0,0.7,0,0.7s0.5-0.7,0.5-0.7c7,0,97,0,97,0l-23.4-29.3
			c-2.1-2.7-2.2-2.7-3.7-5.4c0,0-4.9-8.7-9.2-16.2c5.3-6.4,35.1-42.6,35.1-42.6s-60.3,0-60.4,0c0-2.3,0-16.7,0-16.7H220.9z"/>
	</g>
	<path fill="#00B259" d="M283.9,98.2c6.4-14,16-34.4,40-52c19.6-14,47.2-23.6,78.4-23.6c50.8,0,102.8,26.8,102.8,76
		c0,25.2-13.6,49.6-41.6,61.6c-4.8,2.4-10,4-15.2,6c4.4,0.8,8.8,1.6,13.2,2.8c34,10,58.4,36,58.4,71.2c0,50-44.4,89.2-122.4,89.2
		c-92.8,0-112.4-55.2-122.4-83.6l41.6-17.2c6,14.4,18.4,42.8,58.8,42.8c32.4,0,46-21.2,46-36.8c0-8-3.2-16.8-9.6-23.2
		c-14-14.8-36.8-14.8-52.4-14.8v-45.2c6.8,0,15.6,0,25.6-2.8c22.4-6.4,30-22,30-33.2c0-16.4-14.8-32-38.4-32
		c-29.2,0-42.8,22-51.6,35.2L283.9,98.2z"/>
	<path fill="#00B259" d="M313.4,31.6l-0.2,0.1c-28.2,20.7-39.2,44.7-45.7,59l-7.3,15.9l71,35.2l9.7-14.6
		c9.7-14.6,18.5-25.8,35.7-25.8c12.8,0,20.4,7.1,20.4,14c0,1.1-0.5,11.2-16.9,15.9c-7.5,2.1-14.5,2.1-20.6,2.1h-18v81.2h18
		c12.9,0,30.6,0,39.3,9.2l0.2,0.2l0.2,0.2c3.2,3.2,4.3,7.5,4.3,10.5c0,5.2-5,18.8-28,18.8c-26.7,0-35.5-15.7-42.2-31.7l-6.9-16.6
		l-74,30.6l5.7,16.1c10.1,28.6,33.7,95.6,139.4,95.6c41.2,0,76.3-10.2,101.4-29.6c25.1-19.3,39-46.9,39-77.6
		c0-21.2-7.2-40.8-20.7-56.7c-6.8-7.9-15-14.7-24.3-20.3c19.1-15.9,30.2-39,30.2-64.6c0-28.8-14.3-54.1-40.4-71.4
		c-21.9-14.5-50.5-22.6-80.4-22.6C369.3,4.6,337.8,14.2,313.4,31.6z M402.3,40.6c41.1,0,84.8,20.3,84.8,58c0,20.3-11.2,36.7-30.7,45
		l-0.5,0.2l-0.5,0.2c-2.4,1.2-5.5,2.3-8.6,3.5L380,172.2l65,11.7c4.1,0.7,7.9,1.4,11.5,2.4c28.4,8.4,45.3,28.5,45.3,53.8
		c0,19.5-8.6,36.5-24.9,49.1c-18.8,14.5-46.3,22.1-79.4,22.1c-65.7,0-88.1-30-99.3-55.6c4.6-1.9,5.2-2.1,9.7-4
		c9.9,17,29,37.7,67.6,37.7c41.6,0,64-28.2,64-54.8c0-13.3-5.4-26.3-14.7-35.8c-13.5-14.2-31.7-18.4-47.3-19.7c0-5.1,0-5.7,0-10.7
		c3.9-0.5,8.1-1.3,12.4-2.5c31.9-9.1,43.1-32.9,43.1-50.5c0-24.6-21.1-50-56.4-50c-29.1,0-46.5,16.1-57.4,30.2
		c-5-2.5-5.8-2.9-11.1-5.5c5.5-9.5,13.4-19.8,26.3-29.3C352.4,48,377.2,40.6,402.3,40.6z M424.8,198.8c0.1,0.1,0.1,0.1,0.2,0.2
		l-0.3-0.4C424.7,198.7,424.7,198.8,424.8,198.8z"/>
	<g>
		<path fill="#FFF200" d="M27,116.9h50.4c7.6,0,17.5,0,25.7,7.4c8.1,7.1,8.4,16.5,8.4,20.3c0,9.7-3.9,18.6-14.2,23.7
			c-9.6,4.8-20.7,4.8-37.7,4.8v32.9H27V116.9z M59.6,161.3c4.4,0,9.6-0.1,13.4-2.3c4.3-2.3,6.3-6.7,6.3-11.7c0-3.5-1.1-8.4-6.8-10.6
			c-2.8-1.1-6-1.4-12.8-1.5V161.3z"/>
		<path fill="#FFF200" d="M27,107.8h-9v107.1h50.6c0,0,0-23.4,0-32.9c13-0.2,23.3-1,32.7-5.7c12.4-6,19.2-17.3,19.2-31.7
			c0-14-6.2-22.4-11.4-27c-10.8-9.7-23.4-9.7-31.7-9.7H27z M77.4,125.9c6.9,0,14,0,19.6,5.1l0.1,0.1c3.6,3.2,5.4,7.6,5.4,13.5
			c0,7.5-3,12.6-9.2,15.6c-7.8,3.9-17.5,3.9-33.7,3.9h-9c0,0,0,23.4,0,32.9c-5.8,0-8.8,0-14.6,0c0-12.9,0-58.1,0-71
			C48.1,125.9,77.4,125.9,77.4,125.9z M109.1,117.6C109.1,117.6,109.1,117.6,109.1,117.6L109.1,117.6
			C109,117.5,109.1,117.6,109.1,117.6z"/>
		<path fill="#FFF200" d="M50.6,135.2v35.1h9c5.6,0,12.1-0.3,17.7-3.4c7-3.7,11-10.9,11-19.6c0-8.9-4.7-15.9-12.5-18.9
			c-4.5-1.8-9.2-2-16-2.1l-9.2-0.2V135.2z M68.6,145c0.1,0,0.3,0.1,0.4,0.1l0.1,0l0.1,0c0.6,0.2,1,0.4,1,2.2c0,1.4-0.3,3.1-1.5,3.8
			c0,0-0.1,0.1-0.1,0.1C68.6,148.2,68.6,147.9,68.6,145z M75.8,128.4c0,0,0.1,0,0.1,0l-0.2-0.1C75.7,128.3,75.7,128.4,75.8,128.4z
			 M77.3,166.9C77.2,167,77.2,167,77.3,166.9l0.1-0.1C77.4,166.9,77.3,166.9,77.3,166.9z"/>
		<path fill="#FFF200" d="M126.2,150.1h24.1v57.4h-24.1V150.1z M125.3,134.4c0-3.7,3.9-9.9,13-9.9c9.1,0,13,6.2,13,9.9
			s-3.9,9.9-13,9.9c-3.3,0-6.6-0.8-9.2-2.9C127,139.6,125.3,137,125.3,134.4z"/>
		<path fill="#FFF200" d="M150.4,141.1h-33.1v75.4h42.1v-75.4H150.4z M141.4,159.1c0,10.4,0,29,0,39.4c-2.9,0-3.3,0-6.1,0
			c0-10.4,0-29,0-39.4C138.1,159.1,138.5,159.1,141.4,159.1z"/>
		<path fill="#FFF200" d="M116.3,134.4c0,5.2,2.7,10.4,7.2,14c4,3.2,9.2,4.9,14.9,4.9c13.6,0,22-9.8,22-18.9s-8.4-18.9-22-18.9
			C124.7,115.5,116.3,125.3,116.3,134.4z M138.3,133.5c1.9,0,2.9,0.4,3.5,0.9c-0.6,0.4-1.6,0.9-3.5,0.9c-1.4,0-2.6-0.3-3.4-0.9
			C135.4,133.9,136.5,133.5,138.3,133.5z"/>
		<path fill="#FFF200" d="M222.4,194.2c-2.6,4.4-9.2,15.5-27.4,15.5c-20.2,0-31.6-15.5-31.6-30.5c0-20.4,16.2-31.5,32.4-31.5
			c17,0,23.1,9.6,26.6,15.1l-6.7,4.9c-2.9-3.1-6.2-6.6-12.7-6.6c-8.5,0-14.7,6.8-14.7,17.3c0,9.1,4.5,18.1,14.4,18.1
			c7,0,10.6-4.2,13-7.1L222.4,194.2z"/>
		<path fill="#FFF200" d="M154.4,179.2c0,19.4,15.2,39.6,40.6,39.6c23.3,0,32.2-15,35.1-19.9l4.2-7.1l-6.7-4.8c0,0-9.5-6.8-11.5-8.3
			c1.8-1.3,18.3-13.5,18.3-13.5l-4.4-7.1c-3.6-5.8-12.1-19.4-34.2-19.4C175.8,138.7,154.4,152.9,154.4,179.2z M172.4,179.2
			c0-11.6,6.9-18.5,15.1-21.2c-5.1,4.7-8.3,11.9-8.3,20.4c0,8.9,3,16.4,8.1,21.2C177.6,196.6,172.4,187.7,172.4,179.2z M197.3,178.5
			c0-2,0.4-8.3,5.7-8.3c2.4,0,3.3,0.7,6.1,3.8c0,0,2.5,2.7,4.1,4.4c-1.3,1.5-4.4,5.4-4.4,5.4c-2.2,2.7-3.4,3.9-6.1,3.9
			C197.7,187.5,197.3,180.6,197.3,178.5z"/>
		<path fill="#FFF200" d="M238.9,133.5h24.1v40.3l18.4-23.6h21.8l-18.7,22.7l15.3,27.1c2.1,3.7,2.7,4.5,5.2,7.7h-25.9
			c-2.4-2.5-3.6-3.8-6.1-7.8c-3-4.9-6.3-10.8-10.1-17.8v25.6h-24.1V133.5z"/>
		<path fill="#FFF200" d="M263.1,124.5h-33.1v92.1h42.2c0,0,0-1.8,0-3.5c0.2,0.2,0.4,0.5,0.7,0.7l2.7,2.8h48.5L312.2,202
			c-2.3-2.8-2.6-3.3-4.5-6.5c0,0-7.8-13.8-12.3-21.7c4.9-6,26.9-32.6,26.9-32.6H277c0,0-4.5,5.8-5,6.4c0-6.4,0-23.1,0-23.1H263.1z
			 M254.1,142.5c0,1.3,0,48.5,0,56.1c-2.9,0-3.3,0-6.1,0c0-12,0-44.1,0-56.1C250.8,142.5,251.2,142.5,254.1,142.5z M274.7,173.6
			c0.9,1.6,10.1,17.9,14.2,25c-2.6,0-4.1,0-5.6,0c-0.7-0.9-1.4-1.9-2.5-3.6c-3.1-5-6.6-11.4-9.6-17
			C271.5,177.6,273.4,175.3,274.7,173.6z"/>
	</g>
	<path fill="#FFF200" d="M283.9,98.2c6.4-14,16-34.4,40-52c19.6-14,47.2-23.6,78.4-23.6c50.8,0,102.8,26.8,102.8,76
		c0,25.2-13.6,49.6-41.6,61.6c-4.8,2.4-10,4-15.2,6c4.4,0.8,8.8,1.6,13.2,2.8c34,10,58.4,36,58.4,71.2c0,50-44.4,89.2-122.4,89.2
		c-92.8,0-112.4-55.2-122.4-83.6l41.6-17.2c6,14.4,18.4,42.8,58.8,42.8c32.4,0,46-21.2,46-36.8c0-8-3.2-16.8-9.6-23.2
		c-14-14.8-36.8-14.8-52.4-14.8v-45.2c6.8,0,15.6,0,25.6-2.8c22.4-6.4,30-22,30-33.2c0-16.4-14.8-32-38.4-32
		c-29.2,0-42.8,22-51.6,35.2L283.9,98.2z"/>
	<path fill="#FFF200" d="M318.7,38.9c-26.4,19.4-36.8,42-42.9,55.6l-3.6,7.9l56.1,27.8l5.3-8c8.4-12.6,19.8-29.8,43.2-29.8
		c19.1,0,29.4,11.8,29.4,23c0,8.2-6.1,19.6-23.5,24.5c-8.8,2.5-16.7,2.5-23.1,2.5h-9v63.2h9c14.6,0,34.5,0,45.8,12l0.1,0.1l0.1,0.1
		c4.4,4.4,7,10.6,7,16.8c0,11.2-9.8,27.8-37,27.8c-35,0-45.1-24.2-50.5-37.2l-3.5-8.3l-57.8,23.9l2.8,8
		c10.2,29.1,31.5,89.6,130.9,89.6c39.2,0,72.4-9.6,95.9-27.7c22.9-17.6,35.5-42.6,35.5-70.5c0-33.8-20.3-62-53.6-75.8
		c24.5-13.7,38.8-37.7,38.8-65.8c0-25.7-12.9-48.4-36.4-63.9c-20.1-13.4-47.6-21-75.4-21C371.2,13.6,341.5,22.6,318.7,38.9z
		 M329.2,53.5c19.7-14.1,45.7-21.9,73.1-21.9c45.5,0,93.8,23.5,93.8,67c0,23.7-13.5,43.6-36.1,53.3l-0.2,0.1l-0.2,0.1
		c-2.9,1.5-6.2,2.6-9.6,3.9l-35.7,13.2l32.5,5.8c4.3,0.8,8.4,1.5,12.4,2.6c32,9.4,51.8,33.4,51.8,62.5c0,22.4-9.8,41.9-28.4,56.2
		c-20.4,15.7-49.7,24-84.9,24c-37.6,0-66.5-9.6-85.9-28.6c-13.4-13.1-20.3-28.2-25-41c7.9-3.3,17.5-7.2,25.5-10.6
		c7.7,15.8,24.3,40.1,63.5,40.1c35.7,0,55-23.6,55-45.8c0-10.8-4.5-21.8-12.2-29.5c-13.9-14.6-33.8-17-49.8-17.4
		c0-8.7,0-18.8,0-27.4c5.6-0.3,12-1,19-3c27-7.7,36.6-27.4,36.6-41.9c0-20.2-17.7-41-47.4-41c-29.2,0-44.9,18.5-54.7,32.6
		c-7.5-3.7-18.1-9-26.2-13C301.8,82,311,66.9,329.2,53.5z M467.5,168.3l-0.5,0.2C467.2,168.4,467.3,168.4,467.5,168.3
		C467.4,168.3,467.5,168.3,467.5,168.3z M418.3,205.1C418.4,205.1,418.4,205.2,418.3,205.1L418.3,205.1
		C418.3,205.1,418.3,205.1,418.3,205.1z"/>
	<path d="M530.2,305.6h-2.1v-8.3h-3v-1.8h8.2v1.8h-3V305.6z"/>
	<path d="M544.1,305.6h-2v-8.4h0l-1.9,8.4h-2.1l-1.8-8.4h0v8.4h-2v-10h3.1l1.8,7.9h0l1.8-7.9h3V305.6z"/>
	<g>
		<path fill="#00B259" d="M27,116.9h50.4c7.6,0,17.5,0,25.7,7.4c8.1,7.1,8.4,16.5,8.4,20.3c0,9.7-3.9,18.6-14.2,23.7
			c-9.6,4.8-20.7,4.8-37.7,4.8v32.9H27V116.9z M59.6,161.3c4.4,0,9.6-0.1,13.4-2.3c4.3-2.3,6.3-6.7,6.3-11.7c0-3.5-1.1-8.4-6.8-10.6
			c-2.8-1.1-6-1.4-12.8-1.5V161.3z"/>
		<path fill="#00B259" d="M126.2,150.1h24.1v57.4h-24.1V150.1z M125.3,134.4c0-3.7,3.9-9.9,13-9.9c9.1,0,13,6.2,13,9.9
			s-3.9,9.9-13,9.9c-3.3,0-6.6-0.8-9.2-2.9C127,139.6,125.3,137,125.3,134.4z"/>
		<path fill="#00B259" d="M222.4,194.2c-2.6,4.4-9.2,15.5-27.4,15.5c-20.2,0-31.6-15.5-31.6-30.5c0-20.4,16.2-31.5,32.4-31.5
			c17,0,23.1,9.6,26.6,15.1l-6.7,4.9c-2.9-3.1-6.2-6.6-12.7-6.6c-8.5,0-14.7,6.8-14.7,17.3c0,9.1,4.5,18.1,14.4,18.1
			c7,0,10.6-4.2,13-7.1L222.4,194.2z"/>
		<path fill="#00B259" d="M238.9,133.5h24.1v40.3l18.4-23.6h21.8l-18.7,22.7l15.3,27.1c2.1,3.7,2.7,4.5,5.2,7.7h-25.9
			c-2.4-2.5-3.6-3.8-6.1-7.8c-3-4.9-6.3-10.8-10.1-17.8v25.6h-24.1V133.5z"/>
	</g>
	<path fill="#00B259" d="M283.9,98.2c6.4-14,16-34.4,40-52c19.6-14,47.2-23.6,78.4-23.6c50.8,0,102.8,26.8,102.8,76
		c0,25.2-13.6,49.6-41.6,61.6c-4.8,2.4-10,4-15.2,6c4.4,0.8,8.8,1.6,13.2,2.8c34,10,58.4,36,58.4,71.2c0,50-44.4,89.2-122.4,89.2
		c-92.8,0-112.4-55.2-122.4-83.6l41.6-17.2c6,14.4,18.4,42.8,58.8,42.8c32.4,0,46-21.2,46-36.8c0-8-3.2-16.8-9.6-23.2
		c-14-14.8-36.8-14.8-52.4-14.8v-45.2c6.8,0,15.6,0,25.6-2.8c22.4-6.4,30-22,30-33.2c0-16.4-14.8-32-38.4-32
		c-29.2,0-42.8,22-51.6,35.2L283.9,98.2z"/>
	<ellipse fill="#008743" cx="392" cy="251.9" rx="55.2" ry="55.8"/>
	<g>
		
			<radialGradient id="SVGID_1_" cx="527.5863" cy="299.9083" r="114.9465" gradientTransform="matrix(0.6198 -0.2211 0.2255 0.6322 -3.8475 161.5783)" gradientUnits="userSpaceOnUse">
			<stop  offset="0.3348" style="stop-color:#FFFFFF"/>
			<stop  offset="0.5968" style="stop-color:#FFFFFF"/>
			<stop  offset="0.6574" style="stop-color:#FCFCFC"/>
			<stop  offset="0.6998" style="stop-color:#F3F3F3"/>
			<stop  offset="0.7366" style="stop-color:#E4E4E4"/>
			<stop  offset="0.7702" style="stop-color:#CECECE"/>
			<stop  offset="0.8017" style="stop-color:#B1B1B1"/>
			<stop  offset="0.8312" style="stop-color:#8F8F8F"/>
			<stop  offset="0.8593" style="stop-color:#676767"/>
			<stop  offset="0.8598" style="stop-color:#666666"/>
		</radialGradient>
		<circle fill="url(#SVGID_1_)" cx="382.2" cy="245.7" r="55.5"/>
		
			<radialGradient id="SVGID_2_" cx="440.0064" cy="218.5076" r="45.7451" gradientTransform="matrix(0.9191 0 0 0.9274 -4.4994 34.5935)" gradientUnits="userSpaceOnUse">
			<stop  offset="1.866902e-02" style="stop-color:#D7DF23"/>
			<stop  offset="0.3263" style="stop-color:#8DC63F"/>
			<stop  offset="0.4358" style="stop-color:#85BD3F"/>
			<stop  offset="0.5702" style="stop-color:#73AD3F"/>
			<stop  offset="0.7159" style="stop-color:#56953F"/>
			<stop  offset="0.9264" style="stop-color:#1F733B"/>
			<stop  offset="1" style="stop-color:#006838"/>
		</radialGradient>
		<path fill="url(#SVGID_2_)" d="M406.3,231.5c7,0,13.4,1.1,17.1-0.1c3.5-1.1,4.1-2.3,3.7-3.7c-5.1-16.9-20.2-27.2-27.4-24.3
			c-1.7,0.7-2.2,4.6-2.2,4.6s0,11.5,0.6,21.6c-0.9-8-4.5-27.9-18.2-27.9c-9.8,0-29.4,12.9-30.7,24.4c-1.1,9.8,7,9.4,10.7,9.1
			c4-0.3,15.2-2,28.7-3.1c-15.2,4.4-25.4,10.1-31.2,16.6c-7.1,8,4.2,29.6,16.1,30.7s21-14,22-14.6c-5.2,18-13.5,22-13.5,22
			c2.6,3.1,6.1,2.1,7.1,1.7c5.4-2.9,8.2-15.4,9.5-25.2c0.7,5.7,11,15.7,19.7,10.2c11.2-8.4,12.5-19.5,11.4-26.4
			C428.5,239.2,420.3,235,406.3,231.5z"/>
		<path fill="#FFFFFF" d="M388.7,222.5l-0.5-1.9l2.4-2.9l0.6-1.7l1.9-1.5l1.4,0.4l9.9,5.6l0.1,2.3l-1.4,4.1l-0.5,0.2l-0.5-0.2
			l0.1-0.1l0.3-1.4l-0.1-0.5l-0.1,0.6l-0.5,1.2l-0.2,1.4l-0.5,1.2l-0.4,0.2l-0.4-0.4l-0.2,0.3l1.3,1.2l1.1,0.4l0.1-0.2l0.3,0
			l0.7,0.7l0.3-0.2l0-0.5l-0.4-0.9l0.7,0c0,0,2.3,2.8,0.3,9.3l-0.5-0.3l-0.2-0.6l-0.2,0l-0.3,4.9l-0.5,0.5l-0.5,2.9l-1.1,1.3l0,0.9
			l-0.6,0.2l-0.4-0.5l-0.5,0.9l0.5,0.5l-0.6,0.9l0.5,0.3v0.2l0.4,0.2l-0.1,0.6l-0.9,1l-1.5,1.1l-2,2.1l-1.8,2.7l0,0.7l-0.7,0.9
			l-1.7,0.9l-0.7,0l0.9-1.6l0-0.8l0.7-0.7l0-1.4l-1.9-1l-1.4-0.1l-1.4-1.6l-0.7,0l-0.4,0.2l-3.9-3.5l-0.1-1l0.5-1.4l-0.4-0.7
			l0.5-2.3l0.8-1l0.6-0.1l1.3-1.2l0.4,0.1l1.7-0.9l1.2-2.2l0.7-0.1l1.6-1.7l1.1-0.5l1.3-0.9l0-0.9l-1.1-1.2l-0.2-0.5l-1-0.9
			l-1.2-2.1l-0.1-0.5l-0.3,0.3l-0.7,0l-0.6-0.6l0-1.4l-0.2-0.8l-1.4-1l0.3-1l-0.5-2l1.1-0.4l0.1-1.1L388.7,222.5z"/>
	</g>
</g>
</svg>
