<?xml version="1.0" encoding="utf-8"?>
<!-- Generator: Adobe Illustrator 16.0.0, SVG Export Plug-In . SVG Version: 6.00 Build 0)  -->
<!DOCTYPE svg PUBLIC "-//W3C//DTD SVG 1.1//EN" "http://www.w3.org/Graphics/SVG/1.1/DTD/svg11.dtd">
<svg version="1.1" id="Layer_1" xmlns="http://www.w3.org/2000/svg" xmlns:xlink="http://www.w3.org/1999/xlink" x="0px" y="0px"
	 width="612px" height="309px" viewBox="0 236.167 612 309" enable-background="new 0 236.167 612 309" xml:space="preserve">
<g>
	<g>
		<defs>
			<rect id="SVGID_1_" x="-35.501" y="206.792" width="681" height="370.752"/>
		</defs>
		<clipPath id="SVGID_2_">
			<use xlink:href="#SVGID_1_"  overflow="visible"/>
		</clipPath>
		<path clip-path="url(#SVGID_2_)" fill="#EE3E42" d="M447.26,255.079h104.577v166.306h43.216v52.592h-43.216v54.124h-94.639
			v-54.124H320.633v-51.827L447.26,255.079z M457.198,337.847c-3.892,7.343-8.237,14.311-12.536,21.271
			c-9.093,14.695-22.881,33.24-44.521,62.267h57.057V337.847z"/>
	</g>
	<g>
		<defs>
			<rect id="SVGID_3_" x="-35.501" y="206.792" width="681" height="370.752"/>
		</defs>
		<clipPath id="SVGID_4_">
			<use xlink:href="#SVGID_3_"  overflow="visible"/>
		</clipPath>
		<path clip-path="url(#SVGID_4_)" fill="#EE3E42" d="M551.837,237.944h-113.1L303.516,416.375v74.732H440.07v54.128h128.897
			v-54.128h43.218v-86.862h-43.218V237.944H551.837z M534.7,272.183v166.331h43.222v18.333H534.7v54.171h-60.362v-54.171H337.725
			v-28.924c6.334-8.342,108.854-143.601,118.048-155.74H534.7z"/>
	</g>
	<g>
		<defs>
			<rect id="SVGID_5_" x="-35.501" y="206.792" width="681" height="370.752"/>
		</defs>
		<clipPath id="SVGID_6_">
			<use xlink:href="#SVGID_5_"  overflow="visible"/>
		</clipPath>
		<path clip-path="url(#SVGID_6_)" fill="#EE3E42" d="M430.114,350.062c-8.694,14.105-22.604,32.76-43.615,60.98l-20.385,27.397
			l34.027,0.074h74.195V337.847l-32.273-8.01C438.457,336.674,434.192,343.501,430.114,350.062 M440.069,396.146v8.099h-5.92
			C436.205,401.447,438.184,398.745,440.069,396.146"/>
	</g>
	<g>
		<defs>
			<rect id="SVGID_7_" x="-35.501" y="206.792" width="681" height="370.752"/>
		</defs>
		<clipPath id="SVGID_8_">
			<use xlink:href="#SVGID_7_"  overflow="visible"/>
		</clipPath>
		<path clip-path="url(#SVGID_8_)" fill="#FFF100" d="M447.26,255.079h104.577v166.306h43.216v52.592h-43.216v54.124h-94.639
			v-54.124H320.633v-51.827L447.26,255.079z M457.198,337.847c-3.892,7.343-8.237,14.311-12.536,21.271
			c-9.093,14.695-22.881,33.24-44.521,62.267h57.057V337.847z"/>
	</g>
	<g>
		<defs>
			<rect id="SVGID_9_" x="-35.501" y="206.792" width="681" height="370.752"/>
		</defs>
		<clipPath id="SVGID_10_">
			<use xlink:href="#SVGID_9_"  overflow="visible"/>
		</clipPath>
		<path clip-path="url(#SVGID_10_)" fill="#FFF100" d="M551.837,246.51H443.024L312.086,419.288v63.259h136.552v54.119h111.761
			v-54.119h43.226v-69.73h-43.226V246.51H551.837z M543.267,263.625v166.322h43.224v35.46h-43.224v54.181H465.77v-54.181H329.165
			v-40.396c3.31-4.339,117.478-154.96,122.329-161.385L543.267,263.625L543.267,263.625z"/>
	</g>
	<g>
		<defs>
			<rect id="SVGID_11_" x="-35.501" y="206.792" width="681" height="370.752"/>
		</defs>
		<clipPath id="SVGID_12_">
			<use xlink:href="#SVGID_11_"  overflow="visible"/>
		</clipPath>
		<path clip-path="url(#SVGID_12_)" fill="#FFF100" d="M437.388,354.589c-8.866,14.381-22.848,33.149-44.036,61.581l-10.169,13.699
			l16.96,0.076h65.627v-92.098l-16.17-4.003C445.871,340.95,441.535,347.885,437.388,354.589 M448.638,368.819v43.998h-31.435
			C430.931,394.282,441.155,380.325,448.638,368.819"/>
	</g>
	<g>
		<defs>
			<rect id="SVGID_13_" x="-35.501" y="206.792" width="681" height="370.752"/>
		</defs>
		<clipPath id="SVGID_14_">
			<use xlink:href="#SVGID_13_"  overflow="visible"/>
		</clipPath>
		<polygon clip-path="url(#SVGID_14_)" fill="#231F20" points="581.03,541.342 579.041,541.342 579.041,533.512 576.172,533.512 
			576.172,531.821 583.896,531.821 583.896,533.512 581.03,533.512 		"/>
	</g>
	<g>
		<defs>
			<rect id="SVGID_15_" x="-35.501" y="206.792" width="681" height="370.752"/>
		</defs>
		<clipPath id="SVGID_16_">
			<use xlink:href="#SVGID_15_"  overflow="visible"/>
		</clipPath>
		<polygon clip-path="url(#SVGID_16_)" fill="#231F20" points="594.263,541.342 592.393,541.342 592.393,533.367 592.369,533.367 
			590.574,541.342 588.607,541.342 586.906,533.367 586.879,533.367 586.879,541.342 585.002,541.342 585.002,531.821 
			587.894,531.821 589.645,539.32 589.669,539.32 591.396,531.821 594.263,531.821 		"/>
	</g>
	<g>
		<defs>
			<rect id="SVGID_17_" x="-35.501" y="206.792" width="681" height="370.752"/>
		</defs>
		<clipPath id="SVGID_18_">
			<use xlink:href="#SVGID_17_"  overflow="visible"/>
		</clipPath>
		<path clip-path="url(#SVGID_18_)" fill="#EE3E42" d="M18.851,388.053h47.924c7.171,0,16.644,0,24.417,7.029
			c7.662,6.726,8.019,15.705,8.019,19.278c0,9.231-3.706,17.741-13.542,22.527c-9.089,4.555-19.635,4.555-35.785,4.555v31.254
			H18.851V388.053z M49.884,430.291c4.176,0,9.091-0.108,12.689-2.146c4.062-2.144,5.987-6.313,5.987-11.144
			c0-3.357-1.072-8.028-6.47-10.055c-2.62-1.046-5.755-1.321-12.207-1.43L49.884,430.291L49.884,430.291z"/>
	</g>
	<g>
		<defs>
			<rect id="SVGID_19_" x="-35.501" y="206.792" width="681" height="370.752"/>
		</defs>
		<clipPath id="SVGID_20_">
			<use xlink:href="#SVGID_19_"  overflow="visible"/>
		</clipPath>
		<path clip-path="url(#SVGID_20_)" fill="#EE3E42" d="M18.851,370.918H1.741v118.918H66.99v-31.574
			c9.686-0.471,18.019-1.892,26.255-6.027c14.667-7.146,23.102-20.951,23.102-37.873c0-16.386-7.44-26.417-13.74-31.989
			c-12.66-11.445-27.73-11.453-35.831-11.453L18.851,370.918L18.851,370.918z M66.775,405.184c6.221,0,10.207,0.158,12.898,2.582
			l0.246,0.237c1.534,1.327,2.189,3.253,2.189,6.357c0,4.866-1.794,6.127-3.926,7.145l-0.166,0.066
			c-5.472,2.74-14.486,2.74-28.131,2.74H35.981v-19.129L66.775,405.184L66.775,405.184z M102.606,382.371
			c0.025,0.023,0.077,0.037,0.105,0.061l-0.244-0.211C102.511,382.261,102.562,382.312,102.606,382.371 M93.244,452.233
			c-0.021,0.01-0.036,0.021-0.056,0.03l0.14-0.065C93.301,452.212,93.27,452.221,93.244,452.233"/>
	</g>
	<g>
		<defs>
			<rect id="SVGID_21_" x="-35.501" y="206.792" width="681" height="370.752"/>
		</defs>
		<clipPath id="SVGID_22_">
			<use xlink:href="#SVGID_21_"  overflow="visible"/>
		</clipPath>
		<path clip-path="url(#SVGID_22_)" fill="#EE3E42" d="M32.749,405.52v41.911h17.136c4.634,0,13.219-0.013,20.891-4.241
			c9.337-5.061,14.889-14.829,14.889-26.186c0-11.922-6.636-21.804-17.323-25.978c-5.534-2.199-11.033-2.464-18.14-2.635
			l-17.453-0.3V405.52z M51.425,417.004c0.032-0.324,0.258-0.943,0.648-1.602c0.55,0.556,1.474,1.445,2.422,2.425
			c-0.836,0.798-1.488,1.438-2.051,1.994C51.844,418.798,51.425,417.765,51.425,417.004 M68.342,391.026
			c0.092,0.025,0.165,0.038,0.23,0.064l-0.42-0.15C68.217,390.966,68.273,391.001,68.342,391.026 M70.776,443.188
			c-0.083,0.029-0.138,0.071-0.194,0.103l0.421-0.213C70.93,443.12,70.854,443.147,70.776,443.188"/>
	</g>
	<g>
		<defs>
			<rect id="SVGID_23_" x="-35.501" y="206.792" width="681" height="370.752"/>
		</defs>
		<clipPath id="SVGID_24_">
			<use xlink:href="#SVGID_23_"  overflow="visible"/>
		</clipPath>
		<path clip-path="url(#SVGID_24_)" fill="#EE3E42" d="M113.204,419.648h22.948v54.587h-22.948V419.648z M112.321,404.709
			c0-3.481,3.69-9.376,12.371-9.376c8.68,0,12.367,5.895,12.367,9.376c0,3.474-3.687,9.373-12.367,9.373
			c-3.111,0-6.291-0.792-8.8-2.781C113.895,409.666,112.321,407.219,112.321,404.709"/>
	</g>
	<g>
		<defs>
			<rect id="SVGID_25_" x="-35.501" y="206.792" width="681" height="370.752"/>
		</defs>
		<clipPath id="SVGID_26_">
			<use xlink:href="#SVGID_25_"  overflow="visible"/>
		</clipPath>
		<polygon clip-path="url(#SVGID_26_)" fill="#EE3E42" points="136.152,402.571 96.094,402.571 96.094,491.366 153.288,491.366 
			153.288,402.571 		"/>
	</g>
	<g>
		<defs>
			<rect id="SVGID_27_" x="-35.501" y="206.792" width="681" height="370.752"/>
		</defs>
		<clipPath id="SVGID_28_">
			<use xlink:href="#SVGID_27_"  overflow="visible"/>
		</clipPath>
		<path clip-path="url(#SVGID_28_)" fill="#EE3E42" d="M95.189,404.709c0,7.459,3.74,14.91,10.011,19.953
			c5.354,4.263,12.106,6.554,19.491,6.554c18.221,0,29.476-13.771,29.476-26.507c0-12.742-11.255-26.51-29.476-26.51
			C106.467,378.199,95.189,391.967,95.189,404.709 M119.929,404.709c0-5.638,3.545-7.67,4.836-7.766
			c0.092,0.015,0.918,0.263,1.825,0.99c2.625,2.1,2.839,5.694,2.839,6.774c0,5.488-3.398,7.525-4.737,7.688
			C123.352,412.234,119.929,410.197,119.929,404.709"/>
	</g>
	<g>
		<defs>
			<rect id="SVGID_29_" x="-35.501" y="206.792" width="681" height="370.752"/>
		</defs>
		<clipPath id="SVGID_30_">
			<use xlink:href="#SVGID_29_"  overflow="visible"/>
		</clipPath>
		<path clip-path="url(#SVGID_30_)" fill="#EE3E42" d="M204.638,461.564c-2.483,4.223-8.774,14.813-26.038,14.813
			c-19.171,0-30.032-14.813-30.032-29.065c0-19.35,15.364-29.93,30.817-29.93c16.176,0,21.954,9.1,25.253,14.382l-6.385,4.689
			c-2.782-3.019-5.893-6.313-12.064-6.313c-8.104,0-13.972,6.502-13.972,16.477c0,8.679,4.292,17.182,13.669,17.182
			c6.684,0,10.073-3.994,12.368-6.826L204.638,461.564z"/>
	</g>
	<g>
		<defs>
			<rect id="SVGID_31_" x="-35.501" y="206.792" width="681" height="370.752"/>
		</defs>
		<clipPath id="SVGID_32_">
			<use xlink:href="#SVGID_31_"  overflow="visible"/>
		</clipPath>
		<path clip-path="url(#SVGID_32_)" fill="#EE3E42" d="M131.434,447.312c0,22.688,17.642,46.146,47.166,46.146
			c17.911,0,31.613-7.749,40.737-23.087l8.053-13.527c0,0-13.688-9.851-14.159-10.162c0.573-0.441,14.32-10.537,14.32-10.537
			l-8.374-13.447c-3.835-6.125-13.972-22.453-39.792-22.453C156.136,400.241,131.434,416.748,131.434,447.312"/>
	</g>
	<g>
		<defs>
			<rect id="SVGID_33_" x="-35.501" y="206.792" width="681" height="370.752"/>
		</defs>
		<clipPath id="SVGID_34_">
			<use xlink:href="#SVGID_33_"  overflow="visible"/>
		</clipPath>
		<path clip-path="url(#SVGID_34_)" fill="#EE3E42" d="M220.358,403.914h22.948v38.291l17.477-22.419h20.747l-17.754,21.545
			l14.578,25.76c1.995,3.483,2.599,4.27,4.988,7.286h-24.646c-2.295-2.42-3.408-3.624-5.804-7.426
			c-2.875-4.688-5.986-10.262-9.584-16.94v24.366H220.36v-70.463H220.358z"/>
	</g>
	<g>
		<defs>
			<rect id="SVGID_35_" x="-35.501" y="206.792" width="681" height="370.752"/>
		</defs>
		<clipPath id="SVGID_36_">
			<use xlink:href="#SVGID_35_"  overflow="visible"/>
		</clipPath>
		<path clip-path="url(#SVGID_36_)" fill="#EE3E42" d="M203.246,386.784v104.671H226.2v0.646c0,0,0.467-0.628,0.509-0.646h92.251
			l-22.233-27.77c-2.045-2.54-2.078-2.588-3.505-5.105c0.02,0.041-4.702-8.292-8.756-15.427
			c5.008-6.088,33.347-40.493,33.347-40.493H260.44v-15.876H203.246L203.246,386.784z"/>
	</g>
	<g>
		<defs>
			<rect id="SVGID_37_" x="-35.501" y="206.792" width="681" height="370.752"/>
		</defs>
		<clipPath id="SVGID_38_">
			<use xlink:href="#SVGID_37_"  overflow="visible"/>
		</clipPath>
		<path clip-path="url(#SVGID_38_)" fill="#FFF100" d="M18.851,388.053h47.924c7.171,0,16.644,0,24.417,7.029
			c7.662,6.726,8.019,15.705,8.019,19.278c0,9.231-3.706,17.741-13.542,22.527c-9.089,4.555-19.635,4.555-35.785,4.555v31.254
			H18.851V388.053z M49.884,430.291c4.176,0,9.091-0.108,12.689-2.146c4.062-2.144,5.987-6.313,5.987-11.144
			c0-3.357-1.072-8.028-6.47-10.055c-2.62-1.046-5.755-1.321-12.207-1.43L49.884,430.291L49.884,430.291z"/>
	</g>
	<g>
		<defs>
			<rect id="SVGID_39_" x="-35.501" y="206.792" width="681" height="370.752"/>
		</defs>
		<clipPath id="SVGID_40_">
			<use xlink:href="#SVGID_39_"  overflow="visible"/>
		</clipPath>
		<path clip-path="url(#SVGID_40_)" fill="#FFF100" d="M18.85,379.483h-8.543v101.784H58.44v-31.292
			c12.388-0.142,22.131-0.937,31.074-5.403c11.743-5.753,18.267-16.479,18.267-30.21c0-13.273-5.903-21.264-10.885-25.613
			c-10.227-9.26-22.209-9.264-30.122-9.264L18.85,379.483L18.85,379.483z M66.774,396.613c6.539,0,13.339,0,18.673,4.836
			l0.109,0.093c3.423,3.025,5.09,7.212,5.09,12.818c0,7.128-2.841,11.957-8.719,14.856c-7.365,3.654-16.657,3.654-32.042,3.654
			h-8.571v31.264H27.415v-67.521H66.774L66.774,396.613z M96.896,388.747c0.018,0.012,0.03,0.018,0.043,0.029l-0.11-0.102
			C96.851,388.693,96.875,388.718,96.896,388.747"/>
	</g>
	<g>
		<defs>
			<rect id="SVGID_41_" x="-35.501" y="206.792" width="681" height="370.752"/>
		</defs>
		<clipPath id="SVGID_42_">
			<use xlink:href="#SVGID_41_"  overflow="visible"/>
		</clipPath>
		<path clip-path="url(#SVGID_42_)" fill="#FFF100" d="M41.315,405.52v33.343h8.569c5.36,0,11.506-0.242,16.816-3.243
			c6.614-3.55,10.425-10.305,10.425-18.615c0-8.402-4.459-15.111-11.894-18.013c-4.243-1.681-8.763-1.924-15.199-2.041l-8.717-0.145
			V405.52z M58.438,414.77c0.13,0.046,0.296,0.068,0.418,0.107l0.198,0.075c0.552,0.245,0.942,0.378,0.942,2.051
			c0,1.282-0.259,2.973-1.427,3.606c0,0-0.117,0.059-0.131,0.062V414.77z M65.231,398.99c0.03,0.013,0.063,0.018,0.095,0.029
			l-0.198-0.074C65.162,398.958,65.191,398.978,65.231,398.99 M66.7,435.618c-0.046,0.021-0.082,0.052-0.123,0.115l0.225-0.147
			C66.777,435.6,66.724,435.604,66.7,435.618"/>
	</g>
	<g>
		<defs>
			<rect id="SVGID_43_" x="-35.501" y="206.792" width="681" height="370.752"/>
		</defs>
		<clipPath id="SVGID_44_">
			<use xlink:href="#SVGID_43_"  overflow="visible"/>
		</clipPath>
		<path clip-path="url(#SVGID_44_)" fill="#FFF100" d="M113.204,419.648h22.948v54.587h-22.948V419.648z M112.321,404.709
			c0-3.481,3.69-9.376,12.371-9.376c8.68,0,12.367,5.895,12.367,9.376c0,3.474-3.687,9.373-12.367,9.373
			c-3.111,0-6.291-0.792-8.8-2.781C113.895,409.666,112.321,407.219,112.321,404.709"/>
	</g>
	<g>
		<defs>
			<rect id="SVGID_45_" x="-35.501" y="206.792" width="681" height="370.752"/>
		</defs>
		<clipPath id="SVGID_46_">
			<use xlink:href="#SVGID_45_"  overflow="visible"/>
		</clipPath>
		<path clip-path="url(#SVGID_46_)" fill="#FFF100" d="M136.152,411.083h-31.515v71.714h40.085v-71.714H136.152z M127.599,465.718
			h-5.829V428.22h5.829V465.718z"/>
	</g>
	<g>
		<defs>
			<rect id="SVGID_47_" x="-35.501" y="206.792" width="681" height="370.752"/>
		</defs>
		<clipPath id="SVGID_48_">
			<use xlink:href="#SVGID_47_"  overflow="visible"/>
		</clipPath>
		<path clip-path="url(#SVGID_48_)" fill="#FFF100" d="M103.754,404.709c0,4.876,2.526,9.868,6.792,13.267
			c3.834,3.031,8.702,4.672,14.145,4.672c12.932,0,20.937-9.315,20.937-17.938c0-8.631-8.005-17.944-20.937-17.944
			C111.761,386.765,103.754,396.078,103.754,404.709 M124.691,403.895c1.759,0,2.736,0.391,3.286,0.815
			c-0.55,0.364-1.527,0.807-3.286,0.807c-1.367,0-2.531-0.294-3.268-0.82C121.979,404.273,122.93,403.895,124.691,403.895"/>
	</g>
	<g>
		<defs>
			<rect id="SVGID_49_" x="-35.501" y="206.792" width="681" height="370.752"/>
		</defs>
		<clipPath id="SVGID_50_">
			<use xlink:href="#SVGID_49_"  overflow="visible"/>
		</clipPath>
		<path clip-path="url(#SVGID_50_)" fill="#FFF100" d="M204.638,461.564c-2.483,4.223-8.774,14.813-26.038,14.813
			c-19.171,0-30.032-14.813-30.032-29.065c0-19.35,15.364-29.93,30.817-29.93c16.176,0,21.954,9.1,25.253,14.382l-6.385,4.689
			c-2.782-3.019-5.893-6.313-12.064-6.313c-8.104,0-13.972,6.502-13.972,16.477c0,8.679,4.292,17.182,13.669,17.182
			c6.684,0,10.073-3.994,12.368-6.826L204.638,461.564z"/>
	</g>
	<g>
		<defs>
			<rect id="SVGID_51_" x="-35.501" y="206.792" width="681" height="370.752"/>
		</defs>
		<clipPath id="SVGID_52_">
			<use xlink:href="#SVGID_51_"  overflow="visible"/>
		</clipPath>
		<path clip-path="url(#SVGID_52_)" fill="#FFF100" d="M140.004,447.312c0,18.494,14.422,37.576,38.595,37.576
			c22.107,0,30.606-14.232,33.383-18.917l4.012-6.743l-6.366-4.587c0,0-9.048-6.521-10.965-7.895
			c1.7-1.263,17.443-12.793,17.443-12.793l-4.201-6.719c-3.42-5.543-11.448-18.424-32.522-18.424
			C160.3,408.812,140.004,422.286,140.004,447.312 M157.108,447.312c0-11.189,6.689-17.731,14.622-20.175
			c-4.991,4.433-8.081,11.308-8.081,19.479c0,8.603,3.017,15.601,7.958,20.169C162.139,463.952,157.108,455.423,157.108,447.312
			 M180.758,446.616c0-1.865,0.412-7.904,5.431-7.904c2.237,0,3.108,0.666,5.805,3.54c0,0,2.389,2.573,3.874,4.188
			c-1.205,1.445-4.23,5.103-4.23,5.103c-2.085,2.554-3.271,3.685-5.753,3.685C181.144,455.227,180.758,448.637,180.758,446.616"/>
	</g>
	<g>
		<defs>
			<rect id="SVGID_53_" x="-35.501" y="206.792" width="681" height="370.752"/>
		</defs>
		<clipPath id="SVGID_54_">
			<use xlink:href="#SVGID_53_"  overflow="visible"/>
		</clipPath>
		<path clip-path="url(#SVGID_54_)" fill="#FFF100" d="M220.358,403.914h22.948v38.291l17.477-22.419h20.747l-17.754,21.545
			l14.578,25.76c1.995,3.483,2.599,4.27,4.988,7.286h-24.646c-2.295-2.42-3.408-3.624-5.804-7.426
			c-2.875-4.688-5.986-10.262-9.584-16.94v24.366H220.36v-70.463H220.358z"/>
	</g>
	<g>
		<defs>
			<rect id="SVGID_55_" x="-35.501" y="206.792" width="681" height="370.752"/>
		</defs>
		<clipPath id="SVGID_56_">
			<use xlink:href="#SVGID_55_"  overflow="visible"/>
		</clipPath>
		<path clip-path="url(#SVGID_56_)" fill="#FFF100" d="M243.305,395.354h-31.494v87.544h40.063v-3.261
			c0.215,0.204,0.42,0.407,0.63,0.616l2.537,2.645h46.097l-11.115-13.866c-2.164-2.684-2.466-3.112-4.248-6.222
			c0.012,0.021-7.403-13.057-11.657-20.6c4.664-5.625,25.571-30.979,25.571-30.979h-43.101c0,0-4.235,5.456-4.713,6.053v-21.93
			H243.305z M234.766,465.807h-5.845v-53.322h5.845V465.807z M254.339,442.015c0.842,1.495,9.61,16.976,13.446,23.792h-5.305
			c-0.673-0.874-1.349-1.833-2.347-3.386c-2.954-4.825-6.255-10.86-9.101-16.184C251.373,445.837,253.111,443.559,254.339,442.015"
			/>
	</g>
	<g>
		<defs>
			<rect id="SVGID_57_" x="-35.501" y="206.792" width="681" height="370.752"/>
		</defs>
		<clipPath id="SVGID_58_">
			<use xlink:href="#SVGID_57_"  overflow="visible"/>
		</clipPath>
		<path clip-path="url(#SVGID_58_)" fill="#EE3E42" d="M18.851,388.053h47.924c7.171,0,16.644,0,24.417,7.029
			c7.662,6.726,8.019,15.705,8.019,19.278c0,9.231-3.706,17.741-13.542,22.527c-9.089,4.555-19.635,4.555-35.785,4.555v31.254
			H18.851V388.053z M49.884,430.291c4.176,0,9.091-0.108,12.689-2.146c4.062-2.144,5.987-6.313,5.987-11.144
			c0-3.357-1.072-8.028-6.47-10.055c-2.62-1.046-5.755-1.321-12.207-1.43L49.884,430.291L49.884,430.291z"/>
	</g>
	<g>
		<defs>
			<rect id="SVGID_59_" x="-35.501" y="206.792" width="681" height="370.752"/>
		</defs>
		<clipPath id="SVGID_60_">
			<use xlink:href="#SVGID_59_"  overflow="visible"/>
		</clipPath>
		<path clip-path="url(#SVGID_60_)" fill="#EE3E42" d="M18.85,387.344h-0.714v86.063h32.458v-31.254
			c15.759-0.001,26.299-0.063,35.397-4.629c11.521-5.587,13.93-15.655,13.93-23.162c0-8.32-2.771-14.982-8.272-19.77
			c-7.979-7.248-17.748-7.248-24.875-7.248L18.85,387.344L18.85,387.344z M66.774,388.763c7.271,0,16.363,0,23.949,6.862
			c5.16,4.532,7.779,10.865,7.779,18.735c0,7.081-2.279,16.584-13.127,21.883c-8.951,4.49-19.514,4.49-35.491,4.49h-0.709v31.253
			H19.582v-83.225h47.192V388.763z"/>
	</g>
	<g>
		<defs>
			<rect id="SVGID_61_" x="-35.501" y="206.792" width="681" height="370.752"/>
		</defs>
		<clipPath id="SVGID_62_">
			<use xlink:href="#SVGID_61_"  overflow="visible"/>
		</clipPath>
		<path clip-path="url(#SVGID_62_)" fill="#EE3E42" d="M49.175,405.52V431h0.709c4.597,0,9.379-0.155,13.041-2.228
			c4.025-2.123,6.346-6.442,6.346-11.77c0-5.189-2.452-9.009-6.931-10.724c-2.754-1.091-5.938-1.362-12.443-1.472l-0.722-0.012
			V405.52z M50.594,406.243c5.811,0.109,8.762,0.387,11.237,1.367c4.981,1.89,6.02,6.139,6.02,9.394
			c0,4.892-1.991,8.589-5.612,10.517c-3.208,1.825-7.478,2.031-11.645,2.051V406.243z"/>
	</g>
	<g>
		<defs>
			<rect id="SVGID_63_" x="-35.501" y="206.792" width="681" height="370.752"/>
		</defs>
		<clipPath id="SVGID_64_">
			<use xlink:href="#SVGID_63_"  overflow="visible"/>
		</clipPath>
		<path clip-path="url(#SVGID_64_)" fill="#EE3E42" d="M113.204,419.648h22.948v54.587h-22.948V419.648z M112.321,404.709
			c0-3.481,3.69-9.376,12.371-9.376c8.68,0,12.367,5.895,12.367,9.376c0,3.474-3.687,9.373-12.367,9.373
			c-3.111,0-6.291-0.792-8.8-2.781C113.895,409.666,112.321,407.219,112.321,404.709"/>
	</g>
	<g>
		<defs>
			<rect id="SVGID_65_" x="-35.501" y="206.792" width="681" height="370.752"/>
		</defs>
		<clipPath id="SVGID_66_">
			<use xlink:href="#SVGID_65_"  overflow="visible"/>
		</clipPath>
		<path clip-path="url(#SVGID_66_)" fill="#EE3E42" d="M136.152,418.939h-23.657v56.058h24.367v-56.058H136.152L136.152,418.939z
			 M135.442,473.526h-21.534v-53.167h21.534V473.526z"/>
	</g>
	<g>
		<defs>
			<rect id="SVGID_67_" x="-35.501" y="206.792" width="681" height="370.752"/>
		</defs>
		<clipPath id="SVGID_68_">
			<use xlink:href="#SVGID_67_"  overflow="visible"/>
		</clipPath>
		<path clip-path="url(#SVGID_68_)" fill="#EE3E42" d="M111.588,404.71c0,2.514,1.494,5.239,3.869,7.15
			c3.045,2.405,6.697,2.926,9.235,2.926c8.93,0,13.078-6.014,13.078-10.076c0-4.072-4.147-10.085-13.078-10.085
			C115.761,394.625,111.588,400.638,111.588,404.71 M116.357,410.729c-2.073-1.662-3.323-3.954-3.323-6.02
			c0-2.716,2.926-8.667,11.658-8.667c8.718,0,11.659,5.951,11.659,8.667c0,2.705-2.94,8.667-11.659,8.667
			C122.388,413.377,119.077,412.896,116.357,410.729"/>
	</g>
	<g>
		<defs>
			<rect id="SVGID_69_" x="-35.501" y="206.792" width="681" height="370.752"/>
		</defs>
		<clipPath id="SVGID_70_">
			<use xlink:href="#SVGID_69_"  overflow="visible"/>
		</clipPath>
		<path clip-path="url(#SVGID_70_)" fill="#EE3E42" d="M204.638,461.564c-2.483,4.223-8.774,14.813-26.038,14.813
			c-19.171,0-30.032-14.813-30.032-29.065c0-19.35,15.364-29.93,30.817-29.93c16.176,0,21.954,9.1,25.253,14.382l-6.385,4.689
			c-2.782-3.019-5.893-6.313-12.064-6.313c-8.104,0-13.972,6.502-13.972,16.477c0,8.679,4.292,17.182,13.669,17.182
			c6.684,0,10.073-3.994,12.368-6.826L204.638,461.564z"/>
	</g>
	<g>
		<defs>
			<rect id="SVGID_71_" x="-35.501" y="206.792" width="681" height="370.752"/>
		</defs>
		<clipPath id="SVGID_72_">
			<use xlink:href="#SVGID_71_"  overflow="visible"/>
		</clipPath>
		<path clip-path="url(#SVGID_72_)" fill="#EE3E42" d="M147.833,447.312c0,14.442,10.79,29.776,30.766,29.776
			c17.655,0,24.199-11.011,26.65-15.129l0.335-0.574l-0.539-0.359l-6.907-5.008l-0.446,0.533c-2.12,2.603-5.354,6.537-11.808,6.537
			c-8.952,0-12.962-8.295-12.962-16.472c0-9.414,5.331-15.768,13.266-15.768c5.875,0,8.762,3.096,11.531,6.06l0.454,0.478
			l7.422-5.445l-0.349-0.574c-3.211-5.15-9.17-14.694-25.861-14.694C163.712,416.671,147.833,427.208,147.833,447.312
			 M149.278,447.312c0-19.192,15.136-29.22,30.106-29.22c15.328,0,21.167,8.479,24.291,13.457c-0.805,0.602-4.543,3.347-5.341,3.933
			c-2.743-2.908-5.972-6.05-12.146-6.05c-8.647,0-14.686,7.08-14.686,17.186c0,8.884,4.442,17.891,14.383,17.891
			c6.7,0,10.293-3.889,12.481-6.542c0.838,0.589,4.515,3.242,5.314,3.827c-2.733,4.571-8.9,13.877-25.083,13.877
			C159.559,475.669,149.278,461.063,149.278,447.312"/>
	</g>
	<g>
		<defs>
			<rect id="SVGID_73_" x="-35.501" y="206.792" width="681" height="370.752"/>
		</defs>
		<clipPath id="SVGID_74_">
			<use xlink:href="#SVGID_73_"  overflow="visible"/>
		</clipPath>
		<path clip-path="url(#SVGID_74_)" fill="#EE3E42" d="M220.358,403.914h22.948v38.291l17.477-22.419h20.747l-17.754,21.545
			l14.578,25.76c1.995,3.483,2.599,4.27,4.988,7.286h-24.646c-2.295-2.42-3.408-3.624-5.804-7.426
			c-2.875-4.688-5.986-10.262-9.584-16.94v24.366H220.36v-70.463H220.358z"/>
	</g>
	<g>
		<defs>
			<rect id="SVGID_75_" x="-35.501" y="206.792" width="681" height="370.752"/>
		</defs>
		<clipPath id="SVGID_76_">
			<use xlink:href="#SVGID_75_"  overflow="visible"/>
		</clipPath>
		<path clip-path="url(#SVGID_76_)" fill="#EE3E42" d="M243.306,403.204h-23.662v71.883h24.396v-22.264
			c3.501,6.492,5.977,10.804,8.265,14.522c2.42,3.852,3.538,5.099,5.862,7.482l0.222,0.258h26.422l-0.912-1.17
			c-2.379-2.979-2.929-3.72-4.925-7.205c0,0-13.866-24.504-14.325-25.313c0.58-0.727,18.407-22.369,18.407-22.369h-22.62
			c0,0-14.218,18.302-16.396,21.101v-36.926H243.306L243.306,403.204z M242.595,404.624v39.656c0,0,18.122-23.278,18.537-23.78
			h18.899c-1.714,2.083-17.129,20.764-17.129,20.764l14.824,26.151c1.745,3.077,2.466,4.11,4.122,6.252h-22.842
			c-2.168-2.281-3.226-3.493-5.504-7.067c-2.542-4.12-5.319-9.054-9.563-16.952l-1.344-2.459v26.479h-21.509v-69.043H242.595z"/>
	</g>
	<g>
		<defs>
			<rect id="SVGID_77_" x="-35.501" y="206.792" width="681" height="370.752"/>
		</defs>
		<clipPath id="SVGID_78_">
			<use xlink:href="#SVGID_77_"  overflow="visible"/>
		</clipPath>
		<path clip-path="url(#SVGID_78_)" fill="#EE3E42" d="M447.26,255.079h104.577v166.306h43.216v52.592h-43.216v54.124h-94.639
			v-54.124H320.633v-51.827L447.26,255.079z M457.198,337.847c-3.892,7.343-8.237,14.311-12.536,21.271
			c-9.093,14.695-22.881,33.24-44.521,62.267h57.057V337.847z"/>
	</g>
	<g>
		<defs>
			<rect id="SVGID_79_" x="-35.501" y="206.792" width="681" height="370.752"/>
		</defs>
		<clipPath id="SVGID_80_">
			<use xlink:href="#SVGID_79_"  overflow="visible"/>
		</clipPath>
		<path clip-path="url(#SVGID_80_)" fill="#EE3E42" d="M551.837,254.371H446.881L319.884,421.924v52.763h136.605v54.171h96.056
			v-54.171h43.218v-54.012h-43.218V254.371H551.837z M551.127,255.789v166.305h43.217v51.174h-43.217v54.128h-93.219v-54.128
			H321.355v-50.904c0.269-0.352,125.839-166.003,126.229-166.573L551.127,255.789L551.127,255.789z"/>
	</g>
	<g>
		<defs>
			<rect id="SVGID_81_" x="-35.501" y="206.792" width="681" height="370.752"/>
		</defs>
		<clipPath id="SVGID_82_">
			<use xlink:href="#SVGID_81_"  overflow="visible"/>
		</clipPath>
		<path clip-path="url(#SVGID_82_)" fill="#EE3E42" d="M444.049,358.727c-9.064,14.675-23.135,33.539-44.433,62.127l-0.831,1.152
			l1.356,0.085h57.767v-84.245l-1.335-0.333C452.669,344.867,448.268,351.915,444.049,358.727 M445.268,359.493
			c3.806-6.113,7.612-12.43,11.223-18.943v80.125h-54.932C422.457,392.656,436.279,373.998,445.268,359.493"/>
	</g>
	<g>
		<defs>
			<rect id="SVGID_83_" x="-35.501" y="206.792" width="681" height="370.752"/>
		</defs>
		<clipPath id="SVGID_84_">
			<use xlink:href="#SVGID_83_"  overflow="visible"/>
		</clipPath>
		<path clip-path="url(#SVGID_84_)" fill="#C3161C" d="M470.106,477.325c39.896,0,72.268-32.693,72.268-73.059
			c0-40.333-32.371-73.031-72.269-73.031s-72.209,32.699-72.209,73.031C397.897,444.632,430.208,477.325,470.106,477.325"/>
	</g>
</g>
<g>
	<g>
		<defs>
			<path id="SVGID_85_" d="M384.366,395.699c0,40.063,32.462,72.475,72.474,72.475c40.072,0,72.482-32.411,72.482-72.475
				c0-40.021-32.41-72.453-72.482-72.453C416.828,323.247,384.366,355.679,384.366,395.699"/>
		</defs>
		<clipPath id="SVGID_86_">
			<use xlink:href="#SVGID_85_"  overflow="visible"/>
		</clipPath>
		
			<radialGradient id="SVGID_87_" cx="3.1899" cy="231.001" r="1.1236" gradientTransform="matrix(82.8398 -29.5517 30.1427 84.4965 -6759.3848 -19043.2656)" gradientUnits="userSpaceOnUse">
			<stop  offset="0" style="stop-color:#FFFFFF"/>
			<stop  offset="0.3348" style="stop-color:#FFFFFF"/>
			<stop  offset="0.5968" style="stop-color:#FFFFFF"/>
			<stop  offset="0.6617" style="stop-color:#FCFCFC"/>
			<stop  offset="0.7071" style="stop-color:#F3F3F3"/>
			<stop  offset="0.7465" style="stop-color:#E4E4E4"/>
			<stop  offset="0.7825" style="stop-color:#CECECF"/>
			<stop  offset="0.8162" style="stop-color:#B1B2B4"/>
			<stop  offset="0.8478" style="stop-color:#8F9093"/>
			<stop  offset="0.8598" style="stop-color:#808184"/>
			<stop  offset="1" style="stop-color:#808184"/>
		</radialGradient>
		<polygon clip-path="url(#SVGID_86_)" fill="url(#SVGID_87_)" points="338.502,339.609 512.981,277.377 575.188,451.844 
			400.749,514.049 		"/>
	</g>
</g>
<g>
	<g>
		<defs>
			<path id="SVGID_88_" d="M453.727,338.272c-12.838,0.001-38.397,16.917-40.11,31.935c-1.426,12.749,9.102,12.23,13.924,11.892
				c5.247-0.373,19.825-2.569,37.557-4.1c-19.921,5.78-33.21,13.142-40.836,21.662c-9.279,10.414,5.591,38.646,21.047,40.175
				c15.449,1.469,27.445-18.266,28.715-19.054c-6.792,23.51-17.594,28.792-17.594,28.792c3.428,4.149,7.935,2.682,9.335,2.309
				c7.063-3.813,10.726-20.074,12.42-32.936c0.985,7.546,14.379,20.525,25.813,13.327c14.622-10.992,16.364-25.511,14.957-34.507
				c-1.691-10.505-12.341-16.042-30.623-20.519c9.118,0.053,17.472,1.398,22.271-0.07c4.598-1.406,5.326-3.036,4.768-4.858
				c-6.639-22.028-26.382-35.592-35.83-31.776c-2.254,0.93-2.816,5.959-2.816,5.959s-0.03,15.073,0.794,28.213
				c-1.188-10.469-5.853-36.443-23.785-36.444C453.728,338.272,453.728,338.272,453.727,338.272"/>
		</defs>
		<clipPath id="SVGID_89_">
			<use xlink:href="#SVGID_88_"  overflow="visible"/>
		</clipPath>
		
			<radialGradient id="SVGID_90_" cx="3.3516" cy="230.8955" r="1.1238" gradientTransform="matrix(48.8898 0 0 49.3298 316.0864 -11005.2422)" gradientUnits="userSpaceOnUse">
			<stop  offset="0" style="stop-color:#D6DE23"/>
			<stop  offset="0.0187" style="stop-color:#D6DE23"/>
			<stop  offset="0.3263" style="stop-color:#8BC53F"/>
			<stop  offset="0.4254" style="stop-color:#86C03F"/>
			<stop  offset="0.5471" style="stop-color:#77B33F"/>
			<stop  offset="0.68" style="stop-color:#5E9C3F"/>
			<stop  offset="0.7159" style="stop-color:#56953F"/>
			<stop  offset="0.8595" style="stop-color:#2C7F3C"/>
			<stop  offset="1" style="stop-color:#006838"/>
		</radialGradient>
		<rect x="412.189" y="336.729" clip-path="url(#SVGID_89_)" fill="url(#SVGID_90_)" width="108.171" height="116.995"/>
	</g>
</g>
<g>
	<g>
		<defs>
			<rect id="SVGID_91_" x="-35.501" y="206.792" width="681" height="370.752"/>
		</defs>
		<clipPath id="SVGID_92_">
			<use xlink:href="#SVGID_91_"  overflow="visible"/>
		</clipPath>
		<path clip-path="url(#SVGID_92_)" fill="#FFFFFF" d="M465.356,365.475l-0.615-2.518l3.196-3.757l0.821-2.207l2.536-1.959
			l1.853,0.571l12.896,7.315l0.116,2.973l-1.808,5.309l-0.645,0.267l-0.627-0.303l0.146-0.197l0.429-1.861l-0.146-0.603
			l-0.098,0.722l-0.666,1.603l-0.226,1.79l-0.665,1.582l-0.585,0.275l-0.53-0.552l-0.183,0.421l1.777,1.629l1.452,0.533l0.156-0.242
			l0.425,0.012l0.877,0.864l0.412-0.238l-0.046-0.638l-0.555-1.153l0.849,0.02c0,0,2.921,3.673,0.369,12.209l-0.658-0.386
			l-0.255-0.775l-0.257-0.004l-0.357,6.474l-0.638,0.611l-0.7,3.786l-1.437,1.695l-0.044,1.185l-0.832,0.272l-0.484-0.663
			l-0.709,1.184l0.706,0.662l-0.797,1.178l0.616,0.332v0.273l0.52,0.296l-0.141,0.74l-1.11,1.273l-1.98,1.372l-2.63,2.742
			l-2.333,3.597l0.005,0.869l-0.876,1.161l-2.209,1.151l-0.936,0.005l1.18-2.094l0.013-1.074l0.848-0.925l0.015-1.758l-2.466-1.332
			l-1.813-0.157l-1.821-2.075l-0.911,0.044l-0.584,0.316l-5.07-4.563l-0.103-1.293l0.594-1.872l-0.529-0.876l0.704-3.041
			l1.082-1.275l0.72-0.081l1.604-1.566l0.598,0.122l2.271-1.208l1.515-2.802l0.862-0.159l2.08-2.261l1.533-0.54l1.68-1.253
			l-0.042-1.162l-1.441-1.525l-0.297-0.679l-1.286-1.178l-1.62-2.756l-0.16-0.588l-0.421,0.381l-0.928-0.057l-0.819-0.743
			l-0.011-1.823l-0.301-1.09l-1.846-1.255l0.443-1.292l-0.649-2.636l1.395-0.489l0.063-1.473L465.356,365.475z"/>
	</g>
</g>
</svg>
