<?xml version="1.0" encoding="utf-8"?>
<!-- Generator: Adobe Illustrator 18.0.0, SVG Export Plug-In . SVG Version: 6.00 Build 0)  -->
<!DOCTYPE svg PUBLIC "-//W3C//DTD SVG 1.1//EN" "http://www.w3.org/Graphics/SVG/1.1/DTD/svg11.dtd">
<svg version="1.1" id="Layer_1" xmlns="http://www.w3.org/2000/svg" xmlns:xlink="http://www.w3.org/1999/xlink" x="0px" y="0px"
	 width="372px" height="230px" viewBox="0 0 372 230" enable-background="new 0 0 372 230" xml:space="preserve">
<g>
	<defs>
		<path id="SVGID_1_" d="M314.4,116.6c0,15.9,12.9,28.8,28.8,28.8c15.9,0,28.8-12.9,28.8-28.8s-12.9-28.8-28.8-28.8
			C327.3,87.8,314.4,100.6,314.4,116.6"/>
	</defs>
	<clipPath id="SVGID_2_">
		<use xlink:href="#SVGID_1_"  overflow="visible"/>
	</clipPath>
	
		<radialGradient id="SVGID_3_" cx="52.6416" cy="261.8874" r="7.0259" gradientTransform="matrix(6.4312 -1.000000e-04 -1.000000e-04 -6.4312 3.7609 1781.3674)" gradientUnits="userSpaceOnUse">
		<stop  offset="0" style="stop-color:#FFFFFF"/>
		<stop  offset="5.427251e-02" style="stop-color:#FBCFD1"/>
		<stop  offset="0.1163" style="stop-color:#F7A0A3"/>
		<stop  offset="0.1805" style="stop-color:#F4777C"/>
		<stop  offset="0.2457" style="stop-color:#F1565C"/>
		<stop  offset="0.3124" style="stop-color:#EF3D44"/>
		<stop  offset="0.3811" style="stop-color:#ED2A32"/>
		<stop  offset="0.4531" style="stop-color:#EC2027"/>
		<stop  offset="0.5337" style="stop-color:#EC1C24"/>
		<stop  offset="0.6231" style="stop-color:#E81B23"/>
		<stop  offset="0.7045" style="stop-color:#DD1A21"/>
		<stop  offset="0.7828" style="stop-color:#CB171E"/>
		<stop  offset="0.8592" style="stop-color:#B11419"/>
		<stop  offset="0.9334" style="stop-color:#900F13"/>
		<stop  offset="1" style="stop-color:#6B0A0C"/>
	</radialGradient>
	<polygon clip-path="url(#SVGID_2_)" fill="url(#SVGID_3_)" points="312.5,86 372.4,86 372.4,145.9 312.4,147.6 	"/>
</g>
<g>
	<path fill="#E5E6E7" d="M352.7,123.2c0,0,0.1-9.6-2.1-20.1c0,0,2,0,5.2,0.5c0,0,1.1,4.2,1.9,14.6h3.8v4.5L352.7,123.2z"/>
	<path fill="#E5E6E7" d="M362.6,122.3c0,0-0.1-9.9-2.3-17.8l3.2,0.5c0,0,1.3,3.2,2,12.5l3.1-0.1v3.4L362.6,122.3z"/>
	<path fill="#E5E6E7" d="M319.7,122.3c0,0-0.8-8.2,0.6-16.4c0,0,8.4-2.9,11.8-0.7c0,0,4.6,4.3-1.5,8.3c0,0,4.2,3,2.5,6.7
		c0,0-0.7,4-5.8,3.2L319.7,122.3z M325.7,111.2c1.3,0,1.5-1.7,1.5-1.7c0.4-1.7-1.4-1.3-1.4-1.3l-1.9,0.2l-0.1,2.7H325.7z
		 M325.5,118.9c1.5,0.1,1.8-1,1.8-1c0.2-1.8-1.9-1.8-1.9-1.8l-1.7-0.1l-0.1,2.9H325.5z"/>
	<path fill="#E5E6E7" d="M332.9,123.3c0,0,3.9-13.7,6.3-20.3l6.3,0.1c0,0,2.7,5.5,6.2,20l-5,0.1l-1.1-2.6h-6.3l-0.7,2.9L332.9,123.3
		z M344.2,115.9l-1.8-6.3l-1.9,6.3H344.2z"/>
	<rect x="138.6" y="152" fill="#FFFFFF" width="233.2" height="20.4"/>
	<rect x="138.6" y="152" fill="none" stroke="#000000" stroke-width="0.804" width="233.2" height="20.4"/>
	<rect x="138.6" y="152" width="138.2" height="20.4"/>
	<path fill="#FFFFFF" d="M144.9,156.7h5.9c3,0,5.2,1.5,5.2,4.7c0,2.6-1.6,4.3-4.3,4.3h-2.4v3.9h-4.5V156.7z M149.4,162.4h0.5
		c0.8,0,1.7-0.1,1.7-1.2c0-1-1-1.1-1.7-1.1h-0.4V162.4z"/>
	<path fill="#FFFFFF" d="M184.8,163.2c0,4.1-3.2,6.6-7.1,6.6c-3.9,0-7.1-2.5-7.1-6.6c0-4.1,3.2-6.7,7.1-6.7
		C181.6,156.5,184.8,159.1,184.8,163.2 M175.3,163.2c0,1.5,1,2.5,2.4,2.5c1.4,0,2.4-1,2.4-2.5c0-1.4-0.9-2.5-2.4-2.5
		C176.2,160.7,175.3,161.9,175.3,163.2"/>
	<path fill="#FFFFFF" d="M203.9,156.7l1.6,7.7h0.1c0.1-0.8,0.2-1.6,0.4-2.4l1.4-5.3h3.6l1.8,7.7h0.1c0.1-0.8,0.2-1.5,0.3-2.3
		l1.3-5.4h4.9l-4.5,12.9h-4.1l-1.5-7h-0.2c-0.1,0.7-0.1,1.3-0.2,1.9l-1.3,5.1h-4l-4.5-12.9H203.9z"/>
	<polygon fill="#FFFFFF" points="234,156.7 242.6,156.7 242.6,160.2 238.7,160.2 238.7,161.4 242.3,161.4 242.3,164.8 238.7,164.8 
		238.7,166 242.8,166 242.8,169.6 234,169.6 	"/>
	<path fill="#FFFFFF" d="M258.4,156.7h5.7c2.9,0,5.4,1.2,5.4,4.5c0,1.9-0.8,2.8-2.5,3.4v0.1c0.2,0.2,0.5,0.4,0.8,0.8l2.8,4.2h-5.4
		l-2.1-4.1H263v4.1h-4.6V156.7z M263,162.4h0.3c0.8,0,1.5-0.1,1.5-1.1c0-1-0.7-1.1-1.5-1.1H263V162.4z"/>
	<path d="M285.2,169.6h-1.4v-12.9h2.1c1.1,0,2.3,0,3.2,0.7c1,0.7,1.5,1.8,1.5,2.9c0,1-0.4,2.1-1.2,2.8c-0.9,0.7-2,0.9-3.1,0.9h-1
		V169.6z M285.2,162.6h1c1.6,0,2.9-0.5,2.9-2.3c0-2.1-1.7-2.3-3.4-2.3h-0.5V162.6z"/>
	<polygon points="307.5,168.2 311.1,168.2 311.1,169.6 306.1,169.6 306.1,156.7 307.5,156.7 	"/>
	<path d="M328.1,165.9l-1.6,3.7H325l5.9-13.5l5.8,13.5h-1.6l-1.5-3.7H328.1z M330.9,159.4l-2.2,5.2h4.4L330.9,159.4z"/>
	<polygon points="348.9,156.7 350.6,156.7 353.9,162.4 357.1,156.7 358.8,156.7 354.6,164 354.6,169.6 353.1,169.6 353.1,164 	"/>
	<path d="M363.3,158.5c0-1.5,1.2-2.6,2.6-2.6c1.5,0,2.6,1.2,2.6,2.6c0,1.5-1.2,2.6-2.6,2.6C364.4,161.1,363.3,160,363.3,158.5
		 M363.7,158.5c0,1.2,1,2.2,2.2,2.2c1.2,0,2.2-1,2.2-2.2c0-1.2-1-2.2-2.2-2.2C364.7,156.3,363.7,157.3,363.7,158.5 M367.1,160h-0.5
		l-0.8-1.4h-0.5v1.4h-0.4v-2.9h1.2c0.5,0,1,0.2,1,0.8c0,0.6-0.4,0.8-0.8,0.8L367.1,160z M365.3,157.5v0.7h0.5c0.4,0,0.9,0.1,0.9-0.3
		c0-0.4-0.3-0.4-0.7-0.4H365.3z"/>
</g>
<g>
	<defs>
		<path id="SVGID_4_" d="M0,116.9c0,16,13,29,29,29c16,0,29-13,29-29s-13-29-29-29C13,87.9,0,100.9,0,116.9"/>
	</defs>
	<clipPath id="SVGID_5_">
		<use xlink:href="#SVGID_4_"  overflow="visible"/>
	</clipPath>
	
		<radialGradient id="SVGID_6_" cx="40.255" cy="259.3531" r="1.4762" gradientTransform="matrix(28.7218 0 0 -28.7218 -1126.416 7550.2153)" gradientUnits="userSpaceOnUse">
		<stop  offset="0" style="stop-color:#FFFFFF"/>
		<stop  offset="0.1214" style="stop-color:#F2F2F3"/>
		<stop  offset="0.3372" style="stop-color:#D8D9DB"/>
		<stop  offset="0.6221" style="stop-color:#AFB1B3"/>
		<stop  offset="0.9621" style="stop-color:#7B7D7F"/>
		<stop  offset="1" style="stop-color:#757779"/>
	</radialGradient>
	<rect y="87.9" clip-path="url(#SVGID_5_)" fill="url(#SVGID_6_)" width="57.9" height="57.9"/>
</g>
<g>
	<defs>
		<path id="SVGID_7_" d="M62.5,116.9c0,16,13,29,29,29c16,0,29-13,29-29s-13-29-29-29C75.4,87.9,62.5,100.9,62.5,116.9"/>
	</defs>
	<clipPath id="SVGID_8_">
		<use xlink:href="#SVGID_7_"  overflow="visible"/>
	</clipPath>
	
		<radialGradient id="SVGID_9_" cx="40.9361" cy="259.3347" r="1.4767" gradientTransform="matrix(28.7221 0 0 -28.7221 -1083.5295 7549.8232)" gradientUnits="userSpaceOnUse">
		<stop  offset="0" style="stop-color:#FFFFFF"/>
		<stop  offset="0.1214" style="stop-color:#F2F2F3"/>
		<stop  offset="0.3372" style="stop-color:#D8D9DB"/>
		<stop  offset="0.6221" style="stop-color:#AFB1B3"/>
		<stop  offset="0.9621" style="stop-color:#7B7D7F"/>
		<stop  offset="1" style="stop-color:#757779"/>
	</radialGradient>
	<rect x="62.5" y="87.9" clip-path="url(#SVGID_8_)" fill="url(#SVGID_9_)" width="57.9" height="57.9"/>
</g>
<g>
	<defs>
		<path id="SVGID_10_" d="M125.3,117.1c0,16,13,29,29,29c16,0,29-13,29-29c0-16-13-29-29-29C138.3,88.2,125.3,101.2,125.3,117.1"/>
	</defs>
	<clipPath id="SVGID_11_">
		<use xlink:href="#SVGID_10_"  overflow="visible"/>
	</clipPath>
	
		<radialGradient id="SVGID_12_" cx="41.6616" cy="259.3471" r="1.477" gradientTransform="matrix(28.7218 0 0 -28.7218 -1041.525 7550.418)" gradientUnits="userSpaceOnUse">
		<stop  offset="0" style="stop-color:#FFFFFF"/>
		<stop  offset="0.1214" style="stop-color:#F2F2F3"/>
		<stop  offset="0.3372" style="stop-color:#D8D9DB"/>
		<stop  offset="0.6221" style="stop-color:#AFB1B3"/>
		<stop  offset="0.9621" style="stop-color:#7B7D7F"/>
		<stop  offset="1" style="stop-color:#757779"/>
	</radialGradient>
	<rect x="125.3" y="88.2" clip-path="url(#SVGID_11_)" fill="url(#SVGID_12_)" width="57.9" height="57.9"/>
</g>
<g>
	<defs>
		<path id="SVGID_13_" d="M188.1,116.9c0,16,13,29,29,29c16,0,29-13,29-29s-13-29-29-29C201.1,87.9,188.1,100.9,188.1,116.9"/>
	</defs>
	<clipPath id="SVGID_14_">
		<use xlink:href="#SVGID_13_"  overflow="visible"/>
	</clipPath>
	
		<radialGradient id="SVGID_15_" cx="42.3673" cy="259.3522" r="1.4768" gradientTransform="matrix(28.7218 0 0 -28.7218 -998.963 7550.2461)" gradientUnits="userSpaceOnUse">
		<stop  offset="0" style="stop-color:#FFFFFF"/>
		<stop  offset="0.1214" style="stop-color:#F2F2F3"/>
		<stop  offset="0.3372" style="stop-color:#D8D9DB"/>
		<stop  offset="0.6221" style="stop-color:#AFB1B3"/>
		<stop  offset="0.9621" style="stop-color:#7B7D7F"/>
		<stop  offset="1" style="stop-color:#757779"/>
	</radialGradient>
	<rect x="188.1" y="87.9" clip-path="url(#SVGID_14_)" fill="url(#SVGID_15_)" width="57.9" height="57.9"/>
</g>
<g>
	<defs>
		<path id="SVGID_16_" d="M250.4,116.9c0,16,13,29,29,29c16,0,29-13,29-29s-13-29-29-29C263.4,87.9,250.4,100.9,250.4,116.9"/>
	</defs>
	<clipPath id="SVGID_17_">
		<use xlink:href="#SVGID_16_"  overflow="visible"/>
	</clipPath>
	
		<radialGradient id="SVGID_18_" cx="43.0471" cy="259.3347" r="1.4768" gradientTransform="matrix(28.7221 0 0 -28.7221 -956.2015 7549.8232)" gradientUnits="userSpaceOnUse">
		<stop  offset="0" style="stop-color:#FFFFFF"/>
		<stop  offset="0.1207" style="stop-color:#F2F2F3"/>
		<stop  offset="0.3353" style="stop-color:#D8D9DB"/>
		<stop  offset="0.6186" style="stop-color:#AFB1B3"/>
		<stop  offset="0.9567" style="stop-color:#7B7D7F"/>
		<stop  offset="0.9944" style="stop-color:#757779"/>
		<stop  offset="1" style="stop-color:#757779"/>
	</radialGradient>
	<rect x="250.4" y="87.9" clip-path="url(#SVGID_17_)" fill="url(#SVGID_18_)" width="57.9" height="57.9"/>
</g>
<g>
	<path fill="#231F20" d="M16.4,133v-32h15.4c9.2,0,13.6,4.2,13.6,10.8c0,6.9-4.1,11.2-13.3,11.2h-5.3v10H16.4z M31.2,115.6
		c2.4,0,4.2-1,4.2-3.7c0-3-3.4-3.4-5.6-3.4h-3v7.1H31.2z"/>
	<path fill="#231F20" d="M108.6,116.9c0,10.9-7.3,17-16.8,17c-10,0-16.8-6.2-16.8-17.1c0-10,6.8-16.6,16.8-16.6
		C103.2,100.3,108.6,108.5,108.6,116.9 M85.5,116.9c0,4.1,1.2,9.2,6.3,9.2c4.5,0,6.3-3.9,6.3-9.2c0-4.4-1.8-9-6.4-8.8
		C86.9,108.1,85.5,112.9,85.5,116.9"/>
	<polygon fill="#231F20" points="162.9,120.7 163,120.7 166.6,100.9 176.7,100.9 168.7,132.9 158.4,132.9 154.7,114.3 154.7,114.3 
		151,132.9 140.7,132.9 132.7,100.9 142.9,100.9 146.5,120.7 146.6,120.7 150.4,100.9 159.1,100.9 	"/>
	<polygon fill="#231F20" points="203.8,132.9 203.8,100.9 229.9,100.9 229.9,108.4 214.3,108.4 214.3,112.9 227.5,112.9 
		227.5,120.4 214.3,120.4 214.3,125.4 230.5,125.4 230.5,132.9 	"/>
	<path fill="#231F20" d="M276,121.8v11.2h-10.5v-32h15.1c10.7,0,14.2,2.9,14.2,9.1c0,3.7-1.6,6.8-5.4,7.8c3.4,1.2,5.4,2,5.4,8.5
		c0,4.2-0.1,5.6,1.1,5.6v1h-10.6c-0.3-0.7-0.5-2.8-0.5-5.6c0-4.2-0.7-5.6-5.6-5.6H276z M276,114.7h4.1c3.2,0,5-0.8,5-3
		c0-2.3-1.8-3.3-4.2-3.3H276V114.7z"/>
	<polygon fill="#231F20" points="4.7,57.6 7.2,57.6 17.3,75 17.3,75 17.3,57.6 19.3,57.6 19.3,77.4 16.7,77.4 6.8,60.3 6.7,60.3 
		6.7,77.4 4.7,77.4 	"/>
	<path fill="#231F20" d="M32.8,76.9c-1.3,0.5-2.9,0.8-4.2,0.8c-4.8,0-6.6-3.2-6.6-7.6c0-4.4,2.4-7.6,6.1-7.6c4.1,0,5.7,3.3,5.7,7.2
		v0.9H24c0,3.1,1.6,5.5,4.8,5.5c1.3,0,3.2-0.6,4-1.1V76.9z M32,69.1c0-2.5-1-5-3.7-5c-2.6,0-4.3,2.6-4.3,5H32z"/>
	<polygon fill="#231F20" points="51.6,77.4 49.5,77.4 45.5,64.9 45.5,64.9 41.5,77.4 39.4,77.4 34.7,62.9 36.7,62.9 40.5,75.4 
		40.5,75.4 44.6,62.9 46.7,62.9 50.6,75.4 50.6,75.4 54.6,62.9 56.4,62.9 	"/>
	<path fill="#231F20" d="M70.4,72.3c0,3-1.3,5.5-4.6,5.5c-0.6,0-1.4-0.1-2-0.3v-1.7c0.5,0.3,1.3,0.4,1.8,0.4c2.2,0,2.9-1.7,2.9-3.7
		V57.6h1.9V72.3z"/>
	<path fill="#231F20" d="M84.2,76.9c-1.3,0.5-2.9,0.8-4.2,0.8c-4.8,0-6.6-3.2-6.6-7.6c0-4.4,2.4-7.6,6.1-7.6c4.1,0,5.8,3.3,5.8,7.2
		v0.9h-9.9c0,3.1,1.6,5.5,4.8,5.5c1.3,0,3.2-0.6,4.1-1.1V76.9z M83.3,69.1c0-2.5-1-5-3.7-5c-2.6,0-4.2,2.6-4.2,5H83.3z"/>
	<path fill="#231F20" d="M88.1,66.2c0-1.6,0-2.2-0.1-3.2h1.8v2.8h0.1c0.7-1.6,1.9-3.1,3.7-3.1c0.4,0,0.9,0.1,1.3,0.2v1.9
		c-0.4-0.1-0.9-0.2-1.3-0.2c-2.8,0-3.6,3.2-3.6,5.8v7.1h-1.8V66.2z"/>
	<path fill="#231F20" d="M95.9,75.3c1.1,0.5,2.4,0.9,3.8,0.9c1.7,0,3.2-0.9,3.2-2.6c0-3.4-6.9-2.9-6.9-7.1c0-2.9,2.3-3.9,4.7-3.9
		c0.8,0,2.3,0.2,3.6,0.6l-0.2,1.6c-0.9-0.4-2.2-0.7-3.2-0.7c-1.8,0-3.1,0.6-3.1,2.4c0,2.7,7.1,2.4,7.1,7.1c0,3.1-2.9,4.1-5.1,4.1
		c-1.4,0-2.8-0.2-4.1-0.7L95.9,75.3z"/>
	<path fill="#231F20" d="M117.1,76.9c-1.3,0.5-2.9,0.8-4.2,0.8c-4.8,0-6.6-3.2-6.6-7.6c0-4.4,2.4-7.6,6.1-7.6c4.1,0,5.8,3.3,5.8,7.2
		v0.9h-9.9c0,3.1,1.6,5.5,4.8,5.5c1.3,0,3.2-0.6,4-1.1V76.9z M116.2,69.1c0-2.5-1-5-3.7-5c-2.6,0-4.2,2.6-4.2,5H116.2z"/>
	<path fill="#231F20" d="M125.3,79.5c-0.7,2-1.7,4-3.7,4c-0.6,0-1.3-0.1-1.9-0.2l0.2-1.5c0.3,0.1,0.7,0.2,1.3,0.2
		c1.5,0,2-1.3,2.6-3.1l0.4-1.3L119,62.9h2l4.1,12.1l0,0h0.1l4.2-12.1h1.9L125.3,79.5z"/>
	<polygon fill="#231F20" points="140.4,57.6 144.4,57.6 144.4,74.3 152.1,74.3 152.1,77.4 140.4,77.4 	"/>
	<path fill="#231F20" d="M160.4,62.4c4.4,0,7.7,2.9,7.7,7.8c0,4.2-2.8,7.6-7.7,7.6c-4.8,0-7.6-3.4-7.6-7.6
		C152.8,65.4,156.1,62.4,160.4,62.4 M160.4,74.8c2.9,0,3.7-2.6,3.7-5c0-2.2-1.2-4.3-3.7-4.3c-2.5,0-3.6,2.1-3.6,4.3
		C156.8,72.1,157.5,74.8,160.4,74.8"/>
	<path fill="#231F20" d="M171.7,65.6h-2.8v-2.8h2.8v-2.9l3.8-1.2v4.1h3.3v2.8h-3.3v6.8c0,1.3,0.3,2.4,1.8,2.4c0.7,0,1.3-0.1,1.7-0.4
		l0.1,3c-0.8,0.2-1.6,0.3-2.8,0.3c-3,0-4.6-1.9-4.6-4.7V65.6z"/>
	<path fill="#231F20" d="M182.2,65.6h-2.8v-2.8h2.8v-2.9l3.8-1.2v4.1h3.4v2.8H186v6.8c0,1.3,0.4,2.4,1.8,2.4c0.7,0,1.3-0.1,1.7-0.4
		l0.1,3c-0.8,0.2-1.7,0.3-2.8,0.3c-3,0-4.6-1.9-4.6-4.7V65.6z"/>
	<path fill="#231F20" d="M203.1,76.6c-1.4,0.8-3,1.2-5,1.2c-4.8,0-7.6-2.8-7.6-7.6c0-4.2,2.2-7.7,6.8-7.7c5.4,0,7,3.7,7,8.8h-10.1
		c0.2,2.4,1.8,3.7,4.2,3.7c1.8,0,3.4-0.7,4.9-1.5V76.6z M200.6,68.7c-0.1-1.8-1-3.4-3.1-3.4c-2.1,0-3.2,1.5-3.4,3.4H200.6z"/>
	<path fill="#231F20" d="M206.7,62.8h3.4v3.3h0.1c0.2-1.4,1.7-3.7,4-3.7c0.4,0,0.7,0,1.1,0.1v3.8c-0.3-0.2-1-0.3-1.7-0.3
		c-3.1,0-3.1,3.9-3.1,6v5.4h-3.8V62.8z"/>
	<path fill="#231F20" d="M223.2,73.4L223.2,73.4l3.6-10.7h3.9l-5.5,14.5c-1.3,3.2-2.1,6.4-6.1,6.4c-0.9,0-1.8-0.1-2.7-0.4l0.2-2.8
		c0.5,0.2,1.1,0.2,2,0.2c1.6,0,2.4-1,2.4-2.6l-5.5-15.3h4.2L223.2,73.4z"/>
</g>
</svg>
